<svg width="80" height="80" viewBox="0 0 62 62" fill="none" xmlns="http://www.w3.org/2000/svg">
<path d="M50 0H12C5.37258 0 0 5.37258 0 12V50C0 56.6274 5.37258 62 12 62H50C56.6274 62 62 56.6274 62 50V12C62 5.37258 56.6274 0 50 0Z" fill="#E9F4FF"/>
<path d="M51.6198 46.4899C53.6998 46.4899 55.3898 43.9599 55.3898 40.8299C55.3898 37.6999 53.6998 35.1699 51.6198 35.1699C49.5398 35.1699 47.8398 37.6999 47.8398 40.8299C47.8398 43.9599 49.5298 46.4899 51.6198 46.4899Z" fill="#242424"/>
<path d="M53.52 46.4899C55.6 46.4899 57.29 43.9599 57.29 40.8299C57.29 37.6999 55.6 35.1699 53.52 35.1699C49.74 35.1699 49.74 35.6399 49.74 40.8299C49.74 46.0199 49.27 46.4899 53.52 46.4899Z" fill="#242424"/>
<path d="M10.11 41.7704C10.11 46.9704 9.63005 47.4403 13.88 47.4403C15.4 47.4403 16.71 46.0904 17.31 44.1504C17.5432 43.3786 17.6612 42.5766 17.66 41.7704C17.66 38.6504 15.97 36.1104 13.88 36.1104C10.11 36.1104 10.11 36.5804 10.11 41.7704Z" fill="#242424"/>
<path d="M35.5903 47.4403C37.6703 47.4403 39.3603 44.9004 39.3603 41.7704C39.3603 38.6404 37.6703 36.1104 35.5903 36.1104C31.8103 36.1104 31.8103 36.5804 31.8103 41.7704C31.8103 46.9604 31.3403 47.4403 35.5903 47.4403Z" fill="#242424"/>
<path d="M27.1999 11.0903C28.2599 10.4803 32.5099 10.4803 33.5699 11.0903C34.6299 11.7003 34.6299 15.3503 34.6299 15.3503H26.1299C26.1299 15.3503 26.1299 11.6903 27.1999 11.0903Z" fill="#BF1D1D"/>
<path d="M29.91 11.0903C30.85 10.4803 34.63 10.4803 35.57 11.0903C36.51 11.7003 36.57 15.3503 36.57 15.3503H29C29 15.3503 29 11.6903 29.91 11.0903Z" fill="#D44C4C"/>
<path d="M61.0503 44.0999H19.5303V26.8799L21.3103 14.8799L47.7003 14.9999L49.7003 18.6699L51.7903 24.5299L55.1403 30.2799L59.7303 33.3299L61.0203 36.5799L61.0503 44.0999Z" fill="#A5D2FF"/>
<path d="M42.1801 44.0996H5.37012V26.8796L6.73012 15.6196L7.88012 14.8496L30.3501 14.9496L32.0001 18.7396L34.1801 24.3096L37.4801 30.4196L39.8401 31.8296L41.2601 32.8296L42.2001 35.6596L42.1801 44.0996Z" fill="white"/>
<path d="M12.8701 41.3301H36.6701V44.4001H12.8701V41.3301Z" fill="#535353"/>
<path d="M4.42969 39H8.99969V44.4H4.42969V39Z" fill="#535353"/>
<path d="M36.6699 41.3301H61.9999V44.4001H36.6699V41.3301Z" fill="#535353"/>
<path d="M46.9004 38.9404H56.3404V41.7704H46.9004V38.9404Z" fill="#535353"/>
<path d="M12.0002 47.4403C14.0802 47.4403 15.7702 44.9004 15.7702 41.7704C15.7702 38.6404 14.0602 36.1104 12.0002 36.1104C9.9402 36.1104 8.2002 38.6504 8.2002 41.7704C8.2002 44.8904 9.8902 47.4403 12.0002 47.4403Z" fill="#242424"/>
<path d="M12.0004 44.6104C13.0004 44.6104 13.8804 43.3404 13.8804 41.7704C13.8804 40.2004 13.0004 38.9404 12.0004 38.9404C11.0004 38.9404 10.1104 40.2104 10.1104 41.7704C10.1104 43.3304 10.9304 44.6104 12.0004 44.6104Z" fill="white"/>
<path d="M33.6902 47.4403C35.7702 47.4403 37.4602 44.9004 37.4602 41.7704C37.4602 38.6404 35.7702 36.1104 33.6902 36.1104C31.6102 36.1104 29.9102 38.6504 29.9102 41.7704C29.9102 44.8904 31.6002 47.4403 33.6902 47.4403Z" fill="#242424"/>
<path d="M33.6898 44.6104C34.6898 44.6104 35.5698 43.3404 35.5698 41.7704C35.5698 40.2004 34.7298 38.9404 33.6898 38.9404C32.6498 38.9404 31.7998 40.2104 31.7998 41.7704C31.7998 43.3304 32.6398 44.6104 33.6898 44.6104Z" fill="white"/>
<path d="M54.92 29.9401L49.73 18.6201H33.21L38.4 29.9401H54.92Z" fill="#0069D2"/>
<path d="M20.6496 22.1896L19.5796 20.4196C19.5548 20.3809 19.5162 20.353 19.4715 20.3419C19.4269 20.3307 19.3797 20.3371 19.3396 20.3596L17.0496 21.7496V19.0596C17.047 19.0137 17.0269 18.9704 16.9934 18.9388C16.96 18.9072 16.9156 18.8896 16.8696 18.8896H14.7996C14.7553 18.892 14.7134 18.9107 14.682 18.9421C14.6507 18.9735 14.632 19.0153 14.6296 19.0596V21.7496L12.3296 20.3596C12.3109 20.3473 12.2898 20.3391 12.2677 20.3354C12.2455 20.3318 12.2229 20.3328 12.2012 20.3385C12.1795 20.3441 12.1593 20.3543 12.1418 20.3683C12.1243 20.3823 12.1099 20.3998 12.0996 20.4196L10.9996 22.1896C10.9799 22.2287 10.9752 22.2736 10.9862 22.316C10.9973 22.3583 11.0233 22.3951 11.0596 22.4196L13.4896 23.8896L11.0596 25.3496C11.0226 25.3759 10.9962 25.4145 10.9852 25.4585C10.9742 25.5026 10.9793 25.5491 10.9996 25.5896L12.0796 27.3596C12.0899 27.3795 12.1043 27.397 12.1218 27.411C12.1393 27.425 12.1595 27.4352 12.1812 27.4408C12.2029 27.4465 12.2255 27.4475 12.2477 27.4439C12.2698 27.4402 12.2909 27.432 12.3096 27.4196L14.6296 25.9996V28.6896C14.632 28.734 14.6507 28.7758 14.682 28.8072C14.7134 28.8386 14.7553 28.8572 14.7996 28.8596H16.8696C16.9156 28.8597 16.96 28.8421 16.9934 28.8105C17.0269 28.7789 17.047 28.7356 17.0496 28.6896V25.9996L19.3396 27.3896C19.3797 27.4122 19.4269 27.4186 19.4715 27.4074C19.5162 27.3963 19.5548 27.3684 19.5796 27.3296L20.6496 25.5596C20.6621 25.5401 20.6705 25.5183 20.6742 25.4954C20.6779 25.4726 20.677 25.4492 20.6714 25.4267C20.6657 25.4042 20.6556 25.3831 20.6415 25.3647C20.6275 25.3463 20.6098 25.331 20.5896 25.3196L18.1696 23.8596L20.5896 22.3896C20.6095 22.3793 20.627 22.365 20.641 22.3474C20.6549 22.3299 20.6651 22.3097 20.6707 22.288C20.6764 22.2663 20.6774 22.2437 20.6738 22.2216C20.6701 22.1995 20.6619 22.1784 20.6496 22.1596V22.1896Z" fill="#0069D2"/>
<path d="M5.37012 31.8301H34.3701L35.5801 34.6701H5.37012V31.8301Z" fill="#D44C4C"/>
<path d="M44.0703 31.8301H57.2803V34.6701H44.0703V31.8301Z" fill="#BF1D1D"/>
<path d="M27.0801 29.9401V18.6201H30.3801L35.5701 29.9401H27.0801Z" fill="#00468C"/>
<path d="M39.8204 31.8301C39.8204 31.8301 38.4004 32.4801 38.4004 32.8301C38.4004 34.1301 40.9804 35.6601 42.1804 35.6601L41.2404 32.8301L39.8204 31.8301Z" fill="#EDBE00"/>
<path d="M41.2403 32.7803L39.8203 31.7803H45.0003L46.0003 33.6703L45.0003 35.5603H42.1803L41.2403 32.7803Z" fill="#FBFFE9"/>
<path d="M55.8602 32.7803L54.4502 31.7803H58.5502L60.0802 33.6103L59.6402 35.6103H56.8102L55.8602 32.7803Z" fill="#FBFFE9"/>
</svg>
