<svg width="101" height="101" viewBox="0 0 101 101" fill="none" xmlns="http://www.w3.org/2000/svg">
<circle cx="50.5859" cy="50.6016" r="50" fill="#E9F4FF"/>
<path d="M78.8369 56.8171C80.0449 51.8095 78.7623 50.5498 79.5265 46.9935C81.367 38.4275 80.6774 34.3329 80.6774 34.3329C80.7177 32.8428 79.6679 30.276 78.8369 28.9774C76.167 24.8052 69.1669 21.0732 64.6174 23.697L61.9254 25.0517C61.7331 25.2513 61.4929 25.2363 61.2532 25.2513L59.9117 25.335C57.0605 25.5128 55.3635 30.502 55.4786 33.0169C55.4786 33.0169 54.1751 38.9368 56.5052 46.9935C57.171 49.2954 55.4786 52.7483 56.5332 56.8171C57.5878 60.886 62.7779 64.8489 62.7779 64.8489H72.3286C72.3286 64.8489 77.6288 61.8248 78.8369 56.8171Z" fill="#32281E"/>
<path d="M76.3489 45.3588C77.4217 45.3588 78.2914 44.1946 78.2914 42.7585C78.2914 41.3224 77.4217 40.1582 76.3489 40.1582H73.0254V45.3587H76.3489V45.3588Z" fill="#F9D2AA"/>
<path d="M59.243 45.3588C58.1294 45.3588 57.2266 44.1946 57.2266 42.7585C57.2266 41.3224 58.1293 40.1582 59.243 40.1582H62.4925V45.3587H59.243V45.3588Z" fill="#F9BA8A"/>
<path d="M73.0624 57.1409C72.9778 57.1055 72.7405 56.9645 72.7405 56.8722V46.1738H62.515V56.8722C62.515 56.9645 62.4944 57.1055 62.4097 57.1409L59.666 61.6902L68.2603 68.5289L74.3524 59.2911L73.0624 57.1409Z" fill="#F9D2AA"/>
<path d="M72.7405 48.917V46.1738H62.515V56.8722C62.515 56.9645 62.4944 57.1055 62.4097 57.1409L59.666 61.6902L63.81 59.6605L64.9868 58.5707C65.1265 58.3604 65.0065 58.5707 65.1265 58.3604L65.5654 57.4936C66.0042 56.6269 66.8819 56.1935 67.3736 56.219C67.423 56.2198 67.4726 56.2202 67.5221 56.2202C68.5568 56.2202 69.5765 56.0424 70.5494 55.6929L70.6317 55.6636C71.375 55.3962 72.08 54.4261 72.7406 54.0266V51.1971H65.4785V48.9172L72.7405 48.917Z" fill="#E5A677"/>
<path d="M76.0737 36.6355L69.5785 35.9234L64.7989 33.9865L61.8758 32.3564L61.1112 35.4845L59.8613 39.6108L60.2563 45.4213L62.2622 49.2961L64.5641 52.749L69.1679 53.8999L70.3932 53.5921C72.6208 51.598 74.1863 49.348 76.0737 44.6922L76.4911 40.0884L76.0737 36.6355Z" fill="#F9D2AA"/>
<path d="M76.074 36.4374C76.074 35.3918 74.5568 34.349 72.8148 34.349L68.2271 34.338C66.8032 34.338 65.4312 33.8382 64.3818 32.9372L62.6247 31.4285L61.5277 30.4866C61.4348 30.4069 61.715 31.8325 61.5277 32.6606C61.2642 33.8254 61.0419 34.2048 59.9606 35.2865C58.8794 36.3682 58.8096 36.8243 58.8096 38.7394L59.9605 44.4942C61.277 48.3946 63.4134 52.7488 66.0046 53.8285C66.8209 54.1687 68.2271 54.5381 70.0944 53.8285C70.6015 53.6359 70.9936 53.2193 71.4702 52.5509C70.3822 53.2193 69.3129 53.0752 68.0173 52.7488C63.8115 51.3337 61.6521 48.0703 61.6521 43.8864C61.6521 43.8864 61.1115 39.8903 61.1115 37.5884C61.1115 35.2865 62.2625 34.1418 62.2625 34.1355C62.2625 34.1355 62.6755 33.6678 63.3009 34.2048L64.5644 35.2896C65.6447 36.2172 67.0575 36.7319 68.5236 36.7319L73.2868 36.7429C74.3482 36.7429 75.6181 38.0288 76.3341 38.7574L76.074 36.4374C76.0738 36.015 76.074 37.5884 76.074 36.4374Z" fill="#F9BA8A"/>
<rect x="63.1426" y="62.9834" width="8.81604" height="3.65082" fill="#00468C"/>
<path d="M85.7465 71.0431V72.9786C85.7465 73.5069 85.3241 73.9352 84.803 73.9352H50.1798C49.6587 73.9352 49.2363 73.5069 49.2363 72.9786V71.0431C49.2363 66.084 51.4081 61.6185 55.9361 59.7459L62.4075 57.1416L67.1828 65.9036C67.5502 66.6337 67.5502 66.6337 67.9175 65.9036L73.0602 57.1416L74.5295 57.8718L79.3137 59.7459C83.8416 61.6185 85.7465 66.084 85.7465 71.0431Z" fill="#0069D2"/>
<path d="M54.1239 72.8615C54.1239 67.9025 57.0872 62.4007 61.6151 60.528L63.8093 59.6613L62.4089 57.1416L55.9376 59.7459C51.4096 61.6186 49.2236 66.0841 49.2236 71.0432V72.9786C49.2236 73.5069 49.6461 73.9353 50.1671 73.9353H54.1239V72.8615Z" fill="#00468C"/>
<path d="M78.5426 67.0829H76.3486V64.8584H74.7183V67.0829H72.5244V68.7359H74.7183V70.9603H76.3486V68.7359H78.5426V67.0829Z" fill="#C1ECE9"/>
<path d="M76.3474 64.8564H75.5322V70.9583H76.3474V68.7339H78.5413V67.0809H76.3474V64.8564Z" fill="#C1ECE9"/>
<path d="M61.3066 57.5067L62.4086 57.1416L67.184 65.9036C67.184 65.9036 67.3485 66.2687 67.5513 66.2687C67.7542 66.2687 67.9187 65.9036 67.9187 65.9036L73.0614 57.1416L74.1634 57.5067L69.0207 66.6337C68.9155 66.6337 66.8167 69.5544 66.8167 69.5544C66.8167 69.5544 66.4493 69.9195 66.082 69.5544C65.7147 69.1893 66.082 68.8242 66.082 68.8242L66.8167 67.729L61.3066 57.5067Z" fill="white"/>
<path d="M44.1006 41.673C45.9495 37.4908 45.9825 34.0057 45.634 32.6117C45.2854 31.2176 45.076 29.4751 43.5429 27.384C40.9118 23.7953 36.9212 23.2019 33.0876 22.8534C29.254 22.5049 26.8144 25.293 26.8144 25.293C26.6234 25.4925 26.007 25.6265 25.7689 25.6415C25.7689 25.6415 24.7234 25.4291 22.9808 26.6871C21.2383 27.945 20.8982 30.2531 20.5404 31.9147C20.1825 33.5763 19.4947 36.7938 21.5856 40.976C23.6765 45.1581 28.2074 50.3857 28.2074 50.3857L38.3151 49.6887C38.3151 49.6887 42.2516 45.8551 44.1006 41.673Z" fill="#282828"/>
<path d="M40.9343 45.4647C41.9636 45.7405 43.0991 44.8402 43.4706 43.4538C43.842 42.0675 43.3088 40.7201 42.2796 40.4443L39.0908 39.5898L37.7456 44.6102L40.9344 45.4646L40.9343 45.4647Z" fill="#F9D2AA"/>
<path d="M25.3307 45.4464C24.2622 45.7327 23.0949 44.8409 22.7234 43.4546C22.3519 42.0682 22.9169 40.7123 23.9855 40.4259L27.1032 39.5906L28.4484 44.6109L25.3307 45.4463L25.3307 45.4464Z" fill="#F9BA8A"/>
<path d="M38.3631 57.152C38.279 57.1166 38.0433 56.9757 38.0433 56.8835V46.1914H27.8865V56.8835C27.8865 56.9757 27.866 57.1166 27.7819 57.152L25.0566 61.6987L33.5932 68.5334L39.6444 59.301L38.3631 57.152Z" fill="#F9D2AA"/>
<path d="M38.0433 48.933V46.1914H27.8865V56.8835C27.8865 56.9757 27.866 57.1166 27.7819 57.152L25.0566 61.6987L29.1728 59.6702L30.3417 58.5811C30.4805 58.3708 30.3613 58.5811 30.4805 58.3708L30.9164 57.5046C31.3523 56.6383 32.224 56.2052 32.7125 56.2307C32.7616 56.2315 32.8108 56.2319 32.86 56.2319C33.8878 56.2319 34.9006 56.0542 35.867 55.7049L35.9487 55.6756C36.687 55.4083 37.3873 54.4389 38.0434 54.0396V51.2117H30.8301V48.9331L38.0433 48.933Z" fill="#E5A677"/>
<path d="M41.7988 34.7018L35.1771 32.6107L30.2979 30.8682L27.251 32.3795L25.6816 33.8596L25.25 39.6296L25.6423 45.4367L27.2117 49.7177L29.6088 53.1696L34.8233 54.0359L35.7112 53.6028C38.6128 51.99 40.07 48.8384 40.9418 45.8065C40.9418 45.8065 42.6853 39.6662 42.6853 37.9865C42.6853 36.3069 41.7988 34.7018 41.7988 34.7018Z" fill="#F9D2AA"/>
<path d="M41.4523 34.0051C40.7552 33.3081 39.0127 32.9595 37.9672 32.611C36.9753 32.2804 35.1791 31.3332 34.8306 31.217C34.4821 31.1008 31.2589 29.4317 29.6029 29.8229C27.947 30.2141 27.8604 30.8685 27.8604 30.8685C27.8604 30.8685 27.4461 30.7058 27.2164 30.7058C26.9867 30.7058 26.7474 30.7643 26.4663 30.8685C26.0062 31.0391 25.0727 32.611 24.7242 33.6565C24.3757 34.7021 23.6787 35.7476 23.6787 37.1416C23.6787 38.5357 25.253 45.3745 25.253 45.3745C26.5606 49.2727 27.1778 52.6228 31.3554 54.0371C33.2667 54.5215 34.4065 54.4702 35.7142 53.6039C36.586 53.1708 37.0218 52.7377 37.4577 52.3046C36.1518 52.4821 35.2826 53.7545 33.9956 53.4282C29.818 52.014 27.0321 48.2823 27.0321 44.1008C27.0321 44.1008 25.7698 38.8842 25.7698 37.8387C25.7698 36.7931 26.4663 34.7733 26.8153 34.3536C27.1643 33.9338 28.1389 32.8822 28.6969 32.5723C29.2549 32.2625 30.3004 31.5655 31.3459 31.5655C32.3915 31.5655 33.7855 32.2625 35.528 32.9595C37.2706 33.6565 40.0587 34.3536 40.0587 34.3536C41.4523 34.7021 42.5883 36.0961 42.6883 38.0962V36.9395C42.6881 36.5173 42.5783 35.1311 41.4523 34.0051Z" fill="#F9BA8A"/>
<rect x="28.5117" y="62.9883" width="8.75685" height="3.64869" fill="#00468C"/>
<path d="M52.0147 71.0418V72.9762C52.0147 73.5042 51.5951 73.9322 51.0775 73.9322H14.8571C14.3395 73.9322 13.9199 73.5042 13.9199 72.9762V71.0418C13.9199 66.0856 16.8594 61.6228 21.357 59.7512L27.7849 57.1484L32.5282 65.9053C32.8931 66.635 32.8931 66.635 33.258 65.9053L38.3661 57.1484L39.8256 57.8782L44.5776 59.7512C49.0752 61.6228 52.0147 66.0856 52.0147 71.0418Z" fill="#0069D2"/>
<path d="M19.5555 72.8592C19.5555 67.903 22.4989 62.4045 26.9964 60.5329L29.1759 59.6666L27.7849 57.1484L21.357 59.7512C16.8594 61.6229 13.9199 66.0857 13.9199 71.0419V72.9762C13.9199 73.5042 14.3395 73.9324 14.8571 73.9324H19.5555V72.8592Z" fill="#00468C"/>
<path d="M43.8098 67.0884H41.6306V64.8652H40.0112V67.0884H37.832V68.7404H40.0112V70.9635H41.6306V68.7404H43.8098V67.0884Z" fill="#C1ECE9"/>
<path d="M41.628 64.8633H40.8184V70.9616H41.628V68.7385H43.8072V67.0864H41.628V64.8633Z" fill="#C1ECE9"/>
<path d="M26.6904 57.5172L27.785 57.1523L32.5283 65.9092C32.5283 65.9092 32.6917 66.2741 32.8932 66.2741C33.0947 66.2741 33.2581 65.9092 33.2581 65.9092L38.3662 57.1523L39.4608 57.5172L34.3527 66.6389C34.2482 66.6389 32.1635 69.5579 32.1635 69.5579C32.1635 69.5579 31.7986 69.9227 31.4337 69.5579C31.0689 69.193 31.4337 68.8281 31.4337 68.8281L32.1635 67.7335L26.6904 57.5172Z" fill="#16C793"/>
</svg>
