<svg width="24" height="24" viewBox="0 0 24 24" fill="none" xmlns="http://www.w3.org/2000/svg">
    <!-- Chat Bubble with Soothing Fill Color -->
    <path d="M5 4H19C20.1 4 21 4.9 21 6V16C21 17.1 20.1 18 19 18H8L4 21V6C4 4.9 4.9 4 6 4Z"
        fill="#81C784"/> <!-- Soft Green for Care and Healing -->

    <!-- AI Nodes (representing connection and support) -->
    <circle cx="7" cy="7" r="0.8" fill="#81C784"/>
    <circle cx="17" cy="7" r="0.8" fill="#81C784"/>
    <circle cx="12" cy="15" r="0.8" fill="#81C784"/>

    <!-- Palliative Care Heart Symbol -->
    <path d="M12 21C12 21 10 18 7 15C5 13 3 11 3 8C3 5 5 3 7 3C8 3 9 4 10 5C11 4 12 3 13 3C15 3 17 5 17 8C17 11 15 13 13 15C10 18 12 21 12 21Z"
        fill="#E57373"/> <!-- Heart in a Soft Red-Pink -->

    <!-- Hospital Building (simplified for palliative care) -->
    <rect x="7" y="12" width="10" height="6" fill="#81C784"/>
    <path d="M9 14V18M15 14V18" stroke="white" stroke-width="1.5" stroke-linecap="round"/>
    <path d="M10 16H14" stroke="white" stroke-width="1.5" stroke-linecap="round"/>
</svg>
