<svg width="101" height="101" viewBox="0 0 101 101" fill="none" xmlns="http://www.w3.org/2000/svg">
<circle cx="50.5859" cy="50.6016" r="50" fill="#E9F4FF"/>
<path d="M71.1084 72.1904L28.8141 22.3027C27.4783 22.3027 25.0301 22.4246 25.0301 25.7261V73.7396C25.0301 75.0754 26.112 76.1572 27.4478 76.1572H68.1726C69.5085 76.1623 71.1084 74.9636 71.1084 72.1904Z" fill="#00468C"/>
<path d="M27.124 72.257V24.594C27.124 23.3192 28.1551 22.2881 29.43 22.2881H69.3421C70.617 22.2881 71.6481 23.3192 71.6481 24.594V72.257C71.6481 73.5319 70.617 74.563 69.3421 74.563H29.43C28.1551 74.563 27.124 73.5319 27.124 72.257Z" fill="#0069D2"/>
<path d="M32.1045 69.8584V26.8682C32.1045 26.213 32.6378 25.6797 33.293 25.6797H66.0131C66.6683 25.6797 67.2016 26.213 67.2016 26.8682V69.8584C67.2016 70.5136 66.6683 71.0469 66.0131 71.0469H33.293C32.6378 71.0469 32.1045 70.5187 32.1045 69.8584Z" fill="white"/>
<path opacity="0.35" d="M61.8097 28.5857V22.3027H54.709L59.133 28.5857H61.8097Z" fill="#212121"/>
<path d="M57.2803 22.5375L55.6448 22.5121C54.5578 22.5121 54.3547 21.5471 54.314 21.3439C54.2582 21.0798 54.1871 20.4957 54.1566 20.262C53.8823 17.9815 53.1001 16.5796 50.2507 16.2546C47.7822 15.9752 46.0096 18.5097 46.0096 20.9274V20.9477C46.0147 22.0398 45.1868 22.954 44.0947 22.954C44.0947 22.954 40.905 22.4105 38.6245 25.0212C38.1978 25.5088 37.6848 27.5202 37.6797 28.084C37.6696 29.6534 39.0257 29.8617 39.4981 29.8668C41.6212 29.882 58.9158 29.8261 60.5716 29.8261C61.2522 29.8261 61.8058 29.2725 61.8058 28.5919V27.6726C61.8109 25.0619 59.8859 22.5375 57.2803 22.5375ZM50.1085 22.6747C49.885 22.6747 49.6638 22.6306 49.4573 22.5451C49.2509 22.4596 49.0633 22.3343 48.9053 22.1763C48.7473 22.0183 48.622 21.8307 48.5365 21.6243C48.451 21.4178 48.407 21.1966 48.407 20.9731C48.407 20.7497 48.451 20.5284 48.5365 20.322C48.622 20.1155 48.7473 19.928 48.9053 19.77C49.0633 19.612 49.2509 19.4866 49.4573 19.4011C49.6638 19.3156 49.885 19.2716 50.1085 19.2716C50.5598 19.2716 50.9925 19.4509 51.3116 19.77C51.6307 20.0891 51.81 20.5219 51.81 20.9731C51.81 21.4244 51.6307 21.8572 51.3116 22.1763C50.9925 22.4954 50.5598 22.6747 50.1085 22.6747Z" fill="#2F7889"/>
<path d="M56.3502 22.2824H55.3648C54.2779 22.2824 53.841 21.4291 53.7039 21.1345C53.5058 20.7028 53.4499 19.8241 53.4144 19.5905C53.13 17.7975 51.6316 16.3754 49.8285 16.1823C47.36 15.9132 45.2674 17.8432 45.2674 20.2558V20.2762C45.2725 21.3682 44.4446 22.2824 43.3525 22.2824H42.3875C41.1361 22.2824 39.9359 22.7796 39.051 23.6645C38.1661 24.5494 37.6689 25.7496 37.6689 27.001V27.9203C37.6689 28.6009 38.2226 29.1546 38.9032 29.1546H59.8294C60.51 29.1546 61.0636 28.6009 61.0636 27.9203V27.001C61.0687 24.3954 58.9558 22.2824 56.3502 22.2824ZM49.3663 22.0082C49.1428 22.0082 48.9216 21.9642 48.7151 21.8786C48.5087 21.7931 48.3211 21.6678 48.1631 21.5098C48.0051 21.3518 47.8798 21.1642 47.7943 20.9578C47.7088 20.7513 47.6648 20.5301 47.6648 20.3066C47.6648 20.0832 47.7088 19.8619 47.7943 19.6555C47.8798 19.4491 48.0051 19.2615 48.1631 19.1035C48.3211 18.9455 48.5087 18.8201 48.7151 18.7346C48.9216 18.6491 49.1428 18.6051 49.3663 18.6051C49.8176 18.6051 50.2503 18.7844 50.5694 19.1035C50.8885 19.4226 51.0678 19.8554 51.0678 20.3066C51.0678 20.7579 50.8885 21.1907 50.5694 21.5098C50.2503 21.8289 49.8176 22.0082 49.3663 22.0082Z" fill="#82AEC0"/>
<path d="M57.7667 25.3558H40.4569C39.7966 25.3558 39.6239 24.985 39.9642 24.4212C40.462 23.6035 41.6505 23.0651 42.6663 23.0651C44.8707 23.0651 52.8247 22.8213 55.6233 22.8213C56.9896 22.8213 57.7007 23.2784 58.2949 24.0403C58.7165 24.5888 58.4524 25.3558 57.7667 25.3558Z" fill="#B9E4EA"/>
<path d="M46.5977 18.9755C46.8821 17.8175 47.9741 17.4873 47.9741 17.4873" stroke="#B9E4EA" stroke-width="0.978873" stroke-miterlimit="10" stroke-linecap="round"/>
<path d="M36.2945 50.7783H41.8401H44.3786L41.9377 57.8205C41.8401 58.1559 41.9573 58.3794 42.2306 58.3794H47.9129C48.1667 58.3794 48.4792 58.1112 48.5963 57.8205L51.0176 50.7559H57.8715C58.1839 50.7559 58.4963 50.51 58.594 50.2417L60.5661 44.5185C60.6442 44.2502 60.488 44.049 60.1756 44.049H53.3218L55.8407 36.7161C55.9383 36.3808 55.8212 36.1572 55.5478 36.1572H49.846C49.5922 36.1572 49.2798 36.4255 49.1626 36.7161L46.6437 44.0043L46.6241 44.049H46.507H38.4229C38.2277 44.049 38.2082 44.362 38.3839 44.4291L45.6283 45.9493C45.804 45.994 45.804 46.307 45.6087 46.3294L37.5247 46.8659C37.3295 46.8659 37.3099 47.1789 37.4857 47.246L44.5543 48.3414L44.8082 48.3862C45.0034 48.4085 45.0034 48.7215 44.8277 48.7662L44.5543 48.8333L36.2555 50.3982C36.0798 50.4653 36.1188 50.7336 36.2945 50.7783Z" fill="#00C3B5"/>
<path d="M78.8487 60.2293C78.8487 71.1979 83.8344 70.2008 83.8344 75.1865C83.8344 75.1865 83.8344 77.1808 81.8401 77.1808H55.9142C53.9199 77.1808 53.9199 75.1865 53.9199 75.1865C53.9199 70.2008 58.9057 71.1979 58.9057 60.2293C58.9057 54.723 63.3699 50.2578 68.8772 50.2578C74.3844 50.2578 78.8487 54.723 78.8487 60.2293Z" fill="#FFAC33"/>
<path d="M68.8752 53.2505C70.5274 53.2505 71.8667 51.9112 71.8667 50.259C71.8667 48.6069 70.5274 47.2676 68.8752 47.2676C67.2231 47.2676 65.8838 48.6069 65.8838 50.259C65.8838 51.9112 67.2231 53.2505 68.8752 53.2505Z" fill="#FFAC33"/>
<path d="M68.8812 80.6009C69.939 80.6009 70.9535 80.1807 71.7015 79.4327C72.4495 78.6847 72.8698 77.6701 72.8698 76.6123H64.8926C64.8926 77.6701 65.3128 78.6847 66.0608 79.4327C66.8088 80.1807 67.8233 80.6009 68.8812 80.6009Z" fill="#FFAC33"/>
<mask id="mask0_4620_60706" style="mask-type:alpha" maskUnits="userSpaceOnUse" x="53" y="47" width="31" height="34">
<path d="M68.8752 53.2505C70.5274 53.2505 71.8667 51.9112 71.8667 50.259C71.8667 48.6069 70.5274 47.2676 68.8752 47.2676C67.2231 47.2676 65.8838 48.6069 65.8838 50.259C65.8838 51.9112 67.2231 53.2505 68.8752 53.2505Z" fill="#FFAC33"/>
<path d="M78.8487 60.2293C78.8487 71.1979 83.8344 70.2008 83.8344 75.1865C83.8344 75.1865 83.8344 77.1808 81.8401 77.1808H55.9142C53.9199 77.1808 53.9199 75.1865 53.9199 75.1865C53.9199 70.2008 58.9057 71.1979 58.9057 60.2293C58.9057 54.723 63.3699 50.2578 68.8772 50.2578C74.3844 50.2578 78.8487 54.723 78.8487 60.2293Z" fill="#FFAC33"/>
<path d="M68.8782 80.6009C69.9361 80.6009 70.9506 80.1807 71.6986 79.4327C72.4466 78.6847 72.8668 77.6701 72.8668 76.6123H64.8896C64.8896 77.6701 65.3099 78.6847 66.0579 79.4327C66.8059 80.1807 67.8204 80.6009 68.8782 80.6009Z" fill="#FFAC33"/>
</mask>
<g mask="url(#mask0_4620_60706)">
<path d="M68.8772 47.2676C62.467 47.2675 47.5098 52.9654 47.5098 57.9512C47.5098 57.9512 53.1126 77.1821 51.2886 77.1821L61.0859 77.0395C59.2619 77.0395 59.2619 75.0452 59.2619 75.0452C59.2619 70.0594 61.8413 71.199 61.8413 60.2303C61.8413 54.724 64.4471 51.541 67.8089 50.4727C67.8089 49.4044 67.9001 48.3359 68.8772 47.2676Z" fill="#F29307"/>
<path d="M70.8723 53.9292C72.5244 53.9292 73.8638 52.5899 73.8638 50.9377C73.8638 49.2856 72.5244 47.9463 70.8723 47.9463C69.2202 47.9463 67.8809 49.2856 67.8809 50.9377C67.8809 52.5899 69.2202 53.9292 70.8723 53.9292Z" fill="#FFAC33"/>
<path d="M71.1495 80.3467C72.2074 80.3467 65.3674 81.4575 65.3674 80.3891C63.2306 78.2524 63.7189 78.1994 63.7189 77.1416H66.9241C66.9241 78.1994 67.1964 78.5303 67.9444 79.2783C68.6924 80.0264 70.0917 80.3467 71.1495 80.3467Z" fill="#F29307"/>
</g>
<circle cx="50.5859" cy="50.6016" r="50" fill="#E9F4FF"/>
<path d="M71.1084 72.1904L28.8141 22.3027C27.4783 22.3027 25.0301 22.4246 25.0301 25.7261V73.7396C25.0301 75.0754 26.112 76.1572 27.4478 76.1572H68.1726C69.5085 76.1623 71.1084 74.9636 71.1084 72.1904Z" fill="#00468C"/>
<path d="M27.124 72.257V24.594C27.124 23.3192 28.1551 22.2881 29.43 22.2881H69.3421C70.617 22.2881 71.6481 23.3192 71.6481 24.594V72.257C71.6481 73.5319 70.617 74.563 69.3421 74.563H29.43C28.1551 74.563 27.124 73.5319 27.124 72.257Z" fill="#0069D2"/>
<path d="M32.1045 69.8584V26.8682C32.1045 26.213 32.6378 25.6797 33.293 25.6797H66.0131C66.6683 25.6797 67.2016 26.213 67.2016 26.8682V69.8584C67.2016 70.5136 66.6683 71.0469 66.0131 71.0469H33.293C32.6378 71.0469 32.1045 70.5187 32.1045 69.8584Z" fill="white"/>
<path opacity="0.35" d="M61.8097 28.5857V22.3027H54.709L59.133 28.5857H61.8097Z" fill="#212121"/>
<path d="M57.2803 22.5375L55.6448 22.5121C54.5578 22.5121 54.3547 21.5471 54.314 21.3439C54.2582 21.0798 54.1871 20.4957 54.1566 20.262C53.8823 17.9815 53.1001 16.5796 50.2507 16.2546C47.7822 15.9752 46.0096 18.5097 46.0096 20.9274V20.9477C46.0147 22.0398 45.1868 22.954 44.0947 22.954C44.0947 22.954 40.905 22.4105 38.6245 25.0212C38.1978 25.5088 37.6848 27.5202 37.6797 28.084C37.6696 29.6534 39.0257 29.8617 39.4981 29.8668C41.6212 29.882 58.9158 29.8261 60.5716 29.8261C61.2522 29.8261 61.8058 29.2725 61.8058 28.5919V27.6726C61.8109 25.0619 59.8859 22.5375 57.2803 22.5375ZM50.1085 22.6747C49.885 22.6747 49.6638 22.6306 49.4573 22.5451C49.2509 22.4596 49.0633 22.3343 48.9053 22.1763C48.7473 22.0183 48.622 21.8307 48.5365 21.6243C48.451 21.4178 48.407 21.1966 48.407 20.9731C48.407 20.7497 48.451 20.5284 48.5365 20.322C48.622 20.1155 48.7473 19.928 48.9053 19.77C49.0633 19.612 49.2509 19.4866 49.4573 19.4011C49.6638 19.3156 49.885 19.2716 50.1085 19.2716C50.5598 19.2716 50.9925 19.4509 51.3116 19.77C51.6307 20.0891 51.81 20.5219 51.81 20.9731C51.81 21.4244 51.6307 21.8572 51.3116 22.1763C50.9925 22.4954 50.5598 22.6747 50.1085 22.6747Z" fill="#2F7889"/>
<path d="M56.3502 22.2824H55.3648C54.2779 22.2824 53.841 21.4291 53.7039 21.1345C53.5058 20.7028 53.4499 19.8241 53.4144 19.5905C53.13 17.7975 51.6316 16.3754 49.8285 16.1823C47.36 15.9132 45.2674 17.8432 45.2674 20.2558V20.2762C45.2725 21.3682 44.4446 22.2824 43.3525 22.2824H42.3875C41.1361 22.2824 39.9359 22.7796 39.051 23.6645C38.1661 24.5494 37.6689 25.7496 37.6689 27.001V27.9203C37.6689 28.6009 38.2226 29.1546 38.9032 29.1546H59.8294C60.51 29.1546 61.0636 28.6009 61.0636 27.9203V27.001C61.0687 24.3954 58.9558 22.2824 56.3502 22.2824ZM49.3663 22.0082C49.1428 22.0082 48.9216 21.9642 48.7151 21.8786C48.5087 21.7931 48.3211 21.6678 48.1631 21.5098C48.0051 21.3518 47.8798 21.1642 47.7943 20.9578C47.7088 20.7513 47.6648 20.5301 47.6648 20.3066C47.6648 20.0832 47.7088 19.8619 47.7943 19.6555C47.8798 19.4491 48.0051 19.2615 48.1631 19.1035C48.3211 18.9455 48.5087 18.8201 48.7151 18.7346C48.9216 18.6491 49.1428 18.6051 49.3663 18.6051C49.8176 18.6051 50.2503 18.7844 50.5694 19.1035C50.8885 19.4226 51.0678 19.8554 51.0678 20.3066C51.0678 20.7579 50.8885 21.1907 50.5694 21.5098C50.2503 21.8289 49.8176 22.0082 49.3663 22.0082Z" fill="#82AEC0"/>
<path d="M57.7667 25.3558H40.4569C39.7966 25.3558 39.6239 24.985 39.9642 24.4212C40.462 23.6035 41.6505 23.0651 42.6663 23.0651C44.8707 23.0651 52.8247 22.8213 55.6233 22.8213C56.9896 22.8213 57.7007 23.2784 58.2949 24.0403C58.7165 24.5888 58.4524 25.3558 57.7667 25.3558Z" fill="#B9E4EA"/>
<path d="M46.5977 18.9755C46.8821 17.8175 47.9741 17.4873 47.9741 17.4873" stroke="#B9E4EA" stroke-width="0.978873" stroke-miterlimit="10" stroke-linecap="round"/>
<path d="M36.2945 50.7783H41.8401H44.3786L41.9377 57.8205C41.8401 58.1559 41.9573 58.3794 42.2306 58.3794H47.9129C48.1667 58.3794 48.4792 58.1112 48.5963 57.8205L51.0176 50.7559H57.8715C58.1839 50.7559 58.4963 50.51 58.594 50.2417L60.5661 44.5185C60.6442 44.2502 60.488 44.049 60.1756 44.049H53.3218L55.8407 36.7161C55.9383 36.3808 55.8212 36.1572 55.5478 36.1572H49.846C49.5922 36.1572 49.2798 36.4255 49.1626 36.7161L46.6437 44.0043L46.6241 44.049H46.507H38.4229C38.2277 44.049 38.2082 44.362 38.3839 44.4291L45.6283 45.9493C45.804 45.994 45.804 46.307 45.6087 46.3294L37.5247 46.8659C37.3295 46.8659 37.3099 47.1789 37.4857 47.246L44.5543 48.3414L44.8082 48.3862C45.0034 48.4085 45.0034 48.7215 44.8277 48.7662L44.5543 48.8333L36.2555 50.3982C36.0798 50.4653 36.1188 50.7336 36.2945 50.7783Z" fill="#00C3B5"/>
<path d="M78.8487 60.2293C78.8487 71.1979 83.8344 70.2008 83.8344 75.1865C83.8344 75.1865 83.8344 77.1808 81.8401 77.1808H55.9142C53.9199 77.1808 53.9199 75.1865 53.9199 75.1865C53.9199 70.2008 58.9057 71.1979 58.9057 60.2293C58.9057 54.723 63.3699 50.2578 68.8772 50.2578C74.3844 50.2578 78.8487 54.723 78.8487 60.2293Z" fill="#FFAC33"/>
<path d="M68.8752 53.2505C70.5274 53.2505 71.8667 51.9112 71.8667 50.259C71.8667 48.6069 70.5274 47.2676 68.8752 47.2676C67.2231 47.2676 65.8838 48.6069 65.8838 50.259C65.8838 51.9112 67.2231 53.2505 68.8752 53.2505Z" fill="#FFAC33"/>
<path d="M68.8812 80.6009C69.939 80.6009 70.9535 80.1807 71.7015 79.4327C72.4495 78.6847 72.8698 77.6701 72.8698 76.6123H64.8926C64.8926 77.6701 65.3128 78.6847 66.0608 79.4327C66.8088 80.1807 67.8233 80.6009 68.8812 80.6009Z" fill="#FFAC33"/>
<mask id="mask1_4620_60706" style="mask-type:alpha" maskUnits="userSpaceOnUse" x="53" y="47" width="31" height="34">
<path d="M68.8752 53.2505C70.5274 53.2505 71.8667 51.9112 71.8667 50.259C71.8667 48.6069 70.5274 47.2676 68.8752 47.2676C67.2231 47.2676 65.8838 48.6069 65.8838 50.259C65.8838 51.9112 67.2231 53.2505 68.8752 53.2505Z" fill="#FFAC33"/>
<path d="M78.8487 60.2293C78.8487 71.1979 83.8344 70.2008 83.8344 75.1865C83.8344 75.1865 83.8344 77.1808 81.8401 77.1808H55.9142C53.9199 77.1808 53.9199 75.1865 53.9199 75.1865C53.9199 70.2008 58.9057 71.1979 58.9057 60.2293C58.9057 54.723 63.3699 50.2578 68.8772 50.2578C74.3844 50.2578 78.8487 54.723 78.8487 60.2293Z" fill="#FFAC33"/>
<path d="M68.8782 80.6009C69.9361 80.6009 70.9506 80.1807 71.6986 79.4327C72.4466 78.6847 72.8668 77.6701 72.8668 76.6123H64.8896C64.8896 77.6701 65.3099 78.6847 66.0579 79.4327C66.8059 80.1807 67.8204 80.6009 68.8782 80.6009Z" fill="#FFAC33"/>
</mask>
<g mask="url(#mask1_4620_60706)">
<path d="M68.8772 47.2676C62.467 47.2675 47.5098 52.9654 47.5098 57.9512C47.5098 57.9512 53.1126 77.1821 51.2886 77.1821L61.0859 77.0395C59.2619 77.0395 59.2619 75.0452 59.2619 75.0452C59.2619 70.0594 61.8413 71.199 61.8413 60.2303C61.8413 54.724 64.4471 51.541 67.8089 50.4727C67.8089 49.4044 67.9001 48.3359 68.8772 47.2676Z" fill="#F29307"/>
<path d="M70.8723 53.9292C72.5244 53.9292 73.8638 52.5899 73.8638 50.9377C73.8638 49.2856 72.5244 47.9463 70.8723 47.9463C69.2202 47.9463 67.8809 49.2856 67.8809 50.9377C67.8809 52.5899 69.2202 53.9292 70.8723 53.9292Z" fill="#FFAC33"/>
<path d="M71.1495 80.3467C72.2074 80.3467 65.3674 81.4575 65.3674 80.3891C63.2306 78.2524 63.7189 78.1994 63.7189 77.1416H66.9241C66.9241 78.1994 67.1964 78.5303 67.9444 79.2783C68.6924 80.0264 70.0917 80.3467 71.1495 80.3467Z" fill="#F29307"/>
</g>
</svg>
