<svg width="80" height="80" viewBox="0 0 62 62" fill="none" xmlns="http://www.w3.org/2000/svg">
<path d="M50 0H12C5.37258 0 0 5.37258 0 12V50C0 56.6274 5.37258 62 12 62H50C56.6274 62 62 56.6274 62 50V12C62 5.37258 56.6274 0 50 0Z" fill="#E9F4FF"/>
<path d="M22.9197 55.6096C21.9137 55.6615 20.9075 55.5114 19.9604 55.1684C19.0133 54.8254 18.1444 54.2963 17.4049 53.6123C16.6654 52.9283 16.0702 52.1032 15.6545 51.1857C15.2387 50.2681 15.0108 49.2767 14.9841 48.2697C14.9574 47.2627 15.1325 46.2606 15.499 45.3223C15.8656 44.384 16.4162 43.5286 17.1184 42.8064C17.8207 42.0842 18.6603 41.5098 19.5879 41.1171C20.5156 40.7243 21.5124 40.5212 22.5197 40.5196H26.1997V35.3896H29.7697V40.5196H39.7097V44.1796H29.7697V47.9996C29.793 49.8968 29.1011 51.7331 27.8318 53.1432C26.5625 54.5533 24.8088 55.4339 22.9197 55.6096ZM22.4097 44.1796C21.6364 44.1598 20.8747 44.3709 20.222 44.7861C19.5693 45.2012 19.0552 45.8016 18.7453 46.5104C18.4355 47.2192 18.3441 48.0043 18.4827 48.7654C18.6213 49.5264 18.9837 50.2289 19.5235 50.783C20.0633 51.337 20.7561 51.7176 21.5133 51.876C22.2705 52.0343 23.0577 51.9634 23.7743 51.6721C24.491 51.3809 25.1045 50.8825 25.5366 50.2408C25.9686 49.5992 26.1995 48.8432 26.1997 48.0696V44.1796H22.4097Z" fill="#00A79B"/>
<path d="M29.77 35.3896H28V52.9996C29.1583 51.6221 29.7923 49.8794 29.79 48.0797V44.1796H39.73V40.5196H29.77V35.3896Z" fill="#00C3B5"/>
<path d="M41 47.0005C45.88 47.0005 45.88 47.1705 45.88 42.1205C45.88 37.2305 45.88 37.2305 41 37.2305C39.7426 37.2874 38.5556 37.8269 37.686 38.7368C36.8164 39.6467 36.3311 40.8568 36.3311 42.1155C36.3311 43.3741 36.8164 44.5843 37.686 45.4942C38.5556 46.404 39.7426 46.9436 41 47.0005Z" fill="#00847A"/>
<path d="M43.2299 46.9997C44.1974 46.9997 45.1433 46.7127 45.9476 46.1749C46.752 45.6372 47.3788 44.8728 47.7486 43.9787C48.1184 43.0846 48.2146 42.1009 48.0251 41.1521C47.8357 40.2032 47.3689 39.3319 46.6841 38.6484C45.9992 37.965 45.1269 37.5 44.1777 37.3125C43.2285 37.1249 42.2449 37.2232 41.3516 37.5948C40.4582 37.9665 39.6952 38.5948 39.1591 39.4003C38.623 40.2057 38.3379 41.1522 38.3399 42.1197C38.3425 43.4149 38.8589 44.6561 39.7756 45.571C40.6924 46.4859 41.9347 46.9997 43.2299 46.9997Z" fill="#00A79B"/>
<path d="M43.2701 45.2498C43.9063 45.2419 44.526 45.0463 45.0514 44.6875C45.5769 44.3287 45.9847 43.8227 46.2236 43.233C46.4625 42.6433 46.522 41.9962 46.3945 41.3728C46.267 40.7494 45.9582 40.1776 45.5069 39.7291C45.0557 39.2806 44.4819 38.9753 43.8578 38.8516C43.2337 38.728 42.5869 38.7914 41.9987 39.0339C41.4105 39.2765 40.907 39.6874 40.5514 40.215C40.1959 40.7426 40.0041 41.3635 40.0001 41.9998C39.9974 42.429 40.0803 42.8545 40.2439 43.2513C40.4075 43.6482 40.6486 44.0084 40.9531 44.311C41.2575 44.6136 41.6192 44.8524 42.0171 45.0136C42.4149 45.1748 42.8409 45.2551 43.2701 45.2498Z" fill="#E7ECF4"/>
<path d="M27.9995 37.2198C25.2606 37.1829 22.6483 36.0607 20.7359 34.0996C18.8236 32.1385 17.7675 29.4987 17.7995 26.7598H21.3595C21.3249 27.6528 21.4708 28.5436 21.7886 29.3788C22.1064 30.214 22.5896 30.9765 23.2091 31.6206C23.8287 32.2647 24.5718 32.777 25.3941 33.127C26.2164 33.477 27.1009 33.6574 27.9945 33.6574C28.8882 33.6574 29.7727 33.477 30.595 33.127C31.4172 32.777 32.1604 32.2647 32.7799 31.6206C33.3995 30.9765 33.8826 30.214 34.2004 29.3788C34.5183 28.5436 34.6642 27.6528 34.6295 26.7598H38.1895C38.2216 29.497 37.1669 32.1353 35.2567 34.0961C33.3465 36.0569 30.7367 37.1802 27.9995 37.2198Z" fill="#00A79B"/>
<path d="M28 33.5598V37.2198C30.7389 37.1829 33.3513 36.0607 35.2636 34.0996C37.176 32.1385 38.232 29.4987 38.2 26.7598H34.62C34.6387 28.5379 33.953 30.2511 32.7126 31.5252C31.4722 32.7994 29.778 33.5308 28 33.5598Z" fill="#00C3B5"/>
<path d="M37.9398 26.9996C37.9351 27.2156 37.8868 27.4284 37.7976 27.6252C37.7084 27.8219 37.5803 27.9986 37.421 28.1446C37.2617 28.2905 37.0745 28.4027 36.8707 28.4743C36.6669 28.5459 36.4507 28.5755 36.2351 28.5613C36.0195 28.5471 35.8091 28.4894 35.6164 28.3917C35.4237 28.294 35.2529 28.1582 35.1141 27.9927C34.9753 27.8271 34.8715 27.6352 34.8089 27.4284C34.7463 27.2216 34.7262 27.0043 34.7498 26.7896L35.9198 12.3996C35.9633 11.917 35.8301 11.4351 35.545 11.0434C35.26 10.6516 34.8424 10.3766 34.3698 10.2696L33.7198 10.1296C33.4348 10.0553 33.1875 9.8779 33.0257 9.63177C32.8639 9.38565 32.7991 9.08826 32.8439 8.79714C32.8887 8.50602 33.0399 8.24185 33.2682 8.05574C33.4965 7.86963 33.7857 7.7748 34.0798 7.78959L35.9998 7.99959C36.7459 8.06305 37.4397 8.40879 37.9396 8.96629C38.4395 9.52379 38.7078 10.251 38.6898 10.9996L37.9398 26.9996Z" fill="#A9D4FF"/>
<path d="M21.1101 26.7998C21.1206 27.0112 21.0893 27.2227 21.0181 27.422C20.9469 27.6214 20.8372 27.8048 20.6951 27.9617C20.4082 28.2786 20.0071 28.4686 19.5801 28.4898C19.3686 28.5003 19.1572 28.4691 18.9579 28.3979C18.7585 28.3267 18.5751 28.2169 18.4182 28.0748C18.1013 27.7879 17.9113 27.3868 17.8901 26.9598L17.2301 11.1398C17.2148 10.3533 17.5001 9.59047 18.0278 9.007C18.5555 8.42353 19.2859 8.06332 20.0701 7.99982L22.0701 7.83982C22.3632 7.82807 22.6503 7.92498 22.8763 8.11194C23.1023 8.2989 23.2513 8.56274 23.2947 8.85283C23.338 9.14292 23.2728 9.43882 23.1114 9.68373C22.9499 9.92864 22.7038 10.1053 22.4201 10.1798L21.7701 10.3298C21.2975 10.43 20.8772 10.6979 20.5868 11.0839C20.2963 11.4699 20.1554 11.948 20.1901 12.4298L21.1101 26.7998Z" fill="#A9D4FF"/>
<path d="M33.0801 12.21C33.6734 12.21 34.2534 12.034 34.7468 11.7044C35.2401 11.3747 35.6247 10.9062 35.8517 10.358C36.0788 9.80983 36.1382 9.20663 36.0224 8.62469C35.9067 8.04275 35.621 7.5082 35.2014 7.08864C34.7818 6.66908 34.2473 6.38336 33.6653 6.26761C33.0834 6.15185 32.4802 6.21126 31.932 6.43832C31.3838 6.66539 30.9153 7.0499 30.5857 7.54325C30.256 8.0366 30.0801 8.61662 30.0801 9.20996C30.0801 10.0056 30.3961 10.7687 30.9588 11.3313C31.5214 11.8939 32.2844 12.21 33.0801 12.21Z" fill="#00847A"/>
<path d="M32.0001 12.2102C33.0001 12.2102 33.8801 10.8602 33.8801 9.2102C33.8801 7.5602 33.0001 6.2002 32.0001 6.2002C31.0001 6.2002 30.1201 7.5502 30.1201 9.2002C30.1201 10.8502 30.9201 12.2102 32.0001 12.2102Z" fill="#00A79B"/>
<path d="M23.3203 12.21C23.9137 12.21 24.4937 12.034 24.987 11.7044C25.4804 11.3747 25.8649 10.9062 26.092 10.358C26.319 9.80983 26.3784 9.20663 26.2627 8.62469C26.1469 8.04275 25.8612 7.5082 25.4416 7.08864C25.0221 6.66908 24.4875 6.38336 23.9056 6.26761C23.3236 6.15185 22.7204 6.21126 22.1723 6.43832C21.6241 6.66539 21.1555 7.0499 20.8259 7.54325C20.4963 8.0366 20.3203 8.61662 20.3203 9.20996C20.3203 10.0056 20.6364 10.7687 21.199 11.3313C21.7616 11.8939 22.5247 12.21 23.3203 12.21Z" fill="#00847A"/>
<path d="M24.4503 12.21C25.4503 12.21 26.3203 10.86 26.3203 9.20996C26.3203 7.55996 25.4803 6.20996 24.4503 6.20996C23.4203 6.20996 22.5703 7.55996 22.5703 9.20996C22.5703 10.86 23.4103 12.21 24.4503 12.21Z" fill="#00A79B"/>
</svg>
