<svg width="80" height="80" viewBox="0 0 62 62" fill="none" xmlns="http://www.w3.org/2000/svg">
<path d="M50 0H12C5.37258 0 0 5.37258 0 12V50C0 56.6274 5.37258 62 12 62H50C56.6274 62 62 56.6274 62 50V12C62 5.37258 56.6274 0 50 0Z" fill="#E9F4FF"/>
<path d="M58 31.9898C58 34.3768 57.0518 36.6659 55.364 38.3538C53.6761 40.0416 51.3869 40.9898 49 40.9898C46.6131 40.9898 44.3239 40.0416 42.636 38.3538C40.9482 36.6659 40 34.3768 40 31.9898C40 28.1098 45 21.6398 47.57 18.6198C47.7445 18.4099 47.9631 18.2411 48.2103 18.1252C48.4574 18.0093 48.727 17.9492 49 17.9492C49.273 17.9492 49.5426 18.0093 49.7897 18.1252C50.0369 18.2411 50.2555 18.4099 50.43 18.6198C53 21.6598 58 28.1098 58 31.9898Z" fill="#FF9878"/>
<path d="M43 30C43 32.3869 43.5 34.5 45 37C45.8123 38.3538 51.3869 40.9898 49 40.9898C46.6131 40.9898 44.3239 40.0416 42.636 38.3538C40.9482 36.6659 40 34.3768 40 31.9898C40 28.1098 45 21.6398 47.57 18.6198C47.7445 18.4099 47.9631 18.2411 48.2103 18.1252C48.4574 18.0093 48.727 17.9492 49 17.9492C49.273 17.9492 48.5 18.5 48.5 18.5C48.2103 18.7154 47 21 46.5 21.5C46.1047 21.8953 43 26.12 43 30Z" fill="#EF724B"/>
<path d="M37.9102 27.4498C39.3202 22.8898 39.1602 14.3598 39.1602 14.3598C39.1962 12.7914 38.7607 11.2482 37.9102 9.92982C35.1502 5.58982 27.9102 1.70982 23.2202 4.43982L20.4402 5.84983C20.3435 5.92979 20.2317 5.98957 20.1115 6.02564C19.9912 6.06171 19.865 6.07333 19.7402 6.05983L18.3602 6.13983C15.4102 6.32983 13.6602 11.5198 13.7802 14.1398C13.7802 14.1398 13.7802 23.6598 14.8602 27.4598C15.9402 31.2598 21.3202 35.8098 21.3202 35.8098H31.1902C31.1902 35.8098 36.5002 31.9898 37.9102 27.4498Z" fill="#4B4B4B"/>
<path d="M35.3402 26.9898C36.4502 26.9898 37.3402 25.7798 37.3402 24.2898C37.3402 22.7998 36.4402 21.5898 35.3402 21.5898H31.9102V26.9898H35.3402Z" fill="#F9D2AA"/>
<path d="M17.6701 26.9898C16.5201 26.9898 15.5801 25.7798 15.5801 24.2898C15.5801 22.7998 16.5201 21.5898 17.6701 21.5898H21.0001V26.9898H17.6701Z" fill="#F9BA8A"/>
<path d="M31.9996 39.2096C31.9096 39.2096 31.6596 39.0296 31.6596 38.9296V27.8096H21.0496V38.9296C21.0496 39.0296 21.0496 39.1796 20.9396 39.2096L18.0996 43.9896L26.9996 51.0496L33.2996 41.4496L31.9996 39.2096Z" fill="#F9D2AA"/>
<path d="M31.6096 30.6596V27.8096H21.0496V38.9296C21.0496 39.0296 21.0496 39.1796 20.9396 39.2096L18.0996 43.9896L22.3896 41.8796L23.5996 40.7496C23.6563 40.6811 23.7066 40.6074 23.7496 40.5296L24.1996 39.6296C24.3689 39.2654 24.6307 38.952 24.9587 38.7204C25.2868 38.4888 25.6698 38.3472 26.0696 38.3096H26.2196C27.2868 38.3074 28.3456 38.1213 29.3496 37.7596H29.4396C30.1996 37.4796 30.9296 36.4696 31.6096 36.0596V32.9896H24.1096V30.6596H31.6096Z" fill="#E5A677"/>
<path d="M35.4898 17.7L28.3498 17.15L23.4098 15.15L20.4098 13.46L18.7498 14.99L18.2998 20.99L18.7098 26.99L20.3498 31.44L22.8398 35.04L28.2598 35.94L29.1898 35.49C32.1898 33.81 33.7198 30.49 34.6298 27.37L36.4398 19.24L35.4898 17.7Z" fill="#F9D2AA"/>
<path d="M35.9998 16.9902C35.6316 16.588 35.1835 16.2673 34.6841 16.0486C34.1846 15.8299 33.645 15.718 33.0998 15.7202H26.9998C25.5337 15.7334 24.1126 15.2147 22.9998 14.2602L21.1598 12.6902L20.0298 11.6902C19.9825 11.6494 19.9222 11.627 19.8598 11.627C19.7973 11.627 19.737 11.6494 19.6898 11.6902L18.9998 12.2902C18.2276 12.9203 17.604 13.713 17.1736 14.6119C16.7431 15.5108 16.5165 16.4936 16.5098 17.4902L18.2998 26.9902C19.6598 31.0502 20.2998 34.5302 24.6498 35.9902C26.6498 36.4902 27.8298 36.4402 29.1898 35.5402C29.8691 35.1938 30.4819 34.73 30.9998 34.1702C29.6398 34.3602 28.7398 35.6802 27.3998 35.3402C25.3277 34.6878 23.5134 33.3998 22.214 31.6589C20.9146 29.918 20.1959 27.8123 20.1598 25.6402V16.2602C20.1644 16.0654 20.2259 15.8761 20.3367 15.7157C20.4475 15.5553 20.6028 15.4308 20.7834 15.3575C20.964 15.2842 21.1621 15.2653 21.3534 15.3031C21.5446 15.3409 21.7206 15.4337 21.8598 15.5702L23.1598 16.7002C24.3044 17.6721 25.7582 18.204 27.2598 18.2002H33.5598C34.095 18.1958 34.6257 18.2988 35.1204 18.5032C35.6151 18.7077 36.0638 19.0093 36.4398 19.3902V18.1902C36.4421 17.7503 36.2859 17.3243 35.9998 16.9902Z" fill="#F9BA8A"/>
<path d="M30.8102 45.29H21.7002V49.09H30.8102V45.29Z" fill="#00468C"/>
<path d="M46.1504 53.67V55.67C46.1504 55.9352 46.045 56.1895 45.8575 56.3771C45.67 56.5646 45.4156 56.67 45.1504 56.67H7.4904C7.22519 56.67 6.97083 56.5646 6.7833 56.3771C6.59576 56.1895 6.4904 55.9352 6.4904 55.67V53.67C6.47754 51.1663 7.20556 48.7148 8.58283 46.624C9.96009 44.5332 11.9251 42.8965 14.2304 41.92L20.9204 39.21L25.8504 48.32C26.2304 49.08 26.2304 49.08 26.6104 48.32L32.0004 39.21L33.5104 39.97L38.4604 41.97C40.7485 42.9508 42.6976 44.5831 44.065 46.6635C45.4323 48.7438 46.1576 51.1805 46.1504 53.67Z" fill="#0069D2"/>
<path d="M12.3799 55.56C12.3799 50.4 15.4399 44.68 20.1199 42.74L22.3899 41.83L20.9399 39.21L14.2499 41.92C11.9446 42.8965 9.97962 44.5332 8.60236 46.624C7.22509 48.7148 6.49708 51.1663 6.50993 53.67V55.67C6.50993 55.9352 6.61529 56.1895 6.80283 56.3771C6.99036 56.5646 7.24472 56.67 7.50993 56.67H12.3999L12.3799 55.56Z" fill="#00468C"/>
<path d="M37.6096 49.5502H35.3396V47.2402H33.6596V49.5502H31.3896V51.2702H33.6596V53.5802H35.3396V51.2702H37.6096V49.5502Z" fill="#E9F4FF"/>
<path d="M35.34 47.2402H34.5V53.5802H35.34V51.2702H37.61V49.5502H35.34V47.2402Z" fill="#E9F4FF"/>
<path d="M19.7998 39.59L20.9398 39.21L25.8698 48.32C25.8698 48.32 26.0398 48.7 26.2498 48.7C26.4598 48.7 26.6298 48.32 26.6298 48.32L31.9998 39.21L33.1298 39.59L27.8198 49.08C27.7098 49.08 25.5398 52.08 25.5398 52.08C25.4362 52.165 25.3046 52.2085 25.1707 52.2019C25.0368 52.1953 24.9102 52.1392 24.8154 52.0444C24.7206 51.9496 24.6644 51.8229 24.6579 51.689C24.6513 51.5551 24.6948 51.4236 24.7798 51.32L25.5398 50.18L19.7998 39.59Z" fill="white"/>
</svg>
