<?xml version="1.0" encoding="UTF-8"?>
<svg version="1.1" xmlns="http://www.w3.org/2000/svg" width="1024" height="1024">
<path d="M0 0 C337.92 0 675.84 0 1024 0 C1024 337.92 1024 675.84 1024 1024 C686.08 1024 348.16 1024 0 1024 C0 686.08 0 348.16 0 0 Z " fill="#FAFAFB" transform="translate(0,0)"/>
<path d="M0 0 C1.90908394 -0.01029488 1.90908394 -0.01029488 3.85673523 -0.02079773 C7.32377943 -0.03863175 10.79056921 -0.0375794 14.25764537 -0.03185534 C17.16252135 -0.02874935 20.06734944 -0.03487151 22.97221857 -0.04089409 C29.83015296 -0.05490558 36.68796268 -0.05340621 43.54589844 -0.04199219 C50.59821299 -0.03051334 57.65014714 -0.04459016 64.70241159 -0.07138866 C70.77915925 -0.09360741 76.85578803 -0.10016923 82.93257338 -0.09431225 C86.55237514 -0.09095627 90.17193314 -0.09326642 93.79170036 -0.11056328 C97.83142745 -0.12902728 101.8704232 -0.11478222 105.91015625 -0.09765625 C107.09436157 -0.10732422 108.27856689 -0.11699219 109.49865723 -0.12695312 C117.67436579 -0.05461156 124.90339311 1.14525009 131.45727539 6.33374023 C131.97290039 6.97569336 132.48852539 7.61764648 133.01977539 8.27905273 C133.82415039 9.23424805 133.82415039 9.23424805 134.64477539 10.20874023 C137.69717513 15.08217392 138.27667698 19.77895234 138.32617188 25.4440918 C138.33449539 26.12140854 138.34281891 26.79872528 138.35139465 27.49656677 C138.37535744 29.72099677 138.38425057 31.94513261 138.39086914 34.16967773 C138.39984731 35.72898438 138.40896936 37.28829021 138.41822815 38.84759521 C138.43468445 42.11236659 138.44241186 45.37703584 138.4453125 48.6418457 C138.4506868 52.8022673 138.48834075 56.96171362 138.53405666 61.1218605 C138.5639689 64.34260461 138.57103913 67.56311809 138.57203865 70.78398895 C138.57621447 72.31644905 138.58854149 73.84891153 138.6095562 75.38123322 C138.72121604 84.22844051 138.50828029 92.04271676 133.01977539 99.40405273 C127.72985469 104.4767633 122.48548566 107.40405273 115.01977539 107.40405273 C115.10779964 109.27987987 115.21598749 111.15476545 115.33227539 113.02905273 C115.41928711 114.59526367 115.41928711 114.59526367 115.50805664 116.19311523 C116.53385881 122.62982809 119.3452729 126.13205885 124.33227539 130.15405273 C124.86151611 130.58250488 125.39075684 131.01095703 125.93603516 131.45239258 C130.22396937 134.87947964 134.67464454 138.07077229 139.16235352 141.22900391 C144.79598492 145.20626833 150.32593002 149.31517699 155.83227539 153.46655273 C156.70360107 154.1151123 157.57492676 154.76367188 158.47265625 155.43188477 C175.66862353 168.46175971 187.36667503 184.82113885 191.01977539 206.40405273 C191.27448034 209.80863223 191.27401066 213.19267322 191.24682617 216.60546875 C191.24711823 217.58214005 191.24741028 218.55881134 191.24771118 219.56507874 C191.24632841 222.76279888 191.23081708 225.96028002 191.21508789 229.15795898 C191.21135402 231.38711927 191.20850881 233.61628121 191.20651245 235.84544373 C191.1989055 241.68975418 191.17928237 247.53396396 191.15710449 253.37823486 C191.1365826 259.35101968 191.1274972 265.32382089 191.11743164 271.29663086 C191.0960336 282.99914885 191.06193333 294.7015924 191.01977539 306.40405273 C191.82366699 306.12980469 192.62755859 305.85555664 193.45581055 305.57299805 C195.05368408 305.03304199 195.05368408 305.03304199 196.68383789 304.48217773 C198.26092529 303.94705566 198.26092529 303.94705566 199.86987305 303.40112305 C208.21900439 300.75828841 221.87430821 297.33131915 230.01977539 301.40405273 C230.01089294 300.42765839 230.0020105 299.45126404 229.99285889 298.44528198 C229.91170339 289.23491028 229.8517766 280.02461132 229.8125267 270.81396294 C229.79166934 266.07886709 229.7633856 261.34406034 229.71801758 256.60913086 C229.67449366 252.03795665 229.65062435 247.46706019 229.64026642 242.89569473 C229.63288678 241.15338902 229.61847592 239.41109817 229.59685516 237.66891098 C229.56773349 235.22466164 229.56382294 232.78155367 229.56567383 230.3371582 C229.55129272 229.62002151 229.53691162 228.90288483 229.52209473 228.16401672 C229.5634147 223.10697354 230.70512795 220.20610776 234.01977539 216.40405273 C239.2508999 212.65115833 244.55610286 212.97837153 250.74414062 213.01586914 C252.34791313 213.0079837 252.34791313 213.0079837 253.98408508 212.99993896 C257.51566226 212.98674739 261.04678742 212.99548007 264.57836914 213.00561523 C267.04492784 213.00359293 269.51148595 213.00068018 271.9780426 212.99691772 C277.15208621 212.99249437 282.32597446 212.99892104 287.5 213.01293945 C294.09669996 213.02995039 300.69303152 213.02024147 307.28971767 213.00222206 C312.38846037 212.99131555 317.48711766 212.9948633 322.58586311 213.00260544 C325.01566678 213.00459272 327.44547845 213.00220052 329.87527275 212.99516678 C361.46868451 212.92383604 387.18714578 219.81395485 410.01977539 242.40405273 C410.67333008 242.99702148 411.32688477 243.58999023 412.00024414 244.20092773 C426.38639941 257.5007143 436.92576596 279.79449689 438.21264648 299.33227539 C438.98574755 330.38282564 433.21288138 355.38993006 411.36157227 378.45703125 C405.22721174 384.74982051 398.77492184 390.16115443 391.01977539 394.40405273 C390.35977539 394.40405273 389.69977539 394.40405273 389.01977539 394.40405273 C390.16446289 395.48686523 390.16446289 395.48686523 391.33227539 396.59155273 C395.30653983 400.75066668 397.21617568 403.55843025 397.70727539 409.34155273 C397.50973789 414.43730524 396.05629306 417.665242 393.47290039 422.03295898 C393.11340805 422.64312866 392.75391571 423.25329834 392.38352966 423.88195801 C388.82467096 429.86096876 384.98966394 435.64818279 381.08227539 441.40405273 C379.50796505 443.74078547 377.93768335 446.08021632 376.36743164 448.41967773 C375.74198959 449.35024994 375.74198959 449.35024994 375.10391235 450.29962158 C368.80952968 459.67745036 362.63016396 469.13166876 356.43167114 478.57299805 C350.0818822 488.24393343 343.70943845 497.89844054 337.28051758 507.51696777 C335.04509359 510.86296114 332.81399501 514.21183801 330.58227539 517.56030273 C329.65781503 518.94703402 328.73333581 520.33375274 327.80883789 521.72045898 C327.34896484 522.41026855 326.8890918 523.10007812 326.4152832 523.81079102 C325.02042643 525.90307617 323.62556966 527.99536133 322.23071289 530.08764648 C321.77180664 530.77608643 321.31290039 531.46452637 320.84008789 532.17382812 C319.92372212 533.54821499 319.00705905 534.92240368 318.09008789 536.29638672 C315.80172246 539.72605797 313.51892298 543.15921349 311.24633789 546.59936523 C310.79846924 547.27567993 310.35060059 547.95199463 309.88916016 548.64880371 C309.04655624 549.92152442 308.20575949 551.19544431 307.3671875 552.4708252 C300.31920529 563.10233796 300.31920529 563.10233796 294.01977539 565.40405273 C281.7383112 567.24627236 269.84555599 555.321047 260.14477539 548.71655273 C258.61882449 547.68065457 257.09269863 546.64501411 255.56640625 545.60961914 C251.74781477 543.01837549 247.93118673 540.42425835 244.11529541 537.82904053 C240.0169123 535.04207317 235.91644824 532.25817206 231.81591797 529.47436523 C229.64745332 528.00219958 227.47932558 526.52953754 225.31152344 525.05639648 C217.922233 520.0375494 210.51692782 515.04280925 203.10571289 510.05639648 C201.16487077 508.74992684 199.22403421 507.44344893 197.28320312 506.13696289 C193.47434895 503.57315446 189.66368858 501.01206012 185.85205078 498.45239258 C160.37200848 481.32150949 160.37200848 481.32150949 152.76977539 473.52905273 C152.17986816 472.93189453 151.58996094 472.33473633 150.98217773 471.71948242 C139.01977539 459.376954 139.01977539 459.376954 139.01977539 454.40405273 C138.0877039 454.40773991 137.1556324 454.41142708 136.19531631 454.41522598 C113.48385252 454.50414521 90.77241138 454.5698131 68.06081009 454.61130142 C57.077505 454.63189973 46.09431512 454.65996805 35.11108398 454.70581055 C25.53467788 454.74576199 15.95835525 454.77150539 6.38186812 454.78040671 C1.31427025 454.78560739 -3.75308891 454.79777379 -8.82061005 454.82697296 C-13.59765104 454.85427343 -18.37435667 454.86246833 -23.15146828 454.85648346 C-24.89768361 454.85757718 -26.64391103 454.86544345 -28.39005852 454.88087463 C-45.13723495 455.02152151 -58.63214611 451.57724427 -71.16772461 439.77905273 C-80.57238921 429.94555908 -86.47471848 418.23089233 -86.36790466 404.56417847 C-86.3732902 403.72177679 -86.37867574 402.87937512 -86.38422447 402.01144612 C-86.39843048 399.21361433 -86.39141853 396.41626062 -86.38427734 393.6184082 C-86.38998496 391.60203168 -86.39695073 389.58565839 -86.40507507 387.56929016 C-86.42298353 382.10819953 -86.42184177 376.64726981 -86.41613269 371.18615866 C-86.41303584 366.61659062 -86.4191392 362.04705326 -86.42517143 357.47748959 C-86.43920905 346.68801059 -86.43766323 335.89861077 -86.42626953 325.10913086 C-86.414804 314.00686253 -86.4288395 302.90483621 -86.45566601 291.80259979 C-86.47788179 282.24810559 -86.48444672 272.69368703 -86.47858959 263.13916886 C-86.47523106 257.44287773 -86.47756076 251.74674149 -86.49484062 246.05047226 C-86.51040023 240.68723387 -86.50625478 235.32435113 -86.48753548 229.96112633 C-86.48387366 228.00332516 -86.48688694 226.04549712 -86.49742126 224.08772087 C-86.61838875 199.7276923 -79.88351025 180.67930058 -62.63256836 162.99780273 C-53.36342429 154.17277531 -42.71010188 146.96589847 -32.34448242 139.50756836 C-29.76031939 137.64574635 -27.18274244 135.77505809 -24.60522461 133.90405273 C-23.8150293 133.34105469 -23.02483398 132.77805664 -22.21069336 132.19799805 C-14.16591863 126.48920969 -14.16591863 126.48920969 -10.27319336 117.75561523 C-10.23838867 116.52584961 -10.20358398 115.29608398 -10.16772461 114.02905273 C-10.09618164 112.16120117 -10.09618164 112.16120117 -10.02319336 110.25561523 C-10.00901367 109.31459961 -9.99483398 108.37358398 -9.98022461 107.40405273 C-10.56030273 107.37827148 -11.14038086 107.35249023 -11.73803711 107.32592773 C-19.08698403 106.79234083 -23.27147027 104.45105452 -28.23022461 98.96655273 C-32.43626182 94.09342898 -33.23230849 89.62409192 -33.27075195 83.26220703 C-33.27746918 82.56231659 -33.2841864 81.86242615 -33.29110718 81.1413269 C-33.31004104 78.83690204 -33.31400916 76.53276921 -33.31616211 74.22827148 C-33.32259387 72.61790347 -33.32932251 71.00753661 -33.33633423 69.39717102 C-33.3482959 66.02386773 -33.35201626 62.65066675 -33.35083008 59.27734375 C-33.35062709 54.96998898 -33.37791259 50.66329549 -33.4123745 46.35609722 C-33.43469272 43.02992279 -33.4386661 39.70390618 -33.43761063 36.37766457 C-33.43995982 34.79054298 -33.44874473 33.20341659 -33.46427536 31.61636925 C-33.54698094 22.29088674 -33.51547692 15.02070341 -27.37475586 7.41577148 C-19.08424666 0.47630823 -10.50421922 -0.03986269 0 0 Z " fill="#010101" transform="translate(200.980224609375,213.595947265625)"/>
<path d="M0 0 C1.01707031 0.17144531 2.03414062 0.34289063 3.08203125 0.51953125 C26.67141664 5.1187196 46.09076138 19.00834648 65 33 C66.56599955 34.15159492 68.1324073 35.30263495 69.69921875 36.453125 C75.27206241 40.54889177 80.83368657 44.65979362 86.39550781 48.77050781 C97.87773547 57.25452017 109.41228474 65.66070251 121 74 C170.99270073 109.97810219 170.99270073 109.97810219 174 119 C174.2734375 121.34765625 174.2734375 121.34765625 174.375 124.0625 C174.42398437 124.94035156 174.47296875 125.81820312 174.5234375 126.72265625 C173.16515918 135.22710037 167.61601379 142.30850605 162.5 149 C161.2491566 150.66603378 159.9991765 152.33271602 158.75 154 C158.12222656 154.83402344 157.49445313 155.66804687 156.84765625 156.52734375 C154.01621811 160.31656223 151.2575714 164.15687073 148.5 168 C144.02479448 174.22189346 139.49748912 180.40251469 134.9375 186.5625 C130.04551793 193.17473951 125.2573532 199.84935955 120.53881836 206.58618164 C116.19473022 212.76934132 111.71004951 218.84320831 107.2109375 224.9140625 C103.40427435 230.06228095 99.67321904 235.25587539 96 240.5 C91.21815231 247.32142285 86.33388609 254.06018392 81.36254883 260.74487305 C78.29668437 264.8680195 75.27281107 269.0123186 72.31640625 273.21484375 C71.70845215 274.06836426 71.10049805 274.92188477 70.47412109 275.80126953 C69.32265148 277.41974677 68.18269166 279.04650554 67.05712891 280.68310547 C62.53912754 286.98470895 56.86522436 292.48610459 49 294 C38.69247202 295.20221646 31.11589904 290.47196416 23.0625 284.5625 C22.33869141 284.04171875 21.61488281 283.5209375 20.86914062 282.984375 C18.57383794 281.33049396 16.28674362 279.6656887 14 278 C12.49925386 276.91459549 10.99795493 275.82995487 9.49609375 274.74609375 C7.24053553 273.11810091 4.98546686 271.48947298 2.73266602 269.85766602 C-2.31881574 266.2007484 -7.39876867 262.58712672 -12.5 259 C-18.34005245 254.89173653 -24.1514133 250.74644939 -29.9375 246.5625 C-30.68459229 246.02238281 -31.43168457 245.48226562 -32.20141602 244.92578125 C-35.96145735 242.20504497 -39.71716453 239.4784766 -43.46875 236.74609375 C-51.17174812 231.14605621 -58.92832086 225.65506876 -66.8125 220.3125 C-100.49629443 197.40996853 -124.19640377 171.12872037 -132.56225586 130.33764648 C-136.32045516 110.26806573 -133.82079487 90.09111535 -127 71 C-126.63003906 69.94941406 -126.26007813 68.89882812 -125.87890625 67.81640625 C-115.018832 39.52008823 -91.10772372 18.3084062 -64 6 C-43.44216994 -2.6588965 -21.7816441 -4.12511233 0 0 Z " fill="#37E7A1" transform="translate(493,50)"/>
<path d="M0 0 C0.67877197 -0.02239746 1.35754395 -0.04479492 2.05688477 -0.06787109 C14.10456303 -0.01423175 24.238335 6.05475802 34.25 12.125 C35.51826002 12.88241335 36.78707128 13.63890436 38.05639648 14.39453125 C41.32536202 16.34516341 44.58516048 18.31052724 47.8414917 20.28216553 C49.68239944 21.39657733 51.52477073 22.50852387 53.36767578 23.61962891 C60.33498523 27.82221336 67.28608619 32.05099035 74.23095703 36.29052734 C79.63546194 39.58916561 85.04726661 42.87578458 90.45932007 46.16201782 C92.23566524 47.24129048 94.01110202 48.32204421 95.78637695 49.40307617 C100.96688694 52.55501863 106.15564809 55.68909141 111.390625 58.75 C143.73065321 77.69417742 170.30495421 101.97707165 180.22998047 139.37109375 C187.66203486 168.90391458 183.55186082 198.84373406 168.59375 225.4140625 C152.97954517 251.01871194 129.20642249 270.37000916 100.24609375 278.59375 C65.58172593 286.95967564 34.51265902 280.42799666 4.26391602 261.94726562 C-0.26177548 259.14367323 -4.75735063 256.29363799 -9.25 253.4375 C-11.0922774 252.27316765 -12.93472562 251.10910555 -14.77734375 249.9453125 C-26.09790438 242.78028688 -37.35113626 235.51303346 -48.56835938 228.1875 C-51.38220743 226.35122334 -54.19883247 224.51925626 -57.015625 222.6875 C-61.86600771 219.53046672 -66.70764262 216.360315 -71.54348755 213.18107605 C-74.95618329 210.93863266 -78.37413452 208.70459021 -81.79785156 206.47900391 C-85.85948924 203.83820491 -89.91186229 201.18363625 -93.95947266 198.52139282 C-95.55216081 197.4770464 -97.14781015 196.4372001 -98.74658203 195.40219116 C-118.77106074 182.42826987 -118.77106074 182.42826987 -122.75 172.8125 C-124.45979993 161.27135049 -119.86703046 152.88349989 -113.9375 143.25 C-113.421875 142.40050781 -112.90625 141.55101562 -112.375 140.67578125 C-107.69017487 133.01981999 -102.77001552 125.52115692 -97.83227539 118.02685547 C-93.15916183 110.90894736 -88.72317512 103.67731258 -84.38012695 96.35449219 C-80.96532849 90.602646 -77.42017084 84.96770858 -73.7734375 79.359375 C-70.47222515 74.25923325 -67.27538983 69.09352214 -64.0625 63.9375 C-31.24143969 11.34033562 -31.24143969 11.34033562 -16.25 3.4375 C-15.64929688 3.09460938 -15.04859375 2.75171875 -14.4296875 2.3984375 C-9.83172315 0.19223936 -5.0250487 0.10080005 0 0 Z " fill="#6BB8FE" transform="translate(725.25,187.5625)"/>
<path d="M0 0 C2.75610929 -0.00089581 5.51220611 -0.0065853 8.26831055 -0.01159668 C14.01716947 -0.01882264 19.76582116 -0.0094199 25.51464844 0.00976562 C32.10974715 0.03152475 38.70435077 0.02446974 45.29943752 0.00246 C51.01727425 -0.0158399 56.73496415 -0.018182 62.45282078 -0.00778532 C65.84362929 -0.00162943 69.23402502 -0.0021212 72.62484741 -0.01393127 C106.01331499 -0.10473678 133.28516475 7.29368753 158 30.71875 C176.24949749 49.63234856 185.0077771 73.90622994 184.78759766 99.98022461 C183.94749895 127.71972702 171.41219215 151.61281207 151.58203125 170.63671875 C127.96314696 192.25581846 97.77098892 194.85457583 67.3515625 194.796875 C64.83157311 194.79822509 62.31158397 194.80016848 59.79159546 194.80267334 C54.52836091 194.80560948 49.26517755 194.80157176 44.00195312 194.79199219 C37.96142526 194.78112314 31.92103263 194.78463062 25.88050807 194.795645 C20.0157658 194.80590127 14.1510739 194.80470528 8.28632736 194.79888153 C5.81548417 194.79755848 3.34463746 194.79914494 0.87379837 194.80384064 C-31.49553055 194.85186302 -58.70053475 190.37493717 -83.6875 168.53125 C-84.45707031 167.86351562 -85.22664063 167.19578125 -86.01953125 166.5078125 C-103.04967842 150.58613645 -113.10745353 126.66775649 -113.9609375 103.609375 C-114.57373552 74.59721869 -106.93361883 51.39196726 -86.9921875 29.90625 C-62.63193425 4.80280258 -33.5771513 -0.11694759 0 0 Z " fill="#010101" transform="translate(241.6875,720.46875)"/>
<path d="M0 0 C20.30070671 18.38723804 35.92140148 43.37168214 37.85742188 71.36791992 C37.95510245 74.44510708 37.98157565 77.51117459 37.96484375 80.58984375 C37.9592041 81.68554688 37.95356445 82.78125 37.94775391 83.91015625 C37.54400149 111.0615066 27.28119167 135.74625826 8.65234375 155.40234375 C8.06130859 156.02923096 7.47027344 156.65611816 6.86132812 157.30200195 C2.03068293 162.28826121 -3.12679423 166.4945974 -8.72265625 170.58984375 C-9.5933374 171.23493896 -10.46401855 171.88003418 -11.36108398 172.54467773 C-18.48363974 177.8079966 -25.66425259 182.99124789 -32.85546875 188.16015625 C-37.52309893 191.52044144 -42.15733866 194.92500999 -46.78515625 198.33984375 C-47.57140381 198.91984131 -48.35765137 199.49983887 -49.16772461 200.09741211 C-53.17201081 203.05321998 -57.17291181 206.0135582 -61.171875 208.9765625 C-68.99629021 214.76793065 -76.84535752 220.51980761 -84.78515625 226.15234375 C-85.48914551 226.6539502 -86.19313477 227.15555664 -86.91845703 227.67236328 C-87.90241455 228.36628174 -87.90241455 228.36628174 -88.90625 229.07421875 C-89.47657959 229.47737305 -90.04690918 229.88052734 -90.63452148 230.29589844 C-95.57186974 233.48473445 -99.523271 234.18776873 -105.34765625 233.40234375 C-114.04074134 229.32191606 -119.71993989 220.04908141 -125.07983398 212.39208984 C-128.96347575 206.86717723 -133.04751896 201.50821203 -137.16015625 196.15234375 C-142.79455452 188.8042484 -148.30360418 181.38471856 -153.69677734 173.8581543 C-157.64773025 168.35019068 -161.68453227 162.91389825 -165.76538086 157.50170898 C-169.6001891 152.41178158 -173.38733241 147.28835077 -177.16015625 142.15234375 C-182.71867997 134.58595302 -188.34269962 127.0711553 -193.99414062 119.57397461 C-198.22934187 113.93952459 -202.37224121 108.24883851 -206.37988281 102.44995117 C-208.41332094 99.43808859 -208.41332094 99.43808859 -211.34765625 97.40234375 C-211.61537842 98.27133301 -211.88310059 99.14032227 -212.15893555 100.03564453 C-213.3203673 103.3250559 -214.70840303 106.20466288 -216.3671875 109.26953125 C-217.27235107 110.95030762 -217.27235107 110.95030762 -218.19580078 112.66503906 C-218.8504819 113.8691972 -219.50526972 115.07329732 -220.16015625 116.27734375 C-220.838792 117.53330553 -221.51700886 118.78949372 -222.19482422 120.04589844 C-223.91502272 123.23183542 -225.64071192 126.41476007 -227.36810303 129.59680176 C-228.83954527 132.3090084 -230.30638679 135.02369729 -231.7734375 137.73828125 C-233.90134833 141.673838 -236.03311748 145.60726654 -238.16796875 149.5390625 C-240.31599166 153.49605116 -242.45597483 157.45723626 -244.58984375 161.421875 C-247.823492 167.42576908 -251.07600571 173.41907226 -254.34765625 179.40234375 C-254.92644531 180.46098633 -255.50523437 181.51962891 -256.1015625 182.61035156 C-257.83966518 185.77618145 -259.5912733 188.93412542 -261.34765625 192.08984375 C-262.13946289 193.53339233 -262.13946289 193.53339233 -262.94726562 195.00610352 C-265.62463001 199.78105091 -268.03971249 203.96024701 -272.34765625 207.40234375 C-276.3018655 208.02999601 -278.69325111 208.37216745 -282.16015625 206.33984375 C-284.945096 204.09046934 -287.06873914 202.20545655 -287.62768555 198.59204102 C-287.96662082 191.64813363 -285.64135369 187.21506942 -282.16015625 181.33984375 C-281.04988165 179.38853242 -279.94053869 177.43669077 -278.83203125 175.484375 C-278.25517578 174.48229004 -277.67832031 173.48020508 -277.08398438 172.44775391 C-274.27449957 167.52009454 -271.59693477 162.52262528 -268.91015625 157.52734375 C-267.81953248 155.51143622 -266.72838366 153.49581267 -265.63671875 151.48046875 C-264.54032313 149.45444951 -263.44396902 147.42840782 -262.34765625 145.40234375 C-250.16746352 122.89248015 -250.16746352 122.89248015 -244.82788086 113.11474609 C-243.84654003 111.31651145 -242.86686529 109.51736651 -241.88891602 107.71728516 C-239.21887934 102.80619032 -236.51721728 97.91549263 -233.77734375 93.04296875 C-233.184375 91.97691406 -232.59140625 90.91085937 -231.98046875 89.8125 C-230.84287871 87.7673659 -229.69507953 85.72786325 -228.53515625 83.6953125 C-226.02273859 79.15171141 -224.12563203 75.22403923 -223.29296875 70.07421875 C-222.25538946 63.75100001 -218.83839467 60.39676249 -213.80859375 56.68359375 C-212.45181137 55.74892144 -211.08950683 54.82222976 -209.72265625 53.90234375 C-208.19280693 52.84679422 -206.66420628 51.78943315 -205.13671875 50.73046875 C-204.3468457 50.18455078 -203.55697266 49.63863281 -202.74316406 49.07617188 C-198.81482844 46.33130141 -194.95316632 43.49825003 -191.09765625 40.65234375 C-189.91985596 39.78319336 -189.91985596 39.78319336 -188.71826172 38.89648438 C-181.82542685 33.78985575 -175.00822368 28.58586916 -168.19555664 23.37304688 C-161.57435234 18.31456187 -154.89660409 13.33927871 -148.16894531 8.42333984 C-144.45484523 5.70678995 -140.76560357 2.96918205 -137.1328125 0.14453125 C-96.74130013 -31.18226724 -40.08542356 -34.43461495 0 0 Z " fill="#ECF4FA" transform="translate(854.34765625,551.59765625)"/>
<path d="M0 0 C26.73 0 53.46 0 81 0 C81.33 5.28 81.66 10.56 82 16 C87.23994826 36.5231307 108.56446458 47.87427403 124.78613281 59.515625 C140.38935822 70.72503749 153.38085762 82.08698936 157 102 C157.31744861 105.58436292 157.38451782 109.15837485 157.43334961 112.75537109 C157.45452347 113.80361557 157.47569733 114.85186005 157.49751282 115.93186951 C157.70170309 126.82794692 157.78807827 137.72642281 157.86499023 148.62402344 C157.90514191 153.7889298 157.98184082 158.9513246 158.09057617 164.11523438 C158.22200668 170.36880207 158.28930932 176.62001691 158.3112812 182.874897 C158.33020275 185.2505062 158.37136744 187.62605046 158.43562126 190.00086594 C158.93719893 209.56121715 158.93719893 209.56121715 154.19949341 214.55401611 C151.07609355 217.19203159 147.56753722 219.01914429 144 221 C126.37342807 237.36476492 113.99373586 262.50277595 112.87768555 286.64599609 C112.79308355 289.76476833 112.76508997 292.88014798 112.75 296 C112.729375 297.03511719 112.70875 298.07023437 112.6875 299.13671875 C112.65748398 305.23747442 113.25119345 310.95387636 114.52050781 316.91796875 C114.73291611 317.9458551 114.73291611 317.9458551 114.94961548 318.99450684 C115.29526004 320.66393914 115.64699186 322.33210923 116 324 C93.99023079 324.09351258 71.98049443 324.16401317 49.97056675 324.20724869 C39.75057388 324.22785882 29.53070457 324.25594983 19.31079102 324.30175781 C10.4013261 324.34167297 1.49195068 324.36744407 -7.41760117 324.37635398 C-12.13355438 324.38156079 -16.84925158 324.39376643 -21.5651226 324.42292023 C-26.00810515 324.45016329 -30.45072733 324.45842709 -34.89378548 324.45243073 C-36.5203205 324.453527 -38.14686815 324.46142788 -39.77333069 324.4768219 C-51.42779675 324.58167474 -60.35545084 323.44351313 -69 315 C-73.70209543 308.86115319 -75.26103393 303.54096989 -75.1953125 295.8515625 C-75.1924826 295.19417084 -75.18965271 294.53677917 -75.18673706 293.85946655 C-75.17563447 291.78111767 -75.15054986 289.70321634 -75.125 287.625 C-75.11495731 286.20703752 -75.10583373 284.78906821 -75.09765625 283.37109375 C-75.07572805 279.91391963 -75.04126818 276.45700358 -75 273 C-74.08301268 272.99761165 -73.16602535 272.99522329 -72.22125053 272.99276257 C-49.91234745 272.93363514 -27.6035526 272.8580995 -5.29476738 272.76428509 C5.49358265 272.71931317 16.28189956 272.67990169 27.0703125 272.65356445 C36.47312758 272.63059572 45.87583798 272.59721022 55.27857006 272.55129844 C60.25757902 272.52735111 65.23648422 272.50863221 70.21554947 272.50238609 C74.90231943 272.49634211 79.58882383 272.47636698 84.27549553 272.44572449 C85.99516774 272.43693328 87.71487463 272.43322392 89.43456841 272.43499184 C91.78433265 272.43664473 94.13328752 272.41994479 96.48294067 272.39872742 C97.79741747 272.39411845 99.11189426 272.38950949 100.46620369 272.38476086 C105.49388084 271.83734578 108.76097647 270.22398848 112.34265137 266.68577576 C115.42292265 261.46475878 114.55485652 254.88463458 114.51757812 249.02758789 C114.52300262 247.5996479 114.53012712 246.17171351 114.53881836 244.74378967 C114.55701772 240.87588952 114.54999801 237.00841726 114.53730202 233.14050984 C114.5271547 229.08653589 114.53657268 225.03259787 114.54284668 220.97862244 C114.5501189 214.17033329 114.54054751 207.36221784 114.52148438 200.55395508 C114.49972509 192.69219214 114.50676167 184.83084432 114.52879 176.96909148 C114.54696665 170.21049458 114.54949102 163.45202236 114.53903532 156.69340891 C114.53281167 152.66064463 114.53193333 148.62807518 114.54518127 144.59532356 C114.55677198 140.80222042 114.54865603 137.00965007 114.52560425 133.21660423 C114.52033385 131.82791146 114.52180231 130.43917352 114.53065491 129.05049896 C114.74928266 118.72651124 114.74928266 118.72651124 110 110 C102.6150951 104.41465504 93.68900439 105.42482314 84.84375 105.45410156 C83.09874045 105.44535935 81.35373891 105.43487131 79.60874939 105.42277527 C74.88823518 105.394974 70.16798331 105.39150929 65.44739914 105.39249516 C60.50792349 105.38936101 55.56856511 105.36373233 50.62915039 105.34051514 C41.28314458 105.29999009 31.93720848 105.27962263 22.59112835 105.26654124 C11.94779387 105.25065937 1.30457781 105.21223871 -9.3386879 105.17194796 C-31.22575284 105.08959683 -53.11281217 105.0354748 -75 105 C-75.17300584 92.66195163 -69.65988989 82.61258311 -61.54541016 73.58642578 C-56.54908301 68.4574947 -50.75091305 64.23403058 -45 60 C-44.37931641 59.53883789 -43.75863281 59.07767578 -43.11914062 58.60253906 C-38.07985941 54.86157635 -33.0083435 51.16471159 -27.9140625 47.49902344 C-10.40058023 34.90804761 -10.40058023 34.90804761 -1 16 C-0.67 10.72 -0.34 5.44 0 0 Z " fill="#6BB8FE" transform="translate(213,321)"/>
<path d="M0 0 C1.00379196 0.72444054 1.00379196 0.72444054 2.02786255 1.46351624 C10.85801704 7.76209953 19.88587313 13.73225733 28.9630127 19.667099 C50.06658224 33.469898 71.00258534 47.51441088 91.87657166 61.66139221 C97.01100874 65.13954189 102.16433063 68.5884827 107.3286438 72.02210999 C106.67752876 73.04096283 106.67752876 73.04096283 106.01325989 74.08039856 C102.95844602 78.86296908 99.92844845 83.65870827 96.93574524 88.4803009 C91.43212027 97.33603184 85.76027208 106.07105077 80.0161438 114.77210999 C79.03487996 116.26119151 78.05376476 117.75037098 77.07278442 119.23963928 C74.96025561 122.44621695 72.84661682 125.65205974 70.73245239 128.8575592 C67.11956115 134.33709557 63.51517217 139.82220613 59.91067505 145.30726624 C53.24574777 155.44731954 46.56358461 165.57586919 39.86734009 175.69526672 C38.45383633 177.83279166 37.04267981 179.97184252 35.63235474 182.11146545 C33.50248191 185.3404499 31.35576419 188.55790064 29.2036438 191.77210999 C28.62485474 192.65229797 28.04606567 193.53248596 27.44973755 194.43934631 C26.67436646 195.58632996 26.67436646 195.58632996 25.8833313 196.75648499 C25.45520142 197.39811584 25.02707153 198.0397467 24.58596802 198.70082092 C24.17105103 199.13684631 23.75613403 199.5728717 23.3286438 200.02210999 C19.16063412 200.02210999 16.70984146 197.8636924 13.37942505 195.59632874 C12.68914719 195.13410416 11.99886932 194.67187958 11.28767395 194.19564819 C9.06777008 192.70672385 6.8544984 191.20824805 4.6411438 189.70960999 C3.20079995 188.74220036 1.76004855 187.77539725 0.31887817 186.80921936 C-7.31149806 181.68513399 -14.89843156 176.4996711 -22.46546936 171.28265381 C-31.15712937 165.29815723 -39.91842782 159.4164326 -48.6713562 153.52210999 C-58.33328749 147.01565437 -67.9948717 140.50918812 -77.6010437 133.92054749 C-78.24420532 133.48037292 -78.88736694 133.04019836 -79.55001831 132.58668518 C-84.40701786 129.24607587 -89.08440775 125.72542551 -93.6713562 122.02210999 C-94.6613562 121.30023499 -95.6513562 120.57835999 -96.6713562 119.83460999 C-108.61021473 109.61072561 -118.02243876 91.58276778 -119.6713562 76.02210999 C-120.58520817 62.45231949 -120.05285875 49.94822499 -115.6713562 37.02210999 C-115.46236694 36.3886969 -115.25337769 35.75528381 -115.03805542 35.10267639 C-108.21454241 14.83658718 -95.40950477 1.62040692 -76.84713745 -8.52085876 C-49.92239819 -21.60088905 -23.64992245 -16.97855431 0 0 Z " fill="#FE4C58" transform="translate(466.6713562011719,552.9778900146484)"/>
<path d="M0 0 C55.77 0 111.54 0 169 0 C169 40.59 169 81.18 169 123 C113.23 123 57.46 123 0 123 C0 82.41 0 41.82 0 0 Z " fill="#C7EEFE" transform="translate(137,449)"/>
<path d="M0 0 C1.01707031 0.17144531 2.03414062 0.34289063 3.08203125 0.51953125 C26.67141664 5.1187196 46.09076138 19.00834648 65 33 C66.56599955 34.15159492 68.1324073 35.30263495 69.69921875 36.453125 C75.27206241 40.54889177 80.83368657 44.65979362 86.39550781 48.77050781 C97.87773547 57.25452017 109.41228474 65.66070251 121 74 C170.99270073 109.97810219 170.99270073 109.97810219 174 119 C174.2734375 121.34765625 174.2734375 121.34765625 174.375 124.0625 C174.42398437 124.94035156 174.47296875 125.81820312 174.5234375 126.72265625 C173.16515918 135.22710037 167.61601379 142.30850605 162.5 149 C161.2491566 150.66603378 159.9991765 152.33271602 158.75 154 C158.12222656 154.83402344 157.49445313 155.66804687 156.84765625 156.52734375 C154.01621811 160.31656223 151.2575714 164.15687073 148.5 168 C144.02479448 174.22189346 139.49748912 180.40251469 134.9375 186.5625 C130.04551793 193.17473951 125.2573532 199.84935955 120.53881836 206.58618164 C116.19473022 212.76934132 111.71004951 218.84320831 107.2109375 224.9140625 C103.40427435 230.06228095 99.67321904 235.25587539 96 240.5 C91.21815231 247.32142285 86.33388609 254.06018392 81.36254883 260.74487305 C78.29668437 264.8680195 75.27281107 269.0123186 72.31640625 273.21484375 C71.70845215 274.06836426 71.10049805 274.92188477 70.47412109 275.80126953 C69.32265148 277.41974677 68.18269166 279.04650554 67.05712891 280.68310547 C62.53912754 286.98470895 56.86522436 292.48610459 49 294 C38.69247202 295.20221646 31.11589904 290.47196416 23.0625 284.5625 C22.33869141 284.04171875 21.61488281 283.5209375 20.86914062 282.984375 C18.57383794 281.33049396 16.28674362 279.6656887 14 278 C12.49925386 276.91459549 10.99795493 275.82995487 9.49609375 274.74609375 C7.24053553 273.11810091 4.98546686 271.48947298 2.73266602 269.85766602 C-2.31881574 266.2007484 -7.39876867 262.58712672 -12.5 259 C-18.34005245 254.89173653 -24.1514133 250.74644939 -29.9375 246.5625 C-30.68459229 246.02238281 -31.43168457 245.48226562 -32.20141602 244.92578125 C-35.96145735 242.20504497 -39.71716453 239.4784766 -43.46875 236.74609375 C-51.17174812 231.14605621 -58.92832086 225.65506876 -66.8125 220.3125 C-100.49629443 197.40996853 -124.19640377 171.12872037 -132.56225586 130.33764648 C-136.32045516 110.26806573 -133.82079487 90.09111535 -127 71 C-126.63003906 69.94941406 -126.26007813 68.89882812 -125.87890625 67.81640625 C-115.018832 39.52008823 -91.10772372 18.3084062 -64 6 C-43.44216994 -2.6588965 -21.7816441 -4.12511233 0 0 Z M-89.125 52.125 C-105.81464476 71.12306939 -112.42457456 94.35976388 -111.21142578 119.32714844 C-110.67460623 126.11363853 -109.09699488 132.54029164 -107 139 C-106.68651611 139.96776367 -106.68651611 139.96776367 -106.36669922 140.95507812 C-101.17333263 156.37568125 -92.33429314 168.49010514 -81 180 C-80.47736572 180.55107422 -79.95473145 181.10214844 -79.41625977 181.66992188 C-75.03258845 186.21399442 -70.30895181 189.94674106 -65.1875 193.625 C-64.35927734 194.22691162 -63.53105469 194.82882324 -62.67773438 195.44897461 C-60.96080418 196.69544377 -59.24188226 197.93917399 -57.52099609 199.18017578 C-55.14980948 200.89185746 -52.78654185 202.61382322 -50.42578125 204.33984375 C-41.97702015 210.50086314 -33.41712907 216.46694354 -24.76049805 222.33178711 C-20.16430098 225.46385195 -15.68533099 228.68851775 -11.3125 232.125 C-6.11216611 236.20253453 -0.76188203 239.96932647 4.70336914 243.68188477 C12.18850475 248.77862135 19.50094843 254.10773649 26.828125 259.42773438 C30.24953892 261.90456729 33.68616396 264.35993815 37.125 266.8125 C37.72328613 267.23926025 38.32157227 267.66602051 38.93798828 268.10571289 C40.29169988 269.07088537 41.64579971 270.0355133 43 271 C46.16790156 269.64492915 47.80615319 268.31217904 49.77734375 265.5 C50.28386475 264.787229 50.79038574 264.07445801 51.31225586 263.34008789 C51.84858643 262.56785889 52.38491699 261.79562988 52.9375 261 C54.10397831 259.35273119 55.27065027 257.70559949 56.4375 256.05859375 C57.03046875 255.21538574 57.6234375 254.37217773 58.234375 253.50341797 C60.93918318 249.668365 63.68721652 245.8650072 66.4375 242.0625 C67.23365723 240.95890137 67.23365723 240.95890137 68.04589844 239.83300781 C72.05775781 234.27905235 76.11580669 228.76018913 80.1875 223.25 C85.00394216 216.73131921 89.76022935 210.1755172 94.45703125 203.5703125 C102.44903085 192.33403583 110.57410514 181.19589278 118.76855469 170.10668945 C123.24803241 164.03830003 127.67078396 157.9308538 132.0769043 151.80908203 C138.31456892 143.1546454 144.655879 134.576551 151 126 C146.98764309 121.71174429 142.60015099 118.38331467 137.8125 115 C136.19264523 113.84253623 134.57285535 112.68498164 132.953125 111.52734375 C132.12876953 110.94065918 131.30441406 110.35397461 130.45507812 109.74951172 C126.64665385 107.03559283 122.85377921 104.30029703 119.0625 101.5625 C118.32362549 101.02947266 117.58475098 100.49644531 116.82348633 99.94726562 C110.55414078 95.41733287 104.32909835 90.82863991 98.10791016 86.23291016 C89.78497251 80.09080366 81.39567785 74.04209317 73 68 C70.01996609 65.85536763 67.04076365 63.7095901 64.0625 61.5625 C63.32539795 61.03164795 62.5882959 60.5007959 61.82885742 59.95385742 C57.08511041 56.52967928 52.37950416 53.05790584 47.68823242 49.56225586 C4.00995578 17.09766714 -48.3912476 9.75686864 -89.125 52.125 Z " fill="#010101" transform="translate(493,50)"/>
<path d="M0 0 C20.30070671 18.38723804 35.92140148 43.37168214 37.85742188 71.36791992 C37.95510245 74.44510708 37.98157565 77.51117459 37.96484375 80.58984375 C37.9592041 81.68554688 37.95356445 82.78125 37.94775391 83.91015625 C37.54400149 111.0615066 27.28119167 135.74625826 8.65234375 155.40234375 C8.06130859 156.02923096 7.47027344 156.65611816 6.86132812 157.30200195 C2.03068293 162.28826121 -3.12679423 166.4945974 -8.72265625 170.58984375 C-9.5933374 171.23493896 -10.46401855 171.88003418 -11.36108398 172.54467773 C-18.48363974 177.8079966 -25.66425259 182.99124789 -32.85546875 188.16015625 C-37.52309893 191.52044144 -42.15733866 194.92500999 -46.78515625 198.33984375 C-47.57140381 198.91984131 -48.35765137 199.49983887 -49.16772461 200.09741211 C-53.17201081 203.05321998 -57.17291181 206.0135582 -61.171875 208.9765625 C-68.99629021 214.76793065 -76.84535752 220.51980761 -84.78515625 226.15234375 C-85.48914551 226.6539502 -86.19313477 227.15555664 -86.91845703 227.67236328 C-87.90241455 228.36628174 -87.90241455 228.36628174 -88.90625 229.07421875 C-89.47657959 229.47737305 -90.04690918 229.88052734 -90.63452148 230.29589844 C-95.57186974 233.48473445 -99.523271 234.18776873 -105.34765625 233.40234375 C-114.04074134 229.32191606 -119.71993989 220.04908141 -125.07983398 212.39208984 C-128.96347575 206.86717723 -133.04751896 201.50821203 -137.16015625 196.15234375 C-142.79455452 188.8042484 -148.30360418 181.38471856 -153.69677734 173.8581543 C-157.64773025 168.35019068 -161.68453227 162.91389825 -165.76538086 157.50170898 C-169.6001891 152.41178158 -173.38733241 147.28835077 -177.16015625 142.15234375 C-182.71867997 134.58595302 -188.34269962 127.0711553 -193.99414062 119.57397461 C-198.22934187 113.93952459 -202.37224121 108.24883851 -206.37988281 102.44995117 C-208.41332094 99.43808859 -208.41332094 99.43808859 -211.34765625 97.40234375 C-211.61537842 98.27133301 -211.88310059 99.14032227 -212.15893555 100.03564453 C-213.3203673 103.3250559 -214.70840303 106.20466288 -216.3671875 109.26953125 C-217.27235107 110.95030762 -217.27235107 110.95030762 -218.19580078 112.66503906 C-218.8504819 113.8691972 -219.50526972 115.07329732 -220.16015625 116.27734375 C-220.838792 117.53330553 -221.51700886 118.78949372 -222.19482422 120.04589844 C-223.91502272 123.23183542 -225.64071192 126.41476007 -227.36810303 129.59680176 C-228.83954527 132.3090084 -230.30638679 135.02369729 -231.7734375 137.73828125 C-233.90134833 141.673838 -236.03311748 145.60726654 -238.16796875 149.5390625 C-240.31599166 153.49605116 -242.45597483 157.45723626 -244.58984375 161.421875 C-247.823492 167.42576908 -251.07600571 173.41907226 -254.34765625 179.40234375 C-254.92644531 180.46098633 -255.50523437 181.51962891 -256.1015625 182.61035156 C-257.83966518 185.77618145 -259.5912733 188.93412542 -261.34765625 192.08984375 C-262.13946289 193.53339233 -262.13946289 193.53339233 -262.94726562 195.00610352 C-265.62463001 199.78105091 -268.03971249 203.96024701 -272.34765625 207.40234375 C-276.3018655 208.02999601 -278.69325111 208.37216745 -282.16015625 206.33984375 C-284.945096 204.09046934 -287.06873914 202.20545655 -287.62768555 198.59204102 C-287.96662082 191.64813363 -285.64135369 187.21506942 -282.16015625 181.33984375 C-281.04988165 179.38853242 -279.94053869 177.43669077 -278.83203125 175.484375 C-278.25517578 174.48229004 -277.67832031 173.48020508 -277.08398438 172.44775391 C-274.27449957 167.52009454 -271.59693477 162.52262528 -268.91015625 157.52734375 C-267.81953248 155.51143622 -266.72838366 153.49581267 -265.63671875 151.48046875 C-264.54032313 149.45444951 -263.44396902 147.42840782 -262.34765625 145.40234375 C-250.16746352 122.89248015 -250.16746352 122.89248015 -244.82788086 113.11474609 C-243.84654003 111.31651145 -242.86686529 109.51736651 -241.88891602 107.71728516 C-239.21887934 102.80619032 -236.51721728 97.91549263 -233.77734375 93.04296875 C-233.184375 91.97691406 -232.59140625 90.91085937 -231.98046875 89.8125 C-230.84287871 87.7673659 -229.69507953 85.72786325 -228.53515625 83.6953125 C-226.02273859 79.15171141 -224.12563203 75.22403923 -223.29296875 70.07421875 C-222.25538946 63.75100001 -218.83839467 60.39676249 -213.80859375 56.68359375 C-212.45181137 55.74892144 -211.08950683 54.82222976 -209.72265625 53.90234375 C-208.19280693 52.84679422 -206.66420628 51.78943315 -205.13671875 50.73046875 C-204.3468457 50.18455078 -203.55697266 49.63863281 -202.74316406 49.07617188 C-198.81482844 46.33130141 -194.95316632 43.49825003 -191.09765625 40.65234375 C-189.91985596 39.78319336 -189.91985596 39.78319336 -188.71826172 38.89648438 C-181.82542685 33.78985575 -175.00822368 28.58586916 -168.19555664 23.37304688 C-161.57435234 18.31456187 -154.89660409 13.33927871 -148.16894531 8.42333984 C-144.45484523 5.70678995 -140.76560357 2.96918205 -137.1328125 0.14453125 C-96.74130013 -31.18226724 -40.08542356 -34.43461495 0 0 Z M-134.84667969 26.546875 C-138.10401669 28.96348582 -141.37210789 31.36530156 -144.64038086 33.76708984 C-151.88083791 39.08910997 -159.09208882 44.44750092 -166.2722168 49.85058594 C-172.38519427 54.44469243 -178.5406045 58.98045498 -184.703125 63.5078125 C-189.60606508 67.1111781 -194.48708391 70.74201492 -199.34765625 74.40234375 C-195.06034801 81.04163307 -190.42986139 87.33922152 -185.59765625 93.58984375 C-181.07013835 99.48687541 -176.56422529 105.3844484 -172.28515625 111.46484375 C-168.32657514 117.08629822 -164.23290418 122.59712842 -160.09765625 128.08984375 C-153.36614126 137.03130223 -146.70819923 146.02410119 -140.08154297 155.04345703 C-137.75664729 158.20638889 -135.42791264 161.36648314 -133.09887695 164.52636719 C-131.93440798 166.10626571 -130.77018142 167.68634294 -129.60620117 169.26660156 C-126.64300352 173.28947754 -123.6772301 177.31041485 -120.70703125 181.328125 C-113.83616917 190.62752922 -107.02881433 199.96559282 -100.34765625 209.40234375 C-94.24967502 205.41250634 -88.31912852 201.25112397 -82.47265625 196.90234375 C-80.79821837 195.66270465 -79.123738 194.42312294 -77.44921875 193.18359375 C-76.17933105 192.24193359 -76.17933105 192.24193359 -74.88378906 191.28125 C-70.87779884 188.31339278 -66.86246401 185.35825534 -62.84765625 182.40234375 C-61.26427377 181.23574378 -59.68094054 180.06907697 -58.09765625 178.90234375 C-48.59765625 171.90234375 -48.59765625 171.90234375 -46.22143555 170.15234375 C-44.64102424 168.98723131 -43.06175532 167.82056766 -41.48364258 166.65234375 C-37.48862184 163.69801499 -33.47632958 160.77468319 -29.421875 157.90234375 C-7.13895765 142.02205427 9.49316964 124.31411429 15.27075195 96.85522461 C18.67419388 74.97782151 13.98298031 52.6198191 1.7265625 34.1953125 C-4.80170674 25.40489346 -12.41675661 17.75702234 -21.34765625 11.40234375 C-22.09015625 10.87125 -22.83265625 10.34015625 -23.59765625 9.79296875 C-62.91384091 -15.9750712 -101.51571776 1.7726345 -134.84667969 26.546875 Z " fill="#010101" transform="translate(854.34765625,551.59765625)"/>
<path d="M0 0 C0 49.5 0 99 0 150 C-94.15495868 150 -94.15495868 150 -115 131 C-115.81855469 130.27296875 -116.63710937 129.5459375 -117.48046875 128.796875 C-127.91239227 119.01201482 -133.95544479 107.62376491 -138 94 C-138.24621094 93.195625 -138.49242187 92.39125 -138.74609375 91.5625 C-143.60921124 72.244185 -139.07243531 51.77346529 -129.18896484 34.88867188 C-101.27261206 -9.45648319 -46.88658238 0 0 0 Z " fill="#6BB7FE" transform="translate(289,743)"/>
<path d="M0 0 C0.67877197 -0.02239746 1.35754395 -0.04479492 2.05688477 -0.06787109 C14.10456303 -0.01423175 24.238335 6.05475802 34.25 12.125 C35.51826002 12.88241335 36.78707128 13.63890436 38.05639648 14.39453125 C41.32536202 16.34516341 44.58516048 18.31052724 47.8414917 20.28216553 C49.68239944 21.39657733 51.52477073 22.50852387 53.36767578 23.61962891 C60.33498523 27.82221336 67.28608619 32.05099035 74.23095703 36.29052734 C79.63546194 39.58916561 85.04726661 42.87578458 90.45932007 46.16201782 C92.23566524 47.24129048 94.01110202 48.32204421 95.78637695 49.40307617 C100.96688694 52.55501863 106.15564809 55.68909141 111.390625 58.75 C143.73065321 77.69417742 170.30495421 101.97707165 180.22998047 139.37109375 C187.66203486 168.90391458 183.55186082 198.84373406 168.59375 225.4140625 C152.97954517 251.01871194 129.20642249 270.37000916 100.24609375 278.59375 C65.58172593 286.95967564 34.51265902 280.42799666 4.26391602 261.94726562 C-0.26177548 259.14367323 -4.75735063 256.29363799 -9.25 253.4375 C-11.0922774 252.27316765 -12.93472562 251.10910555 -14.77734375 249.9453125 C-26.09790438 242.78028688 -37.35113626 235.51303346 -48.56835938 228.1875 C-51.38220743 226.35122334 -54.19883247 224.51925626 -57.015625 222.6875 C-61.86600771 219.53046672 -66.70764262 216.360315 -71.54348755 213.18107605 C-74.95618329 210.93863266 -78.37413452 208.70459021 -81.79785156 206.47900391 C-85.85948924 203.83820491 -89.91186229 201.18363625 -93.95947266 198.52139282 C-95.55216081 197.4770464 -97.14781015 196.4372001 -98.74658203 195.40219116 C-118.77106074 182.42826987 -118.77106074 182.42826987 -122.75 172.8125 C-124.45979993 161.27135049 -119.86703046 152.88349989 -113.9375 143.25 C-113.421875 142.40050781 -112.90625 141.55101562 -112.375 140.67578125 C-107.69017487 133.01981999 -102.77001552 125.52115692 -97.83227539 118.02685547 C-93.15916183 110.90894736 -88.72317512 103.67731258 -84.38012695 96.35449219 C-80.96532849 90.602646 -77.42017084 84.96770858 -73.7734375 79.359375 C-70.47222515 74.25923325 -67.27538983 69.09352214 -64.0625 63.9375 C-31.24143969 11.34033562 -31.24143969 11.34033562 -16.25 3.4375 C-15.64929688 3.09460938 -15.04859375 2.75171875 -14.4296875 2.3984375 C-9.83172315 0.19223936 -5.0250487 0.10080005 0 0 Z M-18.43139648 33.85717773 C-21.55695167 38.29186598 -24.41461958 42.87610189 -27.25 47.5 C-28.57278219 49.636802 -29.89570275 51.77351835 -31.21875 53.91015625 C-31.88777344 54.99441895 -32.55679688 56.07868164 -33.24609375 57.19580078 C-36.39435122 62.28870559 -39.57296734 67.36251605 -42.75 72.4375 C-44.00016112 74.43739929 -45.25016075 76.43739954 -46.5 78.4375 C-54 90.4375 -61.5 102.4375 -69 114.4375 C-69.92921265 115.92431274 -69.92921265 115.92431274 -70.87719727 117.44116211 C-72.11969728 119.42906495 -73.36237136 121.41685901 -74.60522461 123.40454102 C-77.8464544 128.58872147 -81.08409442 133.77509756 -84.31640625 138.96484375 C-84.98542969 140.03798828 -85.65445313 141.11113281 -86.34375 142.21679688 C-87.61441399 144.25515369 -88.8840228 146.29416883 -90.15234375 148.33398438 C-93.38870313 153.52294725 -96.69453692 158.6375246 -100.18139648 163.66235352 C-101.42191427 165.37775286 -101.42191427 165.37775286 -101.25 167.4375 C-99.52628936 168.8093815 -99.52628936 168.8093815 -97.24609375 170.16796875 C-96.37170654 170.71606201 -95.49731934 171.26415527 -94.59643555 171.82885742 C-93.63648682 172.42158447 -92.67653809 173.01431152 -91.6875 173.625 C-89.66068266 174.89459587 -87.63466597 176.16547065 -85.609375 177.4375 C-84.55814453 178.09621094 -83.50691406 178.75492188 -82.42382812 179.43359375 C-77.39297733 182.60999554 -72.4145999 185.8652528 -67.4375 189.125 C-65.50136325 190.39071857 -63.56516653 191.65634541 -61.62890625 192.921875 C-60.71125488 193.52193359 -59.79360352 194.12199219 -58.84814453 194.74023438 C-47.10822419 202.40946255 -35.3012725 209.97363646 -23.48461914 217.52392578 C-18.09757652 220.96766362 -12.71956937 224.42379459 -7.36303711 227.91479492 C22.52235754 247.37463816 51.75492035 265.31502731 88.90869141 257.92016602 C112.92568069 252.52816929 133.84881961 237.79560336 147.26806641 217.24560547 C151.21916061 210.94308224 154.27529532 204.45947452 156.75 197.4375 C157.1625 196.28765625 157.575 195.1378125 158 193.953125 C164.91977936 171.17551793 161.85483984 145.96288941 150.96582031 125.01000977 C140.27677318 105.56037722 125.29307564 93.74670497 106.75 82.4375 C105.69683594 81.79151855 104.64367187 81.14553711 103.55859375 80.47998047 C97.12289416 76.53670314 90.66959169 72.62341573 84.20507812 68.72758484 C78.2910928 65.1632326 72.38889234 61.57963435 66.48809814 57.99349976 C64.75331541 56.93951431 63.01809487 55.88625364 61.28271484 54.83325195 C55.89976934 51.56680789 50.51841678 48.29781931 45.14239502 45.01998901 C42.65200025 43.50177332 40.16074596 41.9849711 37.66943359 40.46826172 C35.94936497 39.42030699 34.2305139 38.3703546 32.51171875 37.3203125 C26.7676714 33.82423566 20.99722652 30.37615918 15.1796875 27.00390625 C13.4778833 26.0149939 13.4778833 26.0149939 11.74169922 25.00610352 C-0.26845623 18.70895574 -10.8433452 23.71487479 -18.43139648 33.85717773 Z " fill="#010102" transform="translate(725.25,187.5625)"/>
<path d="M0 0 C23.0670219 -0.12032643 23.0670219 -0.12032643 32.98828125 -0.14648438 C39.72712393 -0.16433666 46.46584297 -0.18533126 53.20458984 -0.22631836 C58.6446314 -0.25919486 64.08454014 -0.27691199 69.52467346 -0.28463173 C71.58803901 -0.29012491 73.65139826 -0.30084982 75.71470642 -0.31719017 C101.85735764 -0.51577199 123.74111476 4.05787274 143 23 C143.70125 23.68835938 144.4025 24.37671875 145.125 25.0859375 C159.21243867 39.88875392 164.77131359 57.7548813 164.52172852 77.84423828 C163.92909888 95.51562093 157.84467071 111.70707261 146 125 C145.43023438 125.66257812 144.86046875 126.32515625 144.2734375 127.0078125 C136.9820072 134.91979006 126.47093813 142.28531234 116 145 C112.01309708 144.55362919 109.0901562 142.30067677 105.79296875 140.140625 C105.18172653 139.7414386 104.57048431 139.3422522 103.9407196 138.93096924 C97.11052839 134.45293572 90.3449426 129.87727906 83.58651733 125.29196167 C81.23880663 123.70003013 78.88883286 122.11148738 76.53833008 120.52368164 C68.50263614 115.09328306 60.47762189 109.64790922 52.47267151 104.17227173 C48.64715532 101.5575708 44.81638342 98.95063167 40.98495483 96.34460449 C39.14510332 95.09032541 37.30764557 93.83252651 35.47280884 92.57092285 C24.66250332 85.13982476 13.92337875 78.49222279 2 73 C1.34 72.67 0.68 72.34 0 72 C0 48.24 0 24.48 0 0 Z " fill="#ECF4FA" transform="translate(453,449)"/>
<path d="M0 0 C0.33 0 0.66 0 1 0 C1.30446139 14.03842317 1.5324314 28.07633057 1.67355824 42.11738396 C1.74130701 48.63801715 1.83313383 55.15642749 1.98071289 61.67578125 C2.12234014 67.97187115 2.19976922 74.2658286 2.23340416 80.56338882 C2.25736029 82.96138202 2.30414672 85.35926291 2.37449074 87.75634384 C2.93255098 107.56747697 2.93255098 107.56747697 -1.79605103 112.57183838 C-4.91793733 115.21187473 -8.42736077 117.02845846 -12 119 C-29.62880352 135.35859797 -42.00647086 160.50724794 -43.12231445 184.64599609 C-43.20691645 187.76476833 -43.23491003 190.88014798 -43.25 194 C-43.2809375 195.55267578 -43.2809375 195.55267578 -43.3125 197.13671875 C-43.34251602 203.23747442 -42.74880655 208.95387636 -41.47949219 214.91796875 C-41.26708389 215.9458551 -41.26708389 215.9458551 -41.05038452 216.99450684 C-40.70473996 218.66393914 -40.35300814 220.33210923 -40 222 C-62.00976921 222.09351258 -84.01950557 222.16401317 -106.02943325 222.20724869 C-116.24942612 222.22785882 -126.46929543 222.25594983 -136.68920898 222.30175781 C-145.5986739 222.34167297 -154.50804932 222.36744407 -163.41760117 222.37635398 C-168.13355438 222.38156079 -172.84925158 222.39376643 -177.5651226 222.42292023 C-182.00810515 222.45016329 -186.45072733 222.45842709 -190.89378548 222.45243073 C-192.5203205 222.453527 -194.14686815 222.46142788 -195.77333069 222.4768219 C-207.42779675 222.58167474 -216.35545084 221.44351313 -225 213 C-229.70209543 206.86115319 -231.26103393 201.54096989 -231.1953125 193.8515625 C-231.1924826 193.19417084 -231.18965271 192.53677917 -231.18673706 191.85946655 C-231.17563447 189.78111767 -231.15054986 187.70321634 -231.125 185.625 C-231.11495731 184.20703752 -231.10583373 182.78906821 -231.09765625 181.37109375 C-231.07572805 177.91391963 -231.04126818 174.45700358 -231 171 C-230.08301268 170.99761165 -229.16602535 170.99522329 -228.22125053 170.99276257 C-205.91234745 170.93363514 -183.6035526 170.8580995 -161.29476738 170.76428509 C-150.50641735 170.71931317 -139.71810044 170.67990169 -128.9296875 170.65356445 C-119.52687242 170.63059572 -110.12416202 170.59721022 -100.72142994 170.55129844 C-95.74242098 170.52735111 -90.76351578 170.50863221 -85.78445053 170.50238609 C-81.09768057 170.49634211 -76.41117617 170.47636698 -71.72450447 170.44572449 C-70.00483226 170.43693328 -68.28512537 170.43322392 -66.56543159 170.43499184 C-64.21566735 170.43664473 -61.86671248 170.41994479 -59.51705933 170.39872742 C-58.20258253 170.39411845 -56.88810574 170.38950949 -55.53379631 170.38476086 C-50.50611916 169.83734578 -47.23902353 168.22398848 -43.65734863 164.68577576 C-40.57707735 159.46475878 -41.44514348 152.88463458 -41.48242188 147.02758789 C-41.47699738 145.5996479 -41.46987288 144.17171351 -41.46118164 142.74378967 C-41.44298228 138.87588952 -41.45000199 135.00841726 -41.46269798 131.14050984 C-41.4728453 127.08653589 -41.46342732 123.03259787 -41.45715332 118.97862244 C-41.4498811 112.17033329 -41.45945249 105.36221784 -41.47851562 98.55395508 C-41.50027491 90.69219214 -41.49323833 82.83084432 -41.47121 74.96909148 C-41.45303335 68.21049458 -41.45050898 61.45202236 -41.46096468 54.69340891 C-41.46718833 50.66064463 -41.46806667 46.62807518 -41.45481873 42.59532356 C-41.44322802 38.80222042 -41.45134397 35.00965007 -41.47439575 31.21660423 C-41.47966615 29.82791146 -41.47819769 28.43917352 -41.46934509 27.05049896 C-41.38612729 16.81241999 -41.38612729 16.81241999 -46 8 C-48.58860393 5.6090093 -48.58860393 5.6090093 -51 4 C-50 3 -50 3 -47.98155212 2.87974548 C-47.09552811 2.88196609 -46.20950409 2.88418671 -45.29663086 2.88647461 C-44.29566879 2.88655014 -43.29470673 2.88662567 -42.26341248 2.88670349 C-41.1748848 2.89186478 -40.08635712 2.89702606 -38.96484375 2.90234375 C-37.3022628 2.90446617 -37.3022628 2.90446617 -35.60609436 2.90663147 C-32.04986931 2.91224967 -28.49370617 2.92480525 -24.9375 2.9375 C-22.53320403 2.94251266 -20.12890708 2.94707597 -17.72460938 2.95117188 C-11.81638496 2.96222501 -5.9081969 2.97898083 0 3 C0 2.01 0 1.02 0 0 Z " fill="#368DEB" transform="translate(369,423)"/>
<path d="M0 0 C3.29754868 1.09918289 3.68224796 1.57152338 5.57421875 4.296875 C6.06857422 4.99748047 6.56292969 5.69808594 7.07226562 6.41992188 C7.60529297 7.18884766 8.13832031 7.95777344 8.6875 8.75 C13.65430508 15.77828404 18.75358098 22.67795086 24 29.5 C29.57308625 36.76435804 35.01703356 44.10298098 40.34985352 51.54516602 C44.30111009 57.05366452 48.33775027 62.4908621 52.41992188 67.90283203 C56.23736178 72.96828114 59.99924127 78.0725417 63.75 83.1875 C69.54958486 91.08938365 75.46897981 98.8946325 81.42480469 106.67919922 C86.04266521 112.72171883 90.58890258 118.80414935 95 125 C91.36722378 128.97693397 87.12297396 131.90626755 82.75 135 C77.35275172 138.84239559 72.01596319 142.73172928 66.78125 146.79296875 C47.10099479 161.98268954 25.48307618 170.47449045 0.26953125 167.5703125 C-20.69416421 163.99168377 -40.01535986 152.7141879 -53.015625 135.83984375 C-58.62569762 127.81125558 -63.38165403 119.49150413 -66 110 C-64.453125 109.814375 -64.453125 109.814375 -62.875 109.625 C-59.18627585 108.55963459 -58.03699548 106.95893144 -56.171875 103.6640625 C-55.6567334 102.76155762 -55.1415918 101.85905273 -54.61083984 100.92919922 C-54.0792627 99.96256348 -53.54768555 98.99592773 -53 98 C-52.47229004 97.0423877 -51.94458008 96.08477539 -51.40087891 95.09814453 C-49.70887093 91.99079955 -48.039435 88.87219541 -46.375 85.75 C-45.13461131 83.43462966 -43.89371783 81.11952968 -42.65234375 78.8046875 C-42.0372998 77.65709961 -41.42225586 76.50951172 -40.78857422 75.32714844 C-38.19266844 70.49818257 -35.56784245 65.68527175 -32.9375 60.875 C-21.87463288 40.62855838 -10.92868145 20.3190873 0 0 Z " fill="#FE4C58" transform="translate(643,649)"/>
<path d="M0 0 C31.15319496 0 52.08676944 1.58908516 74.16796875 23.11328125 C89.63098868 39.47357507 94.55029683 57.96052247 94.2734375 79.82421875 C93.63780275 100.47605475 83.98265971 117.68985624 69.1875 131.75 C48.90376255 149.22521996 26.3554344 150 0 150 C0 100.5 0 51 0 0 Z " fill="#6BB8FE" transform="translate(310,743)"/>
<path d="M0 0 C41.25 0 82.5 0 125 0 C125 19.8 125 39.6 125 60 C83.75 60 42.5 60 0 60 C0 40.2 0 20.4 0 0 Z " fill="#3566DA" transform="translate(191,237)"/>
<path d="M0 0 C4.32633002 2.24636367 7.48567037 4.80945061 10 9 C11.19364588 13.41485463 11.36429998 16.88567065 9.9375 21.25 C7.26429878 25.04422108 4.20256941 27.89871529 0 30 C-5.91263553 30.59126355 -10.25284907 29.49085502 -15 26 C-17.94262667 22.74415256 -19.22948272 19.36209114 -19.5 15 C-19.23759536 10.63223247 -17.84773511 7.31815743 -15 4 C-10.33265274 -0.0056474 -6.00719909 -0.76281893 0 0 Z " fill="#020303" transform="translate(618,869)"/>
<path d="M0 0 C4.5003791 3.71116857 6.72552429 6.61509591 7.30859375 12.54296875 C7.18624965 17.22700007 5.6197507 19.92507974 2.93359375 23.73046875 C-0.9703018 27.2794647 -4.66854524 28.10662035 -9.94140625 28 C-14.42961362 27.4307237 -17.6357488 25.55167924 -20.42578125 22 C-22.95900278 17.65361648 -23.64948443 13.86969513 -22.80859375 8.91015625 C-21.18020787 4.12784404 -17.92240213 0.93435797 -13.75390625 -1.76953125 C-8.87854939 -2.67657439 -4.32102533 -2.6546942 0 0 Z " fill="#030303" transform="translate(552.06640625,804.26953125)"/>
<path d="M0 0 C4.83831756 2.3295603 7.6006196 5.20123921 10 10 C10.95451615 15.36245028 9.93702762 19.38467088 7 24 C4.1463776 27.2995009 2.16115335 28.7730975 -2.26953125 29.23828125 C-8.04295046 29.4067835 -11.57781849 29.1063114 -16 25 C-18.68016586 21.6162906 -19.8871925 18.78965251 -20.5 14.5 C-19.68714748 8.81003238 -17.56073677 5.44925557 -13.375 1.5625 C-8.79351717 -0.55855686 -4.96701508 -0.79278091 0 0 Z " fill="#020202" transform="translate(669,931)"/>
<path d="M0 0 C4.64425866 2.49413891 8.31375022 4.94125067 10 10 C10.51252223 14.88156423 10.51072894 18.85085989 8.5 23.375 C4.92333188 27.13050153 1.21247059 29.75334964 -4.0859375 30.16015625 C-9.90391885 29.70318837 -14.00628063 27.25954862 -17.875 22.875 C-19.56588838 18.55384081 -19.65372893 14.57610253 -19 10 C-15.11488125 1.93090721 -8.73930185 -1.58184496 0 0 Z " fill="#020202" transform="translate(534,901)"/>
<path d="M0 0 C4.18913372 1.61120528 7.10392634 3.5676164 10 7 C11.85166045 12.55498136 11.88402491 18.01094395 9.5 23.375 C5.59884399 27.47121381 1.5468105 29.52247303 -4 30.5625 C-9.31705931 29.56555138 -13.37758619 26.7745151 -17 22.8125 C-18.5310527 18.50641427 -18.64465044 14.51255311 -18 10 C-14.31067743 2.33756082 -8.37084041 -1.38955951 0 0 Z " fill="#020202" transform="translate(705,836)"/>
<path d="M0 0 C3.5677811 2.35149209 5.84221079 4.99692157 7.75 8.8125 C8.55889711 15.32345871 7.65069977 19.5412841 3.75 24.8125 C-0.13557401 28.46258467 -4.49481259 28.3149248 -9.58984375 28.1640625 C-14.4010833 27.52821586 -16.96216629 25.22911708 -20.125 21.75 C-21.90845769 17.09319382 -22.12724305 12.71804312 -21.25 7.8125 C-16.6587273 -0.55282858 -8.90891221 -3.25517946 0 0 Z " fill="#020000" transform="translate(645.25,769.1875)"/>
<path d="M0 0 C55.44 0 110.88 0 168 0 C168 39.6 168 79.2 168 120 C167.67 120 167.34 120 167 120 C166.86759693 108.89671514 166.7370999 97.79340951 166.60884857 86.69007587 C166.54920082 81.53092182 166.48896562 76.3717762 166.42724609 71.21264648 C166.36738663 66.20699394 166.30925505 61.20132372 166.25218201 56.19563866 C166.2304432 54.31328846 166.20814508 52.43094461 166.18519592 50.54860878 C165.98852801 34.36365333 166 18.18846745 166 2 C111.55 2 57.1 2 1 2 C1 41.27 1 80.54 1 121 C2.32 121.33 3.64 121.66 5 122 C3.35 122 1.7 122 0 122 C0 81.74 0 41.48 0 0 Z " fill="#E3FCFE" transform="translate(138,449)"/>
<path d="M0 0 C23.1 0 46.2 0 70 0 C70 49.5 70 99 70 150 C46.57 150 23.14 150 -1 150 C-1.66 149.34 -2.32 148.68 -3 148 C20.43 148 43.86 148 68 148 C68 99.49 68 50.98 68 1 C45.56 1 23.12 1 0 1 C0 0.67 0 0.34 0 0 Z " fill="#67B2D6" transform="translate(219,743)"/>
<path d="M0 0 C0.99 0.33 1.98 0.66 3 1 C3 49.18 3 97.36 3 147 C11.91 147 20.82 147 30 147 C31.485 147.99 31.485 147.99 33 149 C22.10555697 150.556349 11.00504935 150 0 150 C0 100.5 0 51 0 0 Z " fill="#487BB9" transform="translate(310,743)"/>
<path d="M0 0 C0.33 0 0.66 0 1 0 C1 8.58 1 17.16 1 26 C2.91425781 25.97679687 4.82851563 25.95359375 6.80078125 25.9296875 C9.30468361 25.91093168 11.80859017 25.89273128 14.3125 25.875 C15.57513672 25.85824219 16.83777344 25.84148438 18.13867188 25.82421875 C19.95141602 25.81455078 19.95141602 25.81455078 21.80078125 25.8046875 C22.91622314 25.79421387 24.03166504 25.78374023 25.1809082 25.77294922 C28 26 28 26 31 28 C24.35987704 29.22394139 17.79659859 29.11188368 11.0625 29.0625 C7.081875 29.041875 3.10125 29.02125 -1 29 C-0.67 19.43 -0.34 9.86 0 0 Z " fill="#67B1EC" transform="translate(312,864)"/>
<path d="M0 0 C1.58709103 4.76127308 -0.52847638 8.29334948 -2.34375 12.81640625 C-4.68608202 17.31876615 -7.43112163 19.84470065 -12 22 C-15.5 22.875 -15.5 22.875 -18 23 C-16 21 -16 21 -13.125 19.75 C-7.9957895 16.87764212 -5.90945662 12.41012709 -4 7 C-3.34 7 -2.68 7 -2 7 C-1.855625 6.21625 -1.71125 5.4325 -1.5625 4.625 C-1 2 -1 2 0 0 Z " fill="#3FA1F2" transform="translate(333,572)"/>
<path d="M0 0 C2.4375 0.6875 2.4375 0.6875 5 2 C5.5625 4.3125 5.5625 4.3125 6 7 C7.96509909 9.7700997 7.96509909 9.7700997 10 12 C9.67 12.66 9.34 13.32 9 14 C0 3.89320388 0 3.89320388 0 0 Z " fill="#78CCF5" transform="translate(159,854)"/>
<path d="M0 0 C0.66 0.33 1.32 0.66 2 1 C1.01 2.98 0.02 4.96 -1 7 C-2.65 6.67 -4.3 6.34 -6 6 C-4 4 -2 2 0 0 Z " fill="#77C9F9" transform="translate(175,376)"/>
<path d="M0 0 C2.64465038 3.1254959 3.84414715 6.08788267 5 10 C3.68 9.67 2.36 9.34 1 9 C0.67 6.03 0.34 3.06 0 0 Z " fill="#6EBFEB" transform="translate(395,782)"/>
<path d="M0 0 C0 4.00333149 -0.93272472 6.80957758 -3.625 9.8125 C-4.07875 10.204375 -4.5325 10.59625 -5 11 C-5.33 10.34 -5.66 9.68 -6 9 C-4.02 6.03 -2.04 3.06 0 0 Z " fill="#3EF0BB" transform="translate(399,109)"/>
<path d="M0 0 C0.33 0.66 0.66 1.32 1 2 C-6.42857143 3.28571429 -6.42857143 3.28571429 -10 2 C-6.49223216 0.39644899 -3.85645121 -0.22036864 0 0 Z " fill="#3DEAB0" transform="translate(452,75)"/>
</svg>
