<?xml version="1.0" encoding="UTF-8"?>
<svg version="1.1" xmlns="http://www.w3.org/2000/svg" width="512" height="512">
<path d="M0 0 C21.55119001 18.07806435 36.93298939 38.57646901 45.2109375 65.62890625 C45.44973633 66.4077417 45.68853516 67.18657715 45.93457031 67.98901367 C52.31122161 90.12965134 52.16851533 115.25613051 45.8359375 137.37890625 C45.52245361 138.47501221 45.52245361 138.47501221 45.20263672 139.59326172 C37.30938588 166.08738681 20.87764848 185.53713716 1.61617661 204.67383194 C-0.40522216 206.682272 -2.42330933 208.6939901 -4.44064331 210.70651245 C-8.72061783 214.9751575 -13.00453792 219.23982884 -17.2890625 223.50390625 C-22.26693568 228.45806597 -27.24311636 233.41390212 -32.21508408 238.37398911 C-34.19097813 240.34346289 -36.16988785 242.30987046 -38.1489563 244.27615356 C-43.38346123 249.4894738 -48.53780414 254.68430663 -53.328125 260.31365967 C-57.85202796 265.40259931 -62.77945076 270.13668391 -67.59765625 274.9453125 C-68.80174577 276.15007725 -70.00568694 277.35499027 -71.20948792 278.56004333 C-73.72177875 281.07380083 -76.2358494 283.58576062 -78.7512207 286.09643555 C-81.95638746 289.29590567 -85.15704266 292.49984543 -88.35636806 295.70515537 C-90.8382768 298.1906977 -93.32258714 300.67382867 -95.80760384 303.15626335 C-96.98794765 304.33594563 -98.1675645 305.51635579 -99.34640312 306.69754219 C-109.66887531 317.03606341 -109.66887531 317.03606341 -114.12915039 320.83081055 C-119.54600702 325.46252911 -124.45686005 330.62928074 -129.44741821 335.70935822 C-131.98181435 338.28645486 -134.52608972 340.85370803 -137.06971741 343.42168808 C-141.78440524 348.18170771 -146.49527976 352.94533425 -151.18896484 357.72607422 C-154.47436228 361.07163359 -157.77250502 364.40418113 -161.07879639 367.72908783 C-162.32066495 368.98252415 -163.55804499 370.24042753 -164.79034424 371.50327301 C-189.95427987 397.27470895 -222.55430686 411.77358969 -258.7265625 412.56640625 C-289.80607428 412.16589708 -319.69981062 402.0388073 -343.1640625 381.37890625 C-344.42669922 380.31542969 -344.42669922 380.31542969 -345.71484375 379.23046875 C-370.17878379 358.15267282 -384.73706161 327.36368579 -387.7890625 295.44140625 C-390.23406376 260.72238831 -380.69027941 226.80751521 -357.78472495 200.19135404 C-351.32703052 192.96947142 -344.31389112 186.23389616 -337.46411133 179.38842773 C-335.56394274 177.48226724 -333.66415798 175.57573077 -331.76480103 173.66876221 C-327.15957391 169.04701736 -322.54889449 164.43075039 -317.93596146 159.81669789 C-314.18248801 156.06226982 -310.4306068 152.30625785 -306.67981529 148.54915047 C-296.01765708 137.86940724 -285.35134528 127.19383761 -274.67963902 116.52363514 C-274.10594164 115.95001767 -273.53224426 115.37640021 -272.94116211 114.78540039 C-272.36675409 114.21107413 -271.79234607 113.63674787 -271.20053174 113.04501779 C-261.89381915 103.73911794 -252.59712447 94.42328113 -243.30492751 85.10288905 C-233.73644565 75.50560579 -224.16045029 65.91587543 -214.57669467 56.33384377 C-209.20718933 50.96499969 -203.84074523 45.59317933 -198.48240089 40.21319389 C-193.92068983 35.63317546 -189.35197369 31.06028559 -184.77435372 26.49616557 C-182.44450155 24.17279439 -180.11896976 21.84538546 -177.80002022 19.51112556 C-165.49991894 7.13513628 -153.39650682 -3.9302297 -137.7265625 -11.93359375 C-136.9214624 -12.34818848 -136.1163623 -12.7627832 -135.28686523 -13.18994141 C-128.11254204 -16.79592113 -120.94767231 -19.58667594 -113.1640625 -21.62109375 C-112.113396 -21.91089111 -112.113396 -21.91089111 -111.04150391 -22.20654297 C-73.44728758 -32.27715635 -30.6534101 -24.14480933 0 0 Z " fill="#F44336" transform="translate(427.1640625,60.62109375)"/>
<path d="M0 0 C2.93833498 1.32612525 5.01391473 2.7646345 7.28770065 5.041605 C7.91919266 5.6691149 8.55068466 6.29662481 9.20131278 6.94315016 C9.88614116 7.63380422 10.57096954 8.32445829 11.27655029 9.03604126 C12.01092386 9.76870598 12.74529744 10.5013707 13.50192475 11.25623739 C15.96797856 13.71899001 18.42680379 16.18883586 20.88574219 18.65869141 C22.64942706 20.42294026 24.41355212 22.18674916 26.17808533 23.95014954 C29.97936978 27.75097816 33.77756384 31.55485483 37.57299042 35.3615303 C43.06054378 40.86533709 48.55361084 46.36361357 54.0480397 51.86055557 C62.9622129 60.77910612 71.87191053 69.70211394 80.77880859 78.62792969 C89.43108758 87.29856644 98.08546445 95.96710033 106.74267578 104.6328125 C107.2762971 105.16695926 107.80991841 105.70110602 108.35971007 106.25143905 C111.03674187 108.93108092 113.71381501 111.61068148 116.39090872 114.29026151 C138.60035346 136.52043999 160.80246607 158.75792788 183 181 C182.05849099 182.10741746 181.11567875 183.21372701 180.17233276 184.31958008 C179.64744703 184.93577713 179.1225613 185.55197418 178.58176994 186.18684387 C176.30714619 188.7942066 173.89001355 191.23981188 171.4453125 193.6875 C170.9400705 194.19369873 170.43482849 194.69989746 169.91427612 195.22143555 C168.85504767 196.28133819 167.79458079 197.34000457 166.73291016 198.39746094 C165.13198611 199.99303722 163.53646316 201.5938734 161.94140625 203.1953125 C160.90136199 204.23469563 159.86100739 205.27376833 158.8203125 206.3125 C157.89492676 207.23675781 156.96954102 208.16101563 156.01611328 209.11328125 C153.90117861 211.18070915 151.70952098 213.11483959 149.45654297 215.03027344 C143.92054643 219.83535621 138.85035823 225.10465082 133.71664429 230.33045197 C131.18224815 232.90754861 128.63797278 235.47480178 126.09434509 238.04278183 C121.37965726 242.80280146 116.66878274 247.566428 111.97509766 252.34716797 C108.68970022 255.69272734 105.39155748 259.02527488 102.08526611 262.35018158 C100.84339755 263.6036179 99.60601751 264.86152128 98.37371826 266.12436676 C73.20978263 291.8958027 40.60975564 306.39468344 4.4375 307.1875 C-26.64201178 306.78699083 -56.53574812 296.65990105 -80 276 C-81.26263672 274.93652344 -81.26263672 274.93652344 -82.55078125 273.8515625 C-107.01472129 252.77376657 -121.57299911 221.98477954 -124.625 190.0625 C-127.17116432 153.90696666 -116.60439609 120.57574215 -93 93 C-89.89573287 89.65327383 -86.68255044 86.42766202 -83.44116211 83.21411133 C-82.53276581 82.30542297 -81.62436951 81.39673462 -80.68844604 80.46051025 C-78.23276754 78.00426542 -75.77103843 75.55417186 -73.30804896 73.10526109 C-70.72195714 70.53179874 -68.14164955 67.95254904 -65.5606842 65.37394714 C-60.68822114 60.50766336 -55.81068959 55.64649377 -50.93124729 50.78720921 C-45.36970755 45.24814003 -39.81394705 39.70328926 -34.25862873 34.15798151 C-22.84543635 22.76561053 -11.42512469 11.38040461 0 0 Z " fill="#ECEFF1" transform="translate(164,166)"/>
<path d="M0 0 C11.13365321 4.42993948 18.77742863 19.37406856 23.43554688 29.71582031 C30.88065901 47.1162442 32.4548206 70.21750177 25.51953125 88.1875 C24.96568094 89.46501323 24.39649222 90.73598129 23.8125 92 C23.50570312 92.67933594 23.19890625 93.35867187 22.8828125 94.05859375 C17.93223107 104.74780836 11.30093797 117.48572234 -0.02734375 122.375 C-3.86172386 123.58985311 -7.07480543 123.75951769 -10.8515625 122.26953125 C-15.8253359 119.67681959 -19.19288315 116.42135055 -21 111 C-21.59021869 106.79375796 -21.92533372 102.76143883 -19.90625 98.91796875 C-18.34221117 96.87556698 -16.68370711 94.94471847 -15 93 C-4.81702203 79.40121297 -2.75560203 67.79589663 -4 51 C-5.56181516 42.79576616 -9.98667306 36.52596869 -15 30 C-16.12625579 28.52178928 -17.25135016 27.04269258 -18.375 25.5625 C-18.85710937 24.94503906 -19.33921875 24.32757813 -19.8359375 23.69140625 C-22.41235129 19.94782514 -22.29326391 16.39895871 -22 12 C-20.32880836 6.81051018 -18.54193631 4.02795754 -14 1 C-9.73902302 -1.13048849 -4.61678714 -0.57126912 0 0 Z " fill="#FE897F" transform="translate(397,104)"/>
</svg>
