<svg width="12" height="7" viewBox="0 0 12 7" fill="none" xmlns="http://www.w3.org/2000/svg">
    <mask id="path-1-inside-1_3598_1794" fill="white">
        <path
            d="M11.5917 0.841713C11.5142 0.763606 11.422 0.701611 11.3205 0.659304C11.2189 0.616997 11.11 0.595215 11 0.595215C10.89 0.595215 10.7811 0.616997 10.6795 0.659304C10.578 0.701611 10.4858 0.763606 10.4083 0.841713L6.59168 4.65838C6.51421 4.73649 6.42204 4.79848 6.32049 4.84079C6.21894 4.8831 6.11002 4.90488 6.00001 4.90488C5.89 4.90488 5.78108 4.8831 5.67953 4.84079C5.57798 4.79848 5.48581 4.73649 5.40834 4.65838L1.59168 0.841713C1.51421 0.763606 1.42204 0.701611 1.32049 0.659304C1.21894 0.616997 1.11002 0.595215 1.00001 0.595215C0.89 0.595215 0.781078 0.616997 0.679529 0.659304C0.577979 0.701611 0.485812 0.763606 0.408343 0.841713C0.253134 0.997849 0.166016 1.20906 0.166016 1.42921C0.166016 1.64937 0.253134 1.86058 0.408343 2.01671L4.23334 5.84171C4.70209 6.30988 5.33751 6.57285 6.00001 6.57285C6.66251 6.57285 7.29792 6.30988 7.76668 5.84171L11.5917 2.01671C11.7469 1.86058 11.834 1.64937 11.834 1.42921C11.834 1.20906 11.7469 0.997849 11.5917 0.841713Z" />
    </mask>
    <path
        d="M11.5917 0.841713C11.5142 0.763606 11.422 0.701611 11.3205 0.659304C11.2189 0.616997 11.11 0.595215 11 0.595215C10.89 0.595215 10.7811 0.616997 10.6795 0.659304C10.578 0.701611 10.4858 0.763606 10.4083 0.841713L6.59168 4.65838C6.51421 4.73649 6.42204 4.79848 6.32049 4.84079C6.21894 4.8831 6.11002 4.90488 6.00001 4.90488C5.89 4.90488 5.78108 4.8831 5.67953 4.84079C5.57798 4.79848 5.48581 4.73649 5.40834 4.65838L1.59168 0.841713C1.51421 0.763606 1.42204 0.701611 1.32049 0.659304C1.21894 0.616997 1.11002 0.595215 1.00001 0.595215C0.89 0.595215 0.781078 0.616997 0.679529 0.659304C0.577979 0.701611 0.485812 0.763606 0.408343 0.841713C0.253134 0.997849 0.166016 1.20906 0.166016 1.42921C0.166016 1.64937 0.253134 1.86058 0.408343 2.01671L4.23334 5.84171C4.70209 6.30988 5.33751 6.57285 6.00001 6.57285C6.66251 6.57285 7.29792 6.30988 7.76668 5.84171L11.5917 2.01671C11.7469 1.86058 11.834 1.64937 11.834 1.42921C11.834 1.20906 11.7469 0.997849 11.5917 0.841713Z"
        fill="#93909B" />
    <path
        d="M11.5917 0.841713L-3.55499 15.8647L-3.54654 15.8732L-3.53808 15.8817L11.5917 0.841713ZM10.4083 0.841713L25.4933 15.9267L25.5242 15.8957L25.555 15.8647L10.4083 0.841713ZM6.59168 4.65838L-8.49327 -10.4266L-8.52419 -10.3956L-8.55499 -10.3646L6.59168 4.65838ZM5.40834 4.65838L20.555 -10.3646L20.5242 -10.3956L20.4933 -10.4266L5.40834 4.65838ZM1.59168 0.841713L-13.555 15.8647L-13.5242 15.8957L-13.4933 15.9267L1.59168 0.841713ZM0.408343 0.841713L15.5381 15.8817L15.5466 15.8732L15.555 15.8647L0.408343 0.841713ZM0.166016 1.42921H-21.1673H0.166016ZM0.408343 2.01671L-14.7214 17.0567L-14.699 17.0792L-14.6766 17.1017L0.408343 2.01671ZM4.23334 5.84171L-10.8516 20.9267L-10.8422 20.936L4.23334 5.84171ZM6.00001 6.57285V27.9062V6.57285ZM7.76668 5.84171L22.8422 20.936L22.8516 20.9267L7.76668 5.84171ZM11.5917 2.01671L26.6766 17.1017L26.6991 17.0792L26.7214 17.0567L11.5917 2.01671ZM26.7383 -14.1813C24.6777 -16.2588 22.2261 -17.9079 19.5248 -19.0333L3.11619 20.352C0.617993 19.3112 -1.64931 17.7861 -3.55499 15.8647L26.7383 -14.1813ZM19.5248 -19.0333C16.8236 -20.1587 13.9262 -20.7381 11 -20.7381V21.9285C8.2938 21.9285 5.61433 21.3927 3.11619 20.352L19.5248 -19.0333ZM11 -20.7381C8.07378 -20.7381 5.17647 -20.1587 2.47523 -19.0333L18.8838 20.352C16.3857 21.3927 13.7062 21.9285 11 21.9285V-20.7381ZM2.47523 -19.0333C-0.226067 -17.9079 -2.67771 -16.2588 -4.73832 -14.1813L25.555 15.8647C23.6493 17.7861 21.382 19.3112 18.8838 20.352L2.47523 -19.0333ZM-4.6766 -14.2432L-8.49327 -10.4266L21.6766 19.7433L25.4933 15.9267L-4.6766 -14.2432ZM-8.55499 -10.3646C-6.64924 -12.286 -4.38191 -13.8111 -1.88381 -14.8519L14.5248 24.5334C17.226 23.4081 19.6777 21.759 21.7383 19.6814L-8.55499 -10.3646ZM-1.88381 -14.8519C0.614284 -15.8926 3.29374 -16.4285 6.00001 -16.4285V26.2382C8.9263 26.2382 11.8236 25.6588 14.5248 24.5334L-1.88381 -14.8519ZM6.00001 -16.4285C8.70627 -16.4285 11.3857 -15.8926 13.8838 -14.8519L-2.52477 24.5334C0.176421 25.6588 3.07372 26.2382 6.00001 26.2382V-16.4285ZM13.8838 -14.8519C16.3819 -13.8111 18.6493 -12.286 20.555 -10.3646L-9.73832 19.6814C-7.67763 21.759 -5.22597 23.4081 -2.52477 24.5334L13.8838 -14.8519ZM20.4933 -10.4266L16.6766 -14.2432L-13.4933 15.9267L-9.6766 19.7433L20.4933 -10.4266ZM16.7383 -14.1813C14.6777 -16.2589 12.226 -17.908 9.52479 -19.0333L-6.88381 20.352C-9.38195 19.3112 -11.6493 17.7861 -13.555 15.8647L16.7383 -14.1813ZM9.52479 -19.0333C6.82355 -20.1587 3.92624 -20.7381 1.00001 -20.7381V21.9285C-1.7062 21.9285 -4.38567 21.3927 -6.88381 20.352L9.52479 -19.0333ZM1.00001 -20.7381C-1.92622 -20.7381 -4.82353 -20.1587 -7.52477 -19.0333L8.88383 20.352C6.38569 21.3927 3.70622 21.9285 1.00001 21.9285V-20.7381ZM-7.52477 -19.0333C-10.226 -17.908 -12.6777 -16.2589 -14.7383 -14.1813L15.555 15.8647C13.6493 17.7861 11.382 19.3112 8.88383 20.352L-7.52477 -19.0333ZM-14.7214 -14.1983C-18.85 -10.0451 -21.1673 -4.42689 -21.1673 1.42921H21.4993C21.4993 6.84501 19.3563 12.0408 15.5381 15.8817L-14.7214 -14.1983ZM-21.1673 1.42921C-21.1673 7.28532 -18.85 12.9035 -14.7214 17.0567L15.5381 -13.0233C19.3563 -9.18235 21.4993 -3.98658 21.4993 1.42921H-21.1673ZM-14.6766 17.1017L-10.8516 20.9267L19.3183 -9.24323L15.4933 -13.0682L-14.6766 17.1017ZM-10.8422 20.936C-6.37346 25.3992 -0.31585 27.9062 6.00001 27.9062V-14.7605C10.9909 -14.7605 15.7776 -12.7795 19.3089 -9.25261L-10.8422 20.936ZM6.00001 27.9062C12.3159 27.9062 18.3735 25.3992 22.8422 20.936L-7.30888 -9.25261C-3.77762 -12.7795 1.00915 -14.7605 6.00001 -14.7605V27.9062ZM22.8516 20.9267L26.6766 17.1017L-3.49327 -13.0682L-7.31827 -9.24323L22.8516 20.9267ZM26.7214 17.0567C30.8499 12.9036 33.1673 7.28542 33.1673 1.42921H-9.49933C-9.49933 -3.98669 -7.35616 -9.18242 -3.53808 -13.0233L26.7214 17.0567ZM33.1673 1.42921C33.1673 -4.427 30.8499 -10.0452 26.7214 -14.1983L-3.53808 15.8817C-7.35616 12.0408 -9.49933 6.84511 -9.49933 1.42921H33.1673Z"
        fill="#93909B" mask="url(#path-1-inside-1_3598_1794)" />
</svg>