<svg width="70" height="70" viewBox="0 0 70 70" fill="none" xmlns="http://www.w3.org/2000/svg">
<circle cx="35" cy="35" r="35" fill="#FAFAFA"/>
<path d="M43.8593 36.128C43.4048 37.9186 41.2572 39.184 36.9616 41.7148C32.8091 44.1612 30.733 45.3845 29.0598 44.8928C28.368 44.6894 27.7378 44.3034 27.2294 43.7716C26 42.4852 26 39.9901 26 35C26 30.0099 26 27.5148 27.2294 26.2284C27.7378 25.6966 28.368 25.3105 29.0598 25.1072C30.733 24.6155 32.8091 25.8388 36.9616 28.2852C41.2572 30.816 43.4048 32.0813 43.8593 33.872C44.0469 34.6112 44.0469 35.3888 43.8593 36.128Z" fill="black"/>
</svg>
