<svg width="20" height="20" viewBox="0 0 20 20" fill="none" xmlns="http://www.w3.org/2000/svg">
<path d="M17.0832 14.1075V8.33366C17.0832 5.19096 17.0832 3.61962 16.1068 2.6433C15.1306 1.66699 13.5592 1.66699 10.4165 1.66699H9.58317C6.44047 1.66699 4.86913 1.66699 3.89281 2.6433C2.9165 3.61962 2.9165 5.19096 2.9165 8.33366V16.2503" stroke="#56555A" stroke-width="1.5" stroke-linecap="round"/>
<path d="M17.0832 14.167H4.99984C3.84925 14.167 2.9165 15.0997 2.9165 16.2503C2.9165 17.4009 3.84925 18.3337 4.99984 18.3337H17.0832" stroke="#56555A" stroke-width="1.5" stroke-linecap="round"/>
<path d="M17.0833 14.167C15.9328 14.167 15 15.0997 15 16.2503C15 17.4009 15.9328 18.3337 17.0833 18.3337" stroke="#56555A" stroke-width="1.5" stroke-linecap="round"/>
<path d="M12.4676 8.19898C12.3624 8.64666 11.8652 8.96299 10.8709 9.59566C9.90966 10.2073 9.42908 10.5131 9.04175 10.3902C8.88166 10.3393 8.73575 10.2428 8.61808 10.1099C8.3335 9.78833 8.3335 9.16449 8.3335 7.91699C8.3335 6.66946 8.3335 6.04569 8.61808 5.7241C8.73575 5.59114 8.88166 5.49462 9.04175 5.4438C9.42908 5.32087 9.90966 5.62668 10.8709 6.2383C11.8652 6.87098 12.3624 7.18732 12.4676 7.635C12.511 7.81978 12.511 8.0142 12.4676 8.19898Z" stroke="#56555A" stroke-width="1.5" stroke-linejoin="round"/>
</svg>
