<svg width="41" height="40" viewBox="0 0 41 40" fill="none" xmlns="http://www.w3.org/2000/svg">
<g id="calendar-setting-sfill">
<path id="Rectangle 1416" d="M5.5 8C5.5 6.34315 6.84315 5 8.5 5H32.5C34.1569 5 35.5 6.34315 35.5 8V15H5.5V8Z" fill="#93909B"/>
<path id="Vector" d="M30.5 3.33337V6.66671M10.5 3.33337V6.66671" stroke="#93909B" stroke-width="1.5" stroke-linecap="round" stroke-linejoin="round"/>
<path id="Vector_2" d="M36.3327 19.1667C36.326 12.7227 36.211 9.38005 34.2463 7.25607C32.1595 5 28.8007 5 22.0832 5H18.9165C12.199 5 8.84024 5 6.75337 7.25607C4.6665 9.51213 4.6665 13.1432 4.6665 20.4053V21.2613C4.6665 28.5235 4.6665 32.1545 6.75337 34.4107C8.75205 36.5713 11.841 36.6627 17.9998 36.6665" stroke="#93909B" stroke-width="1.5" stroke-linecap="round" stroke-linejoin="round"/>
<path id="Vector_3" d="M5.5 13.3334H35.5" stroke="#93909B" stroke-width="1.5" stroke-linecap="round" stroke-linejoin="round"/>
<path id="Vector_4" d="M29.6667 34.5238V36.6666M29.6667 34.5238C27.7387 34.5238 26.0402 33.5768 25.0438 32.1388M29.6667 34.5238C31.5947 34.5238 33.2932 33.5768 34.2895 32.1388M25.0438 32.1388L23.0007 33.4523M25.0438 32.1388C24.4547 31.2883 24.1112 30.2661 24.1112 29.1666C24.1112 28.0671 24.4545 27.0451 25.0437 26.1948M34.2895 32.1388L36.3327 33.4523M34.2895 32.1388C34.8787 31.2883 35.2222 30.2661 35.2222 29.1666C35.2222 28.0671 34.8788 27.0451 34.2897 26.1948M29.6667 23.8095C31.5948 23.8095 33.2935 24.7566 34.2897 26.1948M29.6667 23.8095C27.7385 23.8095 26.0398 24.7566 25.0437 26.1948M29.6667 23.8095V21.6666M34.2897 26.1948L36.3333 24.881M25.0437 26.1948L23 24.881" stroke="#93909B" stroke-width="1.5" stroke-linecap="round"/>
</g>
</svg>
