<svg width="98" height="98" viewBox="0 0 98 98" fill="none" xmlns="http://www.w3.org/2000/svg">
<path d="M49 98C76.062 98 98 76.062 98 49C98 21.938 76.062 0 49 0C21.938 0 0 21.938 0 49C0 76.062 21.938 98 49 98Z" fill="#FEE3E2"/>
<path d="M49.3698 87.3167C70.327 87.3167 87.3162 70.3275 87.3162 49.3703C87.3162 28.413 70.327 11.4238 49.3698 11.4238C28.4125 11.4238 11.4233 28.413 11.4233 49.3703C11.4233 70.3275 28.4125 87.3167 49.3698 87.3167Z" fill="#FCA2A5" fill-opacity="0.51"/>
<g clip-path="url(#clip0_1957_12421)">
<path d="M49.2766 76.9093C64.5375 76.9093 76.909 64.5379 76.909 49.2769C76.909 34.016 64.5375 21.6445 49.2766 21.6445C34.0156 21.6445 21.6442 34.016 21.6442 49.2769C21.6442 64.5379 34.0156 76.9093 49.2766 76.9093Z" fill="#E73238"/>
<path d="M55.4021 49.2777L63.6832 40.9966C63.9067 40.7732 64.084 40.5079 64.205 40.216C64.326 39.924 64.3883 39.611 64.3883 39.295C64.3883 38.9789 64.326 38.666 64.205 38.374C64.084 38.082 63.9067 37.8167 63.6832 37.5933L60.961 34.8711C60.7375 34.6476 60.4723 34.4702 60.1803 34.3493C59.8883 34.2283 59.5753 34.166 59.2593 34.166C58.9433 34.166 58.6303 34.2283 58.3383 34.3493C58.0463 34.4702 57.7811 34.6476 57.5576 34.8711L49.2766 43.1522L40.9955 34.8711C40.772 34.6476 40.5068 34.4702 40.2148 34.3493C39.9228 34.2283 39.6099 34.166 39.2938 34.166C38.9778 34.166 38.6648 34.2283 38.3728 34.3493C38.0809 34.4702 37.8156 34.6476 37.5922 34.8711L34.8699 37.5933C34.6464 37.8167 34.4691 38.082 34.3481 38.374C34.2271 38.666 34.1649 38.9789 34.1649 39.295C34.1649 39.611 34.2271 39.924 34.3481 40.216C34.4691 40.5079 34.6464 40.7732 34.8699 40.9966L43.151 49.2777L34.8699 57.5588C34.6464 57.7822 34.4691 58.0475 34.3481 58.3395C34.2271 58.6315 34.1649 58.9444 34.1649 59.2605C34.1649 59.5765 34.2271 59.8895 34.3481 60.1814C34.4691 60.4734 34.6464 60.7387 34.8699 60.9621L37.5922 63.6843C37.8156 63.9079 38.0809 64.0852 38.3728 64.2062C38.6648 64.3271 38.9778 64.3894 39.2938 64.3894C39.6099 64.3894 39.9228 64.3271 40.2148 64.2062C40.5068 64.0852 40.772 63.9079 40.9955 63.6843L49.2766 55.4033L57.5576 63.6843C57.7811 63.9079 58.0463 64.0852 58.3383 64.2062C58.6303 64.3271 58.9433 64.3894 59.2593 64.3894C59.5753 64.3894 59.8883 64.3271 60.1803 64.2062C60.4723 64.0852 60.7375 63.9079 60.961 63.6843L63.6832 60.9621C63.9067 60.7387 64.084 60.4734 64.205 60.1814C64.326 59.8895 64.3883 59.5765 64.3883 59.2605C64.3883 58.9444 64.326 58.6315 64.205 58.3395C64.084 58.0475 63.9067 57.7822 63.6832 57.5588L55.4021 49.2777Z" fill="white"/>
</g>
<defs>
<clipPath id="clip0_1957_12421">
<rect width="55.2648" height="55.2648" fill="white" transform="translate(21.6442 21.6445)"/>
</clipPath>
</defs>
</svg>
