<svg width="16" height="17" viewBox="0 0 16 17" fill="none" xmlns="http://www.w3.org/2000/svg">
<path d="M1.66797 8.49984C1.66797 5.51428 1.66797 4.0215 2.59546 3.094C3.52296 2.1665 5.01574 2.1665 8.0013 2.1665C10.9868 2.1665 12.4796 2.1665 13.4072 3.094C14.3346 4.0215 14.3346 5.51428 14.3346 8.49984C14.3346 11.4854 14.3346 12.9782 13.4072 13.9057C12.4796 14.8332 10.9868 14.8332 8.0013 14.8332C5.01574 14.8332 3.52296 14.8332 2.59546 13.9057C1.66797 12.9782 1.66797 11.4854 1.66797 8.49984Z" stroke="url(#paint0_linear_2851_87455)" stroke-width="1.5"/>
<path d="M5.33203 9.66667C5.33203 9.66667 6.3987 10.275 6.93203 11.1667C6.93203 11.1667 8.53203 7.66667 10.6654 6.5" stroke="#333135" stroke-width="1.5" stroke-linecap="round" stroke-linejoin="round"/>
<defs>
<linearGradient id="paint0_linear_2851_87455" x1="1.82152" y1="8.87005" x2="17.5451" y2="9.94675" gradientUnits="userSpaceOnUse">
<stop stop-color="#5632BD"/>
<stop offset="1" stop-color="#33B1E7"/>
</linearGradient>
</defs>
</svg>
