<svg width="52" height="52" viewBox="0 0 52 52" fill="none" xmlns="http://www.w3.org/2000/svg">
<circle cx="26" cy="26" r="26" fill="#F2F5FC"/>
<path d="M39 37.8726C37.3593 39.5719 35.4107 40.92 33.2659 41.8398C31.121 42.7596 28.8219 43.233 26.5 43.233C24.1781 43.233 21.879 42.7596 19.7341 41.8398C17.5893 40.92 15.6407 39.5719 14 37.8726C14 36.7005 14.2232 35.5399 14.6568 34.457C15.0905 33.3741 15.7261 32.3902 16.5274 31.5614C17.3287 30.7326 18.2799 30.0752 19.3269 29.6266C20.3738 29.1781 21.4959 28.9472 22.6291 28.9473H30.3709C31.5041 28.9472 32.6262 29.1781 33.6731 29.6266C34.7201 30.0752 35.6713 30.7326 36.4726 31.5614C37.2739 32.3902 37.9095 33.3741 38.3432 34.457C38.7768 35.5399 39 36.7005 39 37.8726Z" fill="#F9C916"/>
<path d="M26.5003 25.3751C31.4315 25.3751 35.4289 21.7774 35.4289 17.3394C35.4289 12.9014 31.4315 9.30371 26.5003 9.30371C21.5692 9.30371 17.5718 12.9014 17.5718 17.3394C17.5718 21.7774 21.5692 25.3751 26.5003 25.3751Z" fill="#F9C916"/>
</svg>
