<svg width="23" height="24" viewBox="0 0 23 24" fill="none" xmlns="http://www.w3.org/2000/svg">
<path d="M20.2358 14.53L15.6525 19.53C15.5896 19.6037 15.5137 19.6628 15.4293 19.7038C15.345 19.7448 15.254 19.7668 15.1617 19.7686C15.0693 19.7704 14.9776 19.7519 14.892 19.7142C14.8064 19.6764 14.7287 19.6203 14.6634 19.5491C14.5981 19.4779 14.5466 19.393 14.5121 19.2996C14.4775 19.2062 14.4605 19.1062 14.4621 19.0055C14.4638 18.9048 14.484 18.8055 14.5215 18.7135C14.5591 18.6215 14.6133 18.5387 14.6808 18.47L18.0899 14.75H6.00001C5.81767 14.75 5.6428 14.671 5.51387 14.5304C5.38494 14.3897 5.31251 14.1989 5.31251 14C5.31251 13.8011 5.38494 13.6104 5.51387 13.4697C5.6428 13.329 5.81767 13.25 6.00001 13.25H19.75C19.8859 13.2502 20.0187 13.2942 20.1316 13.3766C20.2446 13.4591 20.3326 13.5761 20.3846 13.7131C20.4366 13.8501 20.4502 14.0008 20.4237 14.1462C20.3972 14.2916 20.3319 14.4251 20.2358 14.53ZM17.6875 9.00003C17.6875 8.80112 17.6151 8.61035 17.4861 8.4697C17.3572 8.32905 17.1823 8.25003 17 8.25003H4.91009L8.31917 4.53003C8.38672 4.46137 8.4409 4.37857 8.47847 4.28657C8.51605 4.19457 8.53625 4.09526 8.53788 3.99455C8.53951 3.89385 8.52253 3.79382 8.48795 3.70043C8.45337 3.60705 8.40191 3.52221 8.33662 3.45099C8.27134 3.37977 8.19358 3.32363 8.10797 3.28591C8.02236 3.24819 7.93067 3.22966 7.83836 3.23144C7.74605 3.23322 7.65501 3.25526 7.57068 3.29625C7.48635 3.33724 7.41045 3.39634 7.34751 3.47003L2.76417 8.47003C2.66815 8.57492 2.60277 8.7085 2.57629 8.8539C2.54981 8.99929 2.56342 9.14999 2.61541 9.28695C2.6674 9.42392 2.75542 9.541 2.86837 9.62342C2.98132 9.70584 3.11412 9.7499 3.25001 9.75003H17C17.1823 9.75003 17.3572 9.67101 17.4861 9.53036C17.6151 9.38971 17.6875 9.19894 17.6875 9.00003Z" fill="#7C7C7C"/>
</svg>
