<svg width="20" height="20" viewBox="0 0 20 20" fill="none" xmlns="http://www.w3.org/2000/svg">
<path d="M1.6665 9.99967C1.6665 7.05177 1.6665 5.57782 2.54384 4.59376C2.68416 4.43637 2.83882 4.2908 3.00605 4.15873C4.05161 3.33301 5.61769 3.33301 8.74984 3.33301H11.2498C14.382 3.33301 15.9481 3.33301 16.9936 4.15873C17.1608 4.2908 17.3155 4.43637 17.4558 4.59376C18.3332 5.57782 18.3332 7.05177 18.3332 9.99967C18.3332 12.9476 18.3332 14.4215 17.4558 15.4056C17.3155 15.563 17.1608 15.7085 16.9936 15.8406C15.9481 16.6663 14.382 16.6663 11.2498 16.6663H8.74984C5.61769 16.6663 4.05161 16.6663 3.00605 15.8406C2.83882 15.7085 2.68416 15.563 2.54384 15.4056C1.6665 14.4215 1.6665 12.9476 1.6665 9.99967Z" stroke="#56555A" stroke-width="1.5" stroke-linecap="round" stroke-linejoin="round"/>
<path d="M8.3335 13.333H9.5835" stroke="#56555A" stroke-width="1.5" stroke-miterlimit="10" stroke-linecap="round" stroke-linejoin="round"/>
<path d="M12.0835 13.333H15.0002" stroke="#56555A" stroke-width="1.5" stroke-miterlimit="10" stroke-linecap="round" stroke-linejoin="round"/>
<path d="M1.6665 7.5H18.3332" stroke="#56555A" stroke-width="1.5" stroke-linejoin="round"/>
</svg>
