<svg width="20" height="21" viewBox="0 0 20 21" fill="none" xmlns="http://www.w3.org/2000/svg">
<path d="M16.25 5.08301L15.7336 13.4373C15.6016 15.5717 15.5357 16.6389 15.0007 17.4063C14.7361 17.7856 14.3956 18.1058 14.0006 18.3463C13.2017 18.833 12.1325 18.833 9.99392 18.833C7.8526 18.833 6.78192 18.833 5.98254 18.3454C5.58733 18.1044 5.24667 17.7837 4.98223 17.4037C4.4474 16.6352 4.38287 15.5664 4.25384 13.429L3.75 5.08301" stroke="#FB7A6E" stroke-width="1.5" stroke-linecap="round"/>
<path d="M7.5 10.2793H12.5" stroke="#FB7A6E" stroke-width="1.5" stroke-linecap="round"/>
<path d="M8.75 13.5449H11.25" stroke="#FB7A6E" stroke-width="1.5" stroke-linecap="round"/>
<path d="M2.5 5.08366H17.5M13.3796 5.08366L12.8107 3.9101C12.4328 3.13054 12.2438 2.74076 11.9179 2.49767C11.8457 2.44374 11.7691 2.39578 11.689 2.35424C11.3281 2.16699 10.8949 2.16699 10.0286 2.16699C9.1405 2.16699 8.6965 2.16699 8.32957 2.36209C8.24826 2.40533 8.17066 2.45524 8.09758 2.5113C7.76787 2.76424 7.5837 3.16828 7.21535 3.97638L6.71061 5.08366" stroke="#FB7A6E" stroke-width="1.5" stroke-linecap="round"/>
</svg>
