<svg width="98" height="98" viewBox="0 0 98 98" fill="none" xmlns="http://www.w3.org/2000/svg">
<path d="M49 98C76.062 98 98 76.062 98 49C98 21.938 76.062 0 49 0C21.938 0 0 21.938 0 49C0 76.062 21.938 98 49 98Z" fill="#FEE3E2"/>
<path d="M49.3697 87.3167C70.3269 87.3167 87.3161 70.3275 87.3161 49.3703C87.3161 28.413 70.3269 11.4238 49.3697 11.4238C28.4124 11.4238 11.4232 28.413 11.4232 49.3703C11.4232 70.3275 28.4124 87.3167 49.3697 87.3167Z" fill="#FCA2A5" fill-opacity="0.51"/>
<path d="M68.3217 66.735H29.6787C29.0066 66.7349 28.3464 66.5584 27.7645 66.2231C27.1826 65.8878 26.6996 65.4056 26.364 64.8251C26.0284 64.2445 25.8522 63.586 25.8529 62.916C25.8537 62.2459 26.0314 61.5878 26.3683 61.008L45.6901 27.7541C46.0262 27.1755 46.509 26.6952 47.09 26.3613C47.671 26.0273 48.3298 25.8516 49.0004 25.8516C49.6711 25.8516 50.3299 26.0273 50.9109 26.3613C51.4919 26.6952 51.9747 27.1755 52.3108 27.7541L71.6326 61.009C71.9692 61.5888 72.1468 62.2468 72.1474 62.9168C72.148 63.5868 71.9716 64.2451 71.636 64.8255C71.3004 65.406 70.8174 65.888 70.2356 66.2232C69.6537 66.5584 68.9937 66.7349 68.3217 66.735Z" fill="#E73238"/>
<path d="M49.0002 51.7552C48.3785 51.7552 47.781 51.5139 47.3337 51.082C46.8863 50.6502 46.6241 50.0616 46.6021 49.4403L46.2698 40.0141C46.2568 39.6474 46.3178 39.2819 46.4492 38.9393C46.5806 38.5967 46.7796 38.2841 47.0345 38.0201C47.2893 37.7561 47.5947 37.5462 47.9324 37.4028C48.2702 37.2594 48.6333 37.1855 49.0002 37.1855C49.3672 37.1855 49.7303 37.2594 50.068 37.4028C50.4058 37.5462 50.7112 37.7561 50.966 38.0201C51.2208 38.2841 51.4199 38.5967 51.5513 38.9393C51.6826 39.2819 51.7437 39.6474 51.7307 40.0141L51.3984 49.4403C51.3764 50.0616 51.1141 50.6502 50.6668 51.082C50.2195 51.5139 49.622 51.7552 49.0002 51.7552Z" fill="white"/>
<path d="M49.0004 60.4976C50.3691 60.4976 51.4786 59.388 51.4786 58.0193C51.4786 56.6506 50.3691 55.541 49.0004 55.541C47.6317 55.541 46.5221 56.6506 46.5221 58.0193C46.5221 59.388 47.6317 60.4976 49.0004 60.4976Z" fill="white"/>
</svg>
