<svg width="25" height="35" viewBox="0 0 25 35" fill="none" xmlns="http://www.w3.org/2000/svg">
<path d="M25 28.8726C23.3593 30.5719 21.4107 31.92 19.2659 32.8398C17.121 33.7596 14.8219 34.233 12.5 34.233C10.1781 34.233 7.87898 33.7596 5.73412 32.8398C3.58926 31.92 1.64074 30.5719 1.34853e-09 28.8726C-2.0032e-05 27.7005 0.223167 26.5399 0.656814 25.457C1.09046 24.3741 1.72608 23.3902 2.52737 22.5614C3.32866 21.7326 4.27994 21.0752 5.32688 20.6266C6.37382 20.1781 7.49592 19.9472 8.62912 19.9473H16.3709C17.5041 19.9472 18.6262 20.1781 19.6731 20.6266C20.7201 21.0752 21.6713 21.7326 22.4726 22.5614C23.2739 23.3902 23.9095 24.3741 24.3432 25.457C24.7768 26.5399 25 27.7005 25 28.8726Z" fill="#475EC5"/>
<path d="M12.4989 16.3751C17.43 16.3751 21.4275 12.7774 21.4275 8.33943C21.4275 3.90142 17.43 0.303711 12.4989 0.303711C7.56777 0.303711 3.57031 3.90142 3.57031 8.33943C3.57031 12.7774 7.56777 16.3751 12.4989 16.3751Z" fill="#475EC5"/>
</svg>
