<svg width="48" height="39" viewBox="0 0 48 39" fill="none" xmlns="http://www.w3.org/2000/svg">
    <path fill-rule="evenodd" clip-rule="evenodd"
        d="M27.5244 4.48386C27.1314 3.68602 26.0756 2.63167 26.0756 2.63167C26.0756 2.63167 26.0756 2.63167 23.831 1.7186C21.217 0.562509 17.6962 0.19794 13.1476 1.07727C3.79375 2.88574 1.87341 11.2172 1.41886 14.7298C0.982531 18.1024 0.750507 25.0943 1.41807 30.7491C1.71662 33.2827 3.33287 34.8539 5.19302 35.8084C7.65185 37.0696 10.5209 37.2135 10.8614 37.2262C10.8551 37.2262 21.1314 38.406 21.1314 38.406C21.4664 38.444 21.7887 38.2669 21.9352 37.964C22.0817 37.6611 22.0207 37.2989 21.7824 37.0609L21.0024 36.282C20.5193 35.8005 20.3435 35.0911 20.5439 34.4395L22.2314 28.9643C22.522 28.0209 23.5071 27.4745 24.4629 27.7267C25.2659 27.9418 26.0887 28.123 26.6565 28.1641C27.0208 28.1902 27.3137 28.1545 27.5062 28.0873C28.0154 27.9094 28.4929 27.4919 28.8073 26.9226C29.1763 26.256 29.3212 25.3885 29.0646 24.5582L29.8645 24.02C30.0577 23.7076 29.6942 23.0652 29.4344 22.805L29.2602 22.6319L29.5453 22.4895C29.9215 22.3013 30.0846 21.8538 29.9183 21.4687L29.6031 20.7388C29.8597 20.6487 30.1297 20.5308 30.3649 20.3822C31.076 19.9314 31.4902 19.2529 31.1568 18.3546C30.8891 17.6327 30.2057 17.0095 29.5398 16.4252C29.2927 16.2085 29.0527 15.9958 28.8714 15.7728C28.7708 15.6486 28.6798 15.5301 28.6671 15.3901C28.6291 14.9876 28.907 14.3115 29.1454 13.4504C29.5896 11.8475 30.0022 9.75113 29.261 7.60975C28.8698 6.47896 28.2949 5.41933 27.5244 4.48386ZM27.4769 7.401C27.2068 9.19762 26.3849 10.8124 25.3895 11.9803C24.2911 13.2685 22.9647 13.9936 21.9225 13.9881C18.1207 13.9683 16.2407 16.5193 14.87 17.5481C13.884 18.2875 13.0502 18.429 12.2203 17.7466C11.2415 16.9408 10.5969 16.6885 10.1218 16.8151C9.77096 16.9084 9.60228 17.231 9.50567 17.4516C9.36946 17.7648 9.32591 18.618 9.51597 19.4253C9.68147 20.1275 10.0315 20.836 10.8582 20.9475C12.4048 21.1555 12.9678 22.2713 12.9559 24.0774C12.9464 25.6067 12.5188 27.7228 12.4959 29.9536C12.4745 31.9977 12.8324 34.2039 14.2942 36.029L19.2879 36.6023C18.8595 35.8075 18.7566 34.8618 19.0306 33.9738L20.7173 28.4985C21.2589 26.7446 23.0898 25.7285 24.8676 26.1974L24.8716 26.1982C25.4758 26.3611 26.0927 26.5058 26.571 26.5659C26.7341 26.5865 26.9621 26.5873 27.0025 26.5865C27.1736 26.5185 28.0796 26.0219 28.1873 25.8274C28.1873 25.8274 28.1873 25.8274 28.1873 24.773V23.7187C28.1873 23.7187 28.1461 22.915 28.1873 22.6643C28.2277 22.4129 28.3868 22.1969 28.6149 22.0831L28.1674 21.4094L28.1873 20.5556C28.3061 20.3413 28.15 19.4672 28.3923 19.4301C28.3923 19.4301 28.8714 19.3573 29.3038 19.1596C29.4075 19.1122 29.5089 19.0584 29.5944 18.992C29.6292 18.9651 29.6894 18.9517 29.672 18.9042C29.5738 18.6393 29.3632 18.4132 29.1335 18.1894C28.8191 17.8818 28.4596 17.5931 28.146 17.2998C27.564 16.7557 27.1498 16.169 27.0904 15.5379C27.0413 15.0216 27.313 14.1344 27.6186 13.0289C27.9916 11.683 28.3868 9.92432 27.7643 8.12613C27.6788 7.87941 27.583 7.63744 27.4769 7.401ZM25.8931 5.05005C23.5752 2.65562 19.5231 1.45603 13.4485 2.63032C5.05682 4.25296 3.39701 11.781 2.98919 14.9322C2.56394 18.2234 2.33983 25.0461 2.99077 30.564C3.21884 32.5006 4.49537 33.6725 5.91681 34.4016C8.22043 35.583 10.9335 35.6463 10.9335 35.6463C10.9572 35.647 10.981 35.6486 11.0047 35.651L12.2314 35.7918C10.3213 32.4105 10.9928 28.3744 11.2851 25.4367C11.3611 24.6689 11.4086 23.9873 11.3421 23.4337C11.2835 22.9435 11.1354 22.5805 10.646 22.5148C9.09072 22.3045 8.28536 21.1081 7.97415 19.7875C7.68828 18.5737 7.84903 17.2911 8.05413 16.8206C8.29883 16.2583 8.81831 15.5253 9.71315 15.2873C10.4837 15.0809 11.6382 15.2185 13.2276 16.5256C13.359 16.6339 13.4857 16.5628 13.6322 16.4774C13.9078 16.3169 14.2016 16.0638 14.535 15.7704C16.0554 14.4348 18.2086 12.3876 21.9313 12.4065C22.6281 12.4105 23.4485 11.8166 24.1834 10.9547C25.3839 9.54715 26.2938 7.35117 25.8931 5.05005ZM42.861 33.0447C48.3797 27.5338 48.3797 18.5855 42.861 13.0747C42.5521 12.7663 42.0501 12.7663 41.7412 13.0747C41.4316 13.3831 41.4316 13.8845 41.7412 14.1929C46.6415 19.0869 46.6415 27.0325 41.7412 31.9265C41.4316 32.2349 41.4316 32.7363 41.7412 33.0447C42.0501 33.3531 42.5521 33.3531 42.861 33.0447ZM39.383 29.5724C42.9829 25.9776 42.9829 20.1418 39.383 16.5469C39.0741 16.2385 38.5721 16.2385 38.2632 16.5469C37.9544 16.8561 37.9544 17.3567 38.2632 17.6659C41.2447 20.6423 41.2447 25.477 38.2632 28.4535C37.9544 28.7627 37.9544 29.2632 38.2632 29.5724C38.5721 29.8808 39.0741 29.8808 39.383 29.5724ZM36.4023 26.5952C38.3567 24.6444 38.3567 21.475 36.4023 19.5242C36.0935 19.215 35.5914 19.215 35.2826 19.5242C34.9737 19.8326 34.9737 20.3339 35.2826 20.6423C36.6185 21.9763 36.6185 24.143 35.2826 25.4771C34.9737 25.7855 34.9737 26.2868 35.2826 26.5952C35.5914 26.9044 36.0935 26.9044 36.4023 26.5952Z"
        fill="#475EC5" stroke="#475EC5" stroke-width="0.5" />
</svg>