<svg width="18" height="16" viewBox="0 0 18 16" fill="none" xmlns="http://www.w3.org/2000/svg">
<path id="Vector" d="M16.3666 1.84172C15.941 1.41589 15.4356 1.0781 14.8794 0.847626C14.3232 0.617158 13.727 0.498535 13.1249 0.498535C12.5229 0.498535 11.9267 0.617158 11.3705 0.847626C10.8143 1.0781 10.3089 1.41589 9.88327 1.84172C9.39542 2.32957 8.60445 2.32957 8.1166 1.84172C7.25686 0.98198 6.0908 0.498981 4.87494 0.498981C3.65908 0.498981 2.49301 0.98198 1.63327 1.84172C0.773526 2.70147 0.290527 3.86753 0.290527 5.08339C0.290527 6.29925 0.773526 7.46531 1.63327 8.32506L2.5166 9.20839L7.93928 14.6311C8.52506 15.2168 9.47481 15.2168 10.0606 14.6311L15.4833 9.20839L16.3666 8.32506C16.7924 7.89943 17.1302 7.39407 17.3607 6.83785C17.5912 6.28164 17.7098 5.68546 17.7098 5.08339C17.7098 4.48132 17.5912 3.88514 17.3607 3.32893C17.1302 2.77271 16.7924 2.26735 16.3666 1.84172Z" fill="url(#paint0_linear_3756_27927)"/>
<defs>
<linearGradient id="paint0_linear_3756_27927" x1="0.501691" y1="8.53918" x2="22.0931" y2="10.2343" gradientUnits="userSpaceOnUse">
<stop stop-color="#5632BD"/>
<stop offset="1" stop-color="#33B1E7"/>
</linearGradient>
</defs>
</svg>
