<svg width="20" height="21" viewBox="0 0 20 21" fill="none" xmlns="http://www.w3.org/2000/svg">
<g id="home-05">
<g id="Vector">
<path d="M16.6668 7.58337V11.75C16.6668 14.8927 16.6668 16.4641 15.6905 17.4404C14.7142 18.4167 13.1428 18.4167 10.0002 18.4167C6.85746 18.4167 5.28612 18.4167 4.3098 17.4404C3.3335 16.4641 3.3335 14.8927 3.3335 11.75V7.58337" fill="url(#paint0_linear_3215_15388)"/>
<path d="M16.6668 7.58337V11.75C16.6668 14.8927 16.6668 16.4641 15.6905 17.4404C14.7142 18.4167 13.1428 18.4167 10.0002 18.4167C6.85746 18.4167 5.28612 18.4167 4.3098 17.4404C3.3335 16.4641 3.3335 14.8927 3.3335 11.75V7.58337" stroke="url(#paint1_linear_3215_15388)" stroke-width="1.5"/>
</g>
<g id="Vector_2">
<path d="M18.3332 9.25004L14.7139 5.77961C12.4917 3.64878 11.3806 2.58337 9.99984 2.58337C8.61909 2.58337 7.50801 3.64878 5.2858 5.77961L1.6665 9.25004" fill="url(#paint2_linear_3215_15388)"/>
<path d="M18.3332 9.25004L14.7139 5.77961C12.4917 3.64878 11.3806 2.58337 9.99984 2.58337C8.61909 2.58337 7.50801 3.64878 5.2858 5.77961L1.6665 9.25004" stroke="url(#paint3_linear_3215_15388)" stroke-width="1.5" stroke-linecap="round"/>
</g>
<path id="Vector_3" d="M10 14.6666H10.0075" stroke="white" stroke-width="3" stroke-linecap="round" stroke-linejoin="round"/>
</g>
<defs>
<linearGradient id="paint0_linear_3215_15388" x1="3.49513" y1="13.3167" x2="20.0066" y2="14.7082" gradientUnits="userSpaceOnUse">
<stop stop-color="#5632BD"/>
<stop offset="1" stop-color="#33B1E7"/>
</linearGradient>
<linearGradient id="paint1_linear_3215_15388" x1="3.49513" y1="13.3167" x2="20.0066" y2="14.7082" gradientUnits="userSpaceOnUse">
<stop stop-color="#5632BD"/>
<stop offset="1" stop-color="#33B1E7"/>
</linearGradient>
<linearGradient id="paint2_linear_3215_15388" x1="1.86854" y1="6.11155" x2="22.0627" y2="9.56862" gradientUnits="userSpaceOnUse">
<stop stop-color="#5632BD"/>
<stop offset="1" stop-color="#33B1E7"/>
</linearGradient>
<linearGradient id="paint3_linear_3215_15388" x1="1.86854" y1="6.11155" x2="22.0627" y2="9.56862" gradientUnits="userSpaceOnUse">
<stop stop-color="#5632BD"/>
<stop offset="1" stop-color="#33B1E7"/>
</linearGradient>
</defs>
</svg>
