<svg width="194" height="201" viewBox="0 0 194 201" fill="none" xmlns="http://www.w3.org/2000/svg">
<rect width="194" height="201" fill="#1E1E1E"/>
<g id="Assets">
<rect width="1173" height="1201" transform="translate(-100 -119)" fill="#333135"/>
<g id="Group 1000005767">
<path id="Vector" d="M0 141.925C1.04501 142.918 2.10328 143.9 3.17723 144.869C3.2906 143.47 3.43232 142.081 3.58186 140.693C2.36741 141.1 1.17345 141.509 0 141.925Z" fill="#404183"/>
<path id="Vector_2" d="M4.12759 135.966C3.91171 137.532 3.75493 139.115 3.58428 140.695C3.43534 142.083 3.29305 143.472 3.17969 144.871C5.84196 147.271 8.57175 149.617 11.3498 151.922C10.0286 149.81 8.80933 147.656 7.75528 145.434C6.29479 142.353 5.16054 139.172 4.12759 135.966Z" fill="#8AAEDD"/>
<path id="Vector_3" d="M146.781 39.4683C147.241 35.8817 147.718 32.2975 148.216 28.7163V0.383301C141.205 0.869263 134.338 1.86917 127.609 3.25468C131.189 7.28471 135.281 10.8671 138.47 15.2195C143.583 22.1993 145.949 30.7557 146.781 39.4683Z" fill="#8AAEDD"/>
<path id="Vector_4" d="M120.742 105.597C128.5 111.825 134.857 119.789 139.321 128.716C139.888 114.23 140.762 99.7579 141.949 85.3086C142.951 73.1261 144.199 60.9637 145.64 48.8249C139.644 43.1655 133.667 37.4392 128.636 30.8978C126.172 27.6895 123.945 24.3054 121.525 21.0661C118.751 17.3511 115.707 13.7991 112.742 10.2021L116.164 99.6643C117.413 101.886 118.764 104.008 120.742 105.597Z" fill="#8AAEDD"/>
<path id="Vector_5" d="M147.52 86.5019C157.9 61.949 165.164 35.4832 182.77 15.7406C186.128 11.9763 189.811 8.56912 193.704 5.40885L193.982 3.94062C182.762 1.36423 171.09 0 159.098 0C158.851 0 158.605 0.0109455 158.358 0.0127701C156.39 11.6303 154.6 23.2787 153.04 34.9589C150.751 52.0886 148.928 69.2779 147.52 86.5019Z" fill="#8AAEDD"/>
<path id="Vector_6" d="M52.5235 46.6515C52.5235 46.6497 52.5241 46.6497 52.5241 46.6479C52.5271 46.6545 52.5283 46.661 52.5308 46.6669C52.6414 46.9234 52.7157 47.1918 52.8166 47.4513C53.0668 48.0967 53.3097 48.7438 53.5031 49.4076C53.6173 49.7995 53.6983 50.2003 53.7944 50.5975C53.9268 51.1473 54.0585 51.6965 54.157 52.2552C54.2325 52.6845 54.2863 53.1168 54.3425 53.5502C54.4138 54.0929 54.4785 54.6356 54.5214 55.1848C54.5559 55.6265 54.5806 56.0694 54.5982 56.5142C54.6205 57.0687 54.6308 57.6227 54.6284 58.1802C54.6266 58.6166 54.6235 59.0512 54.6078 59.4888C54.5867 60.0742 54.5492 60.6585 54.5051 61.2439C54.4749 61.6512 54.4495 62.0567 54.409 62.4622C54.3432 63.1195 54.2573 63.7726 54.1673 64.4264C54.122 64.7553 54.0863 65.0854 54.0355 65.4131C53.8838 66.3928 53.7122 67.3666 53.5182 68.3278C51.8642 76.5161 49.0196 84.5506 48.7797 92.8974C48.625 98.2577 49.5551 103.584 50.015 108.924C50.945 119.704 49.9618 130.522 48.625 141.282C52.0987 146.834 55.4478 152.426 57.8585 158.335C58.6229 160.209 59.2678 162.111 59.8612 164.022C68.0637 175.714 76.5261 187.228 85.2386 198.556C92.6918 199.187 100.29 199.709 108.041 200.102C106.765 196.964 105.974 193.525 105.167 190.24C104.986 189.5 104.787 188.752 104.575 188.003C104.51 187.776 104.436 187.551 104.368 187.324C104.213 186.803 104.052 186.282 103.877 185.765C103.78 185.478 103.672 185.195 103.568 184.911C103.403 184.46 103.233 184.011 103.051 183.568C102.924 183.263 102.788 182.962 102.652 182.662C102.467 182.254 102.272 181.851 102.068 181.456C101.912 181.153 101.75 180.853 101.581 180.558C101.367 180.184 101.138 179.825 100.903 179.469C100.716 179.184 100.53 178.899 100.329 178.627C100.074 178.282 99.7944 177.96 99.5158 177.639C99.3025 177.392 99.0982 177.137 98.8704 176.906C98.5338 176.564 98.1615 176.259 97.7911 175.954C97.585 175.784 97.3971 175.593 97.1801 175.434C96.5595 174.982 95.8983 174.576 95.1822 174.234C99.039 172.104 104.088 173.152 107.631 175.758C111.174 178.361 113.488 182.247 115.465 186.134C117.936 190.999 120.089 196.044 122.939 200.694C128.416 200.857 133.948 200.959 139.536 201C139.494 199.888 139.436 198.776 139.398 197.664C138.747 178.539 138.669 159.39 139.144 140.262C139.212 137.509 139.318 134.759 139.41 132.007C139.22 131.887 139.033 131.761 138.853 131.635C136.302 129.862 133.749 128.085 131.198 126.312C127.816 123.963 124.421 121.599 121.398 118.815C119.873 117.409 118.46 115.898 117.096 114.343L117.272 118.814L119.679 180.094C118.969 180.789 114.968 153.73 110.192 119.23C109.47 114.017 108.73 108.628 107.982 103.144C103.312 97.306 98.6426 91.4677 93.9736 85.6288C91.3828 82.3894 88.7867 79.1393 86.5597 75.6499C81.9088 68.3617 78.9664 60.1728 76.0602 52.0587C75.8988 51.6092 75.7435 51.1437 75.6087 50.6735C75.5906 50.6076 75.5821 50.5417 75.5646 50.4758C75.4564 50.0726 75.3718 49.6689 75.3235 49.2651C75.3199 49.2343 75.3084 49.204 75.3054 49.1731C75.3108 49.1785 75.3162 49.1844 75.3217 49.1898C75.2353 48.3805 75.283 47.5807 75.6401 46.8433C76.3913 45.293 78.2925 44.4974 80.0336 44.6518C81.7735 44.8038 83.3532 45.7443 84.6519 46.8938C87.1211 49.0817 88.7522 52.0183 90.283 54.9176C93.2284 60.4964 95.9956 66.1767 98.3102 72.0363C99.9262 76.1296 102.419 79.4765 105.207 82.678C101.839 57.6814 98.5018 32.4053 95.9582 13C85.261 17.6591 75.1869 23.454 65.9105 30.2405C70.6581 56.8585 77.3734 91.8056 83.187 121.519C89.8333 155.488 95.3013 182.615 95.3013 182.615L79.5284 121.918L57.4343 36.8987C55.0677 38.8913 52.7803 40.9706 50.5389 43.0968C50.7589 43.3752 50.9625 43.6673 51.1408 43.9618C51.6714 44.8311 52.1259 45.7312 52.5235 46.6515Z" fill="#8AAEDD"/>
</g>
</g>
</svg>
