<svg width="20" height="21" viewBox="0 0 20 21" fill="none" xmlns="http://www.w3.org/2000/svg">
<path d="M9.58863 2.99194C5.85294 2.99194 3.98511 2.99194 2.82458 4.15201C1.66406 5.31208 1.66406 7.17919 1.66406 10.9134C1.66406 14.6476 1.66406 16.5147 2.82458 17.6749C3.98511 18.8349 5.85294 18.8349 9.58863 18.8349C13.3242 18.8349 15.192 18.8349 16.3526 17.6749C17.5131 16.5147 17.5131 14.6476 17.5131 10.9134V10.4965" stroke="black" stroke-width="1.5" stroke-linecap="round"/>
<path d="M4.16406 17.9916C7.67238 14.0322 11.615 8.78115 17.4974 12.7194" stroke="black" stroke-width="1.5"/>
<path d="M14.9982 2.16528V8.83871M18.3362 5.48111L11.6602 5.49352" stroke="black" stroke-width="1.5" stroke-linecap="round" stroke-linejoin="round"/>
<ellipse cx="7.5013" cy="8.83333" rx="0.833333" ry="0.833333" stroke="black" stroke-width="1.5"/>
</svg>
