<svg width="20" height="20" viewBox="0 0 20 20" fill="none" xmlns="http://www.w3.org/2000/svg">
<path d="M2.0835 9.99967C2.0835 6.26772 2.0835 4.40175 3.24286 3.24237C4.40224 2.08301 6.26821 2.08301 10.0002 2.08301C13.7321 2.08301 15.5981 2.08301 16.7575 3.24237C17.9168 4.40175 17.9168 6.26772 17.9168 9.99967C17.9168 13.7316 17.9168 15.5976 16.7575 16.757C15.5981 17.9163 13.7321 17.9163 10.0002 17.9163C6.26821 17.9163 4.40224 17.9163 3.24286 16.757C2.0835 15.5976 2.0835 13.7316 2.0835 9.99967Z" stroke="#56555A" stroke-width="1.5"/>
<path d="M10.202 14.167V10.0003C10.202 9.60749 10.202 9.41108 10.0799 9.28899C9.9579 9.16699 9.76149 9.16699 9.36865 9.16699" stroke="#56555A" stroke-width="1.5" stroke-linecap="round" stroke-linejoin="round"/>
<path d="M9.99316 6.66699H10.0007" stroke="#56555A" stroke-width="2" stroke-linecap="round" stroke-linejoin="round"/>
</svg>
