<svg width="22" height="22" viewBox="0 0 22 22" fill="none" xmlns="http://www.w3.org/2000/svg">
<path d="M10.963 2C6.00914 2 2 6.00869 2 10.963C2 15.9167 6.00869 19.9259 10.963 19.9259C15.9168 19.9259 19.9259 15.9172 19.9259 10.963C19.9259 6.00921 15.9172 2 10.963 2ZM11.8834 14.5209C11.8834 14.804 11.4705 15.0872 10.9631 15.0872C10.4322 15.0872 10.0547 14.804 10.0547 14.5209V10.0258C10.0547 9.69551 10.4323 9.47129 10.9631 9.47129C11.4705 9.47129 11.8834 9.69551 11.8834 10.0258V14.5209ZM10.9632 8.38597C10.4205 8.38597 9.99577 7.98484 9.99577 7.53649C9.99577 7.08816 10.4205 6.69883 10.9632 6.69883C11.4941 6.69883 11.9188 7.08816 11.9188 7.53649C11.9188 7.98484 11.4941 8.38597 10.9632 8.38597Z" fill="#FFB546"/>
</svg>
