<svg width="339" height="431" viewBox="0 0 339 431" fill="none" xmlns="http://www.w3.org/2000/svg">
<path d="M83.8079 216.032C75.8614 196.934 77.5344 183.885 77.5344 173.512C77.5344 159.292 81.4295 146.88 87.519 133.853C93.0092 122.107 99.656 112.842 111.02 103.917C122.386 94.9949 136.884 86.7658 156.059 80.2808L156.563 80.1343C157.074 79.9193 170.754 75.0788 188.004 76.5514C198.693 77.4529 210.711 80.6665 222.522 88.7871C234.32 96.924 246.099 110.079 255.828 131.66L255.962 131.956L256.115 132.233C256.14 132.276 256.271 132.517 256.503 132.987C257.4 134.789 259.635 139.639 261.42 146.219C263.212 152.801 264.533 161.094 263.8 169.8C263.321 175.546 261.967 181.47 259.301 187.357C256.625 193.247 252.642 199.127 246.697 204.816L246.701 204.816C236.672 214.385 227.088 220.65 218.011 224.344C208.917 228.032 200.323 229.225 191.782 228.527C179.271 227.491 166.649 222.18 153.964 213.427C148.017 209.339 143.177 202.84 140.062 195.015C136.941 187.21 135.601 178.173 136.328 169.539C137.124 159.911 140.459 150.893 146.149 144.246C149 140.908 152.433 138.121 156.583 135.988C160.736 133.862 165.632 132.374 171.495 131.805C175.183 131.45 178.677 131.436 181.978 131.711C194.252 132.745 203.821 137.735 210.193 144.458C216.563 151.205 219.658 159.615 218.973 167.831C218.603 172.23 217.173 176.616 214.424 180.875C211.751 185.003 207.792 189.021 202.208 192.635C201.989 192.723 201.719 192.827 201.367 192.953C200.066 193.424 197.923 194.104 195.437 194.581C192.951 195.063 190.13 195.326 187.495 195.103C185.86 194.967 184.301 194.651 182.874 194.134C180.73 193.341 178.864 192.179 177.071 190.096C175.293 188.004 173.557 184.851 172.354 179.916C170.725 173.204 159.324 169.786 156.541 179.369C156.541 180.297 156.391 182.149 156.702 183.466C157.778 188.025 159.373 191.969 161.383 195.381C164.381 200.508 168.446 204.342 172.863 206.792C177.278 209.258 181.919 210.369 186.193 210.722C192.54 211.238 198.184 210.201 202.354 209.106C206.517 208.001 209.215 206.794 209.511 206.66L210.02 206.432L210.493 206.134C218.078 201.355 223.946 195.611 228.041 189.277C232.139 182.95 234.437 176.05 235.004 169.164C236.082 156.236 231.164 143.532 221.996 133.853C212.834 124.15 199.34 117.414 183.28 116.085C178.968 115.725 174.479 115.753 169.842 116.201C162.082 116.948 155.099 118.993 149.041 122.107C139.936 126.77 133.024 133.8 128.338 141.854C123.637 149.92 121.068 159.002 120.297 168.199C119.385 179.232 121.034 190.475 125.072 200.633C129.119 210.771 135.61 219.911 144.711 226.206C158.952 236.03 174.212 242.776 190.483 244.143C201.536 245.075 212.952 243.43 224.27 238.811C235.602 234.196 246.826 226.688 257.989 216.032L257.992 216.032C265.346 209.001 270.558 201.4 274.027 193.74C277.503 186.08 279.237 178.384 279.842 171.131C280.898 158.338 278.515 146.927 275.921 138.644C273.583 131.214 271.055 126.284 270.424 125.102C259.783 101.554 246.174 85.8863 231.777 75.9875C217.328 66.0294 200.959 61.7247 188.004 60.6583C167.532 58.9891 152.259 63.4636 149.762 64.368C129.977 70.5509 113.212 80.5062 100.299 90.6451C87.386 100.777 78.6254 113.049 71.9644 124.29C63.5586 138.448 60.4461 155.327 59.1319 171.131C57.481 190.931 62.8422 216.887 68.7514 228.527C74.6605 240.166 78.3707 249.631 93.0091 265.107C93.0091 265.107 105.556 278.097 110.157 281.836C114.757 285.575 119.429 288.126 124.196 291.292C130.47 294.22 139.852 298.565 151.562 301.911C159.342 304.134 177.805 305.675 198.405 305.675C243.157 305.675 263.382 290.778 288.326 272.634C302.128 262.596 318.021 244.516 329.732 213.427C348.556 148.419 330.519 102.823 326.341 90.6348C322.162 78.4464 297.318 39.0945 279.966 28.3849C269.553 21.9581 232.947 -3.81941 166.623 1.61763C100.299 7.05468 82.0805 27.1296 57.0434 47.2056C53.7936 49.8115 33.2381 65.1392 12.2924 116.201C-6.92735 163.055 -1.71808 227.923 20.1035 272.635C43.6216 320.822 77.5363 356.843 136.328 392.872C210.493 433.904 303.326 428.9 329.732 430.901C339.325 431.628 345.359 412.337 325.842 410.385C288.996 406.7 220.395 409.968 156.702 377.359C93.009 344.751 61.6355 296.296 48.6264 276.781C21.2739 235.748 11.871 157.202 38.6382 106.177C65.4055 55.1521 95.4156 43.0231 118.94 30.8942C195.437 -2.14666 269.087 36.3313 288.326 64.368C302.092 84.4287 320.953 109.105 320.953 173.512C320.953 187.357 309.683 222.447 295.018 238.811C278.108 257.68 261.086 271.956 237.723 280.164C222.249 285.601 203.028 288.528 174.984 286.019C162.995 284.947 141.279 278.087 130.232 270.126C119.185 262.165 108.367 252.881 100.299 244.143C93.009 236.248 83.8079 216.032 83.8079 216.032Z" fill="white"/>
</svg>
