<svg width="32" height="32" viewBox="0 0 32 32" fill="none" xmlns="http://www.w3.org/2000/svg">
<path d="M15.924 14.5931C15.6272 13.6877 14.9366 12.5087 11.9394 11.3395C2.18998 7.53647 9.35822 -3.33902 15.9355 2.88181M16.076 14.5931C16.3728 13.6877 17.0634 12.5087 20.0606 11.3395C29.81 7.53647 22.6418 -3.33902 16.0645 2.88181M6.71465 5.39719C3.32619 5.54425 1.08133 9.44136 4.04623 11.8679C8.38276 15.4169 15.4297 16.3086 16.0016 22.5564M25.2854 5.39719C28.6738 5.54425 30.9187 9.44136 27.9538 11.8679C23.6172 15.4169 16.5703 16.3086 15.9984 22.5564M11.5489 22.6862C9.22206 23.1338 6.54206 26.1753 8.10021 28.5477C10.2222 31.7787 13.4565 31.4819 15.9158 29.5887M20.4511 22.6862C22.7779 23.1338 25.4579 26.1753 23.8998 28.5477C21.7778 31.7787 18.5435 31.4819 16.0842 29.5887M3.65152 11.5824C1.44381 12.9391 -0.927573 16.4979 3.48605 19.2123C5.5018 20.452 8.56648 20.041 8.88104 18.0395M28.3485 11.5824C30.5562 12.9391 32.9276 16.4979 28.514 19.2123C26.4982 20.452 23.4335 20.041 23.119 18.0395M4.74258 19.7661C3.21627 20.4577 1.36016 23.2597 4.58573 24.8358C5.8485 25.4528 7.38074 25.4636 8.05176 25.0989M27.2574 19.7661C28.7837 20.4577 30.6398 23.2597 27.4143 24.8358C26.1515 25.4528 24.6193 25.4636 23.9482 25.0989" stroke="url(#paint0_linear_3249_14509)" stroke-width="1.5" stroke-linecap="round"/>
<defs>
<linearGradient id="paint0_linear_3249_14509" x1="5.61367" y1="12.8738" x2="36.3438" y2="17.2381" gradientUnits="userSpaceOnUse">
<stop stop-color="#4E54C8"/>
<stop offset="1" stop-color="#17A0B2" stop-opacity="0.933333"/>
</linearGradient>
</defs>
</svg>
