<svg width="44" height="33" viewBox="0 0 44 33" fill="none" xmlns="http://www.w3.org/2000/svg">
    <path fill-rule="evenodd" clip-rule="evenodd"
        d="M36.7782 8.45086C42.9494 14.622 42.9494 24.6421 36.7782 30.8133C36.4979 31.0936 36.4979 31.5493 36.7782 31.8296C37.0585 32.1107 37.5142 32.1107 37.7945 31.8296C44.5263 25.0978 44.5263 14.1664 37.7945 7.43455C37.5142 7.15423 37.0585 7.15423 36.7782 7.43455C36.4979 7.71486 36.4979 8.17055 36.7782 8.45086ZM3.16804 26.6841L1.92457 26.5979C1.7262 26.5835 1.53071 26.6532 1.38481 26.789C1.2389 26.9249 1.15625 27.1154 1.15625 27.3145V31.5939C1.15625 31.9906 1.47825 32.3126 1.875 32.3126H15.5312C15.928 32.3126 16.25 31.9906 16.25 31.5939V28.2654C16.25 27.888 15.9582 27.5746 15.5808 27.5488L14.0938 27.4453C14.106 26.8652 14.3237 25.9754 15.4924 25.7116C16.664 25.4471 17.9858 25.8899 19.0402 25.9287C19.7992 25.9567 20.4496 25.808 20.9391 25.3753C21.3998 24.9677 21.7556 24.2741 21.8203 23.0738C21.9023 21.5508 21.7333 20.4913 21.6988 19.7589C21.6881 19.5282 21.6521 19.3536 21.7369 19.2314C21.7772 19.1739 21.857 19.1609 21.9576 19.1322C22.2199 19.0574 22.5771 19.0201 23.058 18.9985C23.7803 18.9654 24.2332 18.7117 24.5135 18.3832C24.8082 18.0375 24.9361 17.5732 24.8894 17.0277C24.8297 16.3255 24.4524 15.4428 23.9988 14.645C23.5503 13.8566 23.0415 13.1507 22.7878 12.8136C22.8014 12.0431 22.7985 9.72159 22.3608 7.87727C22.1725 7.08593 21.8915 6.38228 21.5256 5.87053C21.9993 5.2064 22.8014 3.99532 23.0911 3.04585C23.306 2.3386 23.2298 1.73199 22.9214 1.3532C22.6275 0.990954 22.0381 0.704167 20.9585 0.924823C19.3658 1.25114 16.7819 1.06426 14.2533 0.893193C11.5652 0.71135 8.93598 0.550333 7.47405 0.903239C5.70448 1.33161 4.14408 2.03887 3.04152 3.51016C1.47465 5.60028 0.814128 9.36152 2.12944 16.5088C2.5456 18.7685 3.61798 22.6181 3.16804 26.6841ZM2.59375 30.8751V28.0849L14.8125 28.9359V30.8751H2.59375ZM32.4714 12.7576C36.2657 16.5519 36.2657 22.7123 32.4714 26.5066C32.1911 26.7876 32.1911 27.2426 32.4714 27.5229C32.7518 27.8039 33.2074 27.8039 33.4878 27.5229C37.8434 23.168 37.8434 16.0962 33.4878 11.7413C33.2074 11.461 32.7518 11.461 32.4714 11.7413C32.1911 12.0216 32.1911 12.4773 32.4714 12.7576ZM20.2951 6.61801C19.8739 6.59429 18.9403 6.55621 17.7651 6.60077C16.922 6.6324 15.9546 6.70645 14.9627 6.85811C14.3051 6.95873 14.1225 7.5402 13.9083 8.12526C13.554 9.09558 13.2198 10.1521 12.4033 10.7703C11.8779 11.1677 11.0621 11.512 10.2736 11.8951C9.65115 12.1977 9.03517 12.5118 8.71892 12.9782C8.06486 13.9421 8.03182 14.9943 8.11519 15.997C8.21582 17.2081 8.47097 18.3667 8.35669 19.3169C8.25607 20.1564 8.10081 21.5184 7.55959 22.5707C7.23903 23.1931 6.78836 23.7128 6.17671 24.0254C5.76918 24.2331 5.28475 24.3553 4.70688 24.3374C4.72053 25.1366 4.69105 25.956 4.60264 26.784L12.6692 27.3453C12.7058 26.3269 13.1162 24.7744 15.1762 24.3093C16.2421 24.0686 17.4201 24.3 18.463 24.4344C18.8346 24.4826 19.1839 24.5163 19.4952 24.4811C19.6921 24.4588 19.8704 24.4114 20.0062 24.2806C20.2463 24.0484 20.3505 23.6395 20.385 22.9962C20.4633 21.54 20.2958 20.5273 20.2628 19.8272C20.2333 19.1962 20.3246 18.7441 20.5575 18.4098C20.7249 18.1683 20.9664 17.9693 21.3316 17.8269C21.6931 17.6868 22.2221 17.597 22.9926 17.5625C23.1996 17.5531 23.3498 17.5459 23.4224 17.4467C23.4648 17.3899 23.4627 17.313 23.4612 17.2304C23.4584 17.0406 23.4073 16.8286 23.3333 16.6058C22.8668 15.2064 21.5005 13.4965 21.5005 13.4965C21.3941 13.3621 21.3388 13.1932 21.346 13.0221C21.346 13.0221 21.425 11.0024 21.1346 9.11065C21.0254 8.39621 20.8658 7.69973 20.6179 7.15348C20.523 6.94576 20.4202 6.76104 20.2951 6.61801ZM28.78 16.4491C30.5373 18.2057 30.5373 21.0584 28.78 22.8151C28.4996 23.0961 28.4996 23.5511 28.78 23.8321C29.0603 24.1124 29.516 24.1124 29.7963 23.8321C32.1142 21.5141 32.1142 17.7508 29.7963 15.4328C29.516 15.1525 29.0603 15.1525 28.78 15.4328C28.4996 15.7131 28.4996 16.1688 28.78 16.4491ZM20.2577 5.17621C20.5654 4.7579 21.1224 3.9601 21.4847 3.2011C21.6004 2.9596 21.696 2.72314 21.7485 2.50823C21.7643 2.44426 21.7721 2.35798 21.7757 2.29617C21.6643 2.29186 21.448 2.29186 21.2468 2.33354C19.562 2.67783 16.83 2.50892 14.1563 2.3278C11.6406 2.15745 9.17966 1.96989 7.81188 2.30051C6.37654 2.64767 5.08639 3.17882 4.19155 4.37266C2.76123 6.28023 2.34289 9.7252 3.54321 16.2486C3.83789 17.8485 4.43373 20.2139 4.63857 22.8948C4.96992 22.92 5.24954 22.8747 5.48529 22.7633C6.01573 22.5139 6.30108 21.9691 6.49945 21.3948C6.7733 20.602 6.85955 19.7273 6.92998 19.1451C7.0342 18.2776 6.77402 17.2218 6.68274 16.1156C6.57349 14.8017 6.67194 13.4346 7.52941 12.1711C7.89022 11.6385 8.49395 11.2044 9.18108 10.8378C10.0084 10.3965 10.9657 10.0558 11.5357 9.62383C11.8577 9.38017 12.0381 9.01433 12.1941 8.63195C12.4032 8.1202 12.5592 7.57181 12.7734 7.09456C13.1572 6.24141 13.7135 5.59523 14.7449 5.4371C15.795 5.2761 16.8185 5.1978 17.7105 5.16402C18.8418 5.12161 19.7618 5.15106 20.2577 5.17621Z"
        fill="#1FA0D8" stroke="#1FA0D8" stroke-width="0.5" />
</svg>