<svg width="20" height="20" viewBox="0 0 20 20" fill="none" xmlns="http://www.w3.org/2000/svg">
<path d="M11.8087 17.4084C15.2945 17.1768 18.0712 14.3607 18.2997 10.8254C18.3443 10.1336 18.3443 9.41709 18.2997 8.72526C18.0712 5.18999 15.2945 2.37395 11.8087 2.14223C10.6194 2.06318 9.37784 2.06335 8.191 2.14223C4.70516 2.37395 1.92851 5.18999 1.70004 8.72526C1.65533 9.41709 1.65533 10.1336 1.70004 10.8254C1.78325 12.113 2.35269 13.3052 3.02309 14.3118C3.41234 15.0166 3.15545 15.8962 2.75001 16.6645C2.45768 17.2185 2.31151 17.4955 2.42887 17.6956C2.54624 17.8957 2.80839 17.9021 3.33269 17.9148C4.36956 17.9401 5.06874 17.6461 5.62374 17.2368C5.9385 17.0048 6.09589 16.8887 6.20437 16.8753C6.31283 16.862 6.52631 16.9499 6.95318 17.1258C7.33684 17.2838 7.7823 17.3813 8.191 17.4084C9.37784 17.4873 10.6194 17.4875 11.8087 17.4084Z" stroke="#56555A" stroke-width="1.5" stroke-linejoin="round"/>
<path d="M8.75 7.94904C8.75 7.24098 9.30967 6.66699 10 6.66699C10.6903 6.66699 11.25 7.24098 11.25 7.94904C11.25 8.20427 11.1772 8.44208 11.0519 8.64183C10.6784 9.23733 10 9.80508 10 10.5132V10.8337" stroke="#56555A" stroke-width="1.5" stroke-linecap="round"/>
<path d="M10 12.5H10.0075" stroke="#56555A" stroke-width="1.5" stroke-linecap="round" stroke-linejoin="round"/>
</svg>
