<svg width="20" height="21" viewBox="0 0 20 21" fill="none" xmlns="http://www.w3.org/2000/svg">
<path d="M9.16699 6.44699V14.6663M9.16699 6.44699C10.7443 7.84716 12.1425 8.83651 13.3389 9.40118C13.9117 9.67151 14.4307 9.72318 15.0168 9.46234C16.4796 8.8115 17.5003 7.33825 17.5003 5.62505C15.8932 6.75727 13.9067 6.1427 12.2376 5.08758C10.8715 4.22399 10.1885 3.79219 9.88108 3.83604C9.64874 3.86918 9.52391 3.93651 9.37033 4.11152C9.16699 4.34314 9.16699 5.04443 9.16699 6.44699Z" stroke="#68656E" stroke-width="1.5" stroke-linecap="round" stroke-linejoin="round"/>
<path d="M9.16667 14.6663C9.16667 16.5073 7.67428 17.9997 5.83333 17.9997C3.99238 17.9997 2.5 16.5073 2.5 14.6663C2.5 12.8254 3.99238 11.333 5.83333 11.333C7.67428 11.333 9.16667 12.8254 9.16667 14.6663Z" stroke="#68656E" stroke-width="1.5" stroke-linecap="round" stroke-linejoin="round"/>
</svg>
