<svg width="40" height="40" viewBox="0 0 40 40" fill="none" xmlns="http://www.w3.org/2000/svg">
<path d="M18.333 11.895V28.3337M18.333 11.895C21.4877 14.6953 24.284 16.674 26.6768 17.8033C27.8225 18.344 28.8605 18.4473 30.0327 17.9257C32.9582 16.624 34.9997 13.6775 34.9997 10.2511C31.7855 12.5155 27.8123 11.2864 24.4742 9.17613C21.742 7.44896 20.376 6.58536 19.7612 6.67306C19.2965 6.73933 19.0468 6.874 18.7397 7.22401C18.333 7.68726 18.333 9.08983 18.333 11.895Z" stroke="#93909B" stroke-width="1.5" stroke-linecap="round" stroke-linejoin="round"/>
<path d="M18.3333 28.3337C18.3333 32.0155 15.3486 35.0003 11.6667 35.0003C7.98477 35.0003 5 32.0155 5 28.3337C5 24.6518 7.98477 21.667 11.6667 21.667C15.3486 21.667 18.3333 24.6518 18.3333 28.3337Z" stroke="#93909B" stroke-width="1.5" stroke-linecap="round" stroke-linejoin="round"/>
<line x1="3.8468" y1="6.12062" x2="35.6243" y2="36.0032" stroke="#93909B" stroke-width="1.5"/>
</svg>
