<svg width="20" height="21" viewBox="0 0 20 21" fill="none" xmlns="http://www.w3.org/2000/svg">
<path d="M9.16699 6.44724V14.6666M9.16699 6.44724C10.7443 7.8474 12.1425 8.83675 13.3389 9.40142C13.9117 9.67175 14.4307 9.72342 15.0168 9.46259C16.4796 8.81175 17.5003 7.3385 17.5003 5.6253C15.8932 6.75751 13.9067 6.14295 12.2376 5.08782C10.8715 4.22424 10.1885 3.79244 9.88108 3.83629C9.64874 3.86942 9.52391 3.93675 9.37033 4.11176C9.16699 4.34339 9.16699 5.04467 9.16699 6.44724Z" stroke="#68656E" stroke-width="1.5" stroke-linecap="round" stroke-linejoin="round"/>
<path d="M9.16667 14.6666C9.16667 16.5075 7.67428 17.9999 5.83333 17.9999C3.99238 17.9999 2.5 16.5075 2.5 14.6666C2.5 12.8257 3.99238 11.3333 5.83333 11.3333C7.67428 11.3333 9.16667 12.8257 9.16667 14.6666Z" stroke="#68656E" stroke-width="1.5" stroke-linecap="round" stroke-linejoin="round"/>
</svg>
