<svg width="12" height="12" viewBox="0 0 12 12" fill="none" xmlns="http://www.w3.org/2000/svg">
<path d="M11.3535 5.62394L7.8535 2.13785C7.7592 2.04713 7.6329 1.99693 7.5018 1.99807C7.3707 1.9992 7.2453 2.05158 7.15259 2.14391C7.05989 2.23625 7.0073 2.36116 7.00616 2.49173C7.00502 2.62231 7.05542 2.74811 7.1465 2.84204L9.793 5.47802H1C0.867392 5.47802 0.740215 5.53049 0.646447 5.62389C0.552678 5.71728 0.5 5.84395 0.5 5.97604C0.5 6.10812 0.552678 6.23479 0.646447 6.32818C0.740215 6.42158 0.867392 6.47405 1 6.47405H9.793L7.1465 9.11003C7.09875 9.15597 7.06065 9.21093 7.03445 9.27169C7.00825 9.33245 6.99445 9.3978 6.99388 9.46392C6.9933 9.53005 7.00595 9.59563 7.03109 9.65683C7.05623 9.71803 7.09336 9.77364 7.1403 9.8204C7.18725 9.86716 7.24308 9.90414 7.30452 9.92918C7.36597 9.95422 7.43181 9.96682 7.4982 9.96624C7.56459 9.96567 7.6302 9.95193 7.6912 9.92583C7.7522 9.89973 7.80738 9.86179 7.8535 9.81423L11.3535 6.32813C11.4472 6.23474 11.4999 6.10809 11.4999 5.97604C11.4999 5.84398 11.4472 5.71733 11.3535 5.62394Z" fill="#175868"/>
</svg>
