<svg width="40" height="45" viewBox="0 0 40 45" fill="none" xmlns="http://www.w3.org/2000/svg">
<path d="M20 4.125C15.2379 4.125 10.6321 5.82417 7.01104 8.91688C3.38994 12.0096 0.991184 16.2929 0.246231 20.9963C-0.498718 25.6997 0.459026 30.5146 2.9472 34.575C5.43537 38.6353 9.29067 41.6746 13.8197 43.1461C18.3487 44.6177 23.2541 44.425 27.6537 42.6026C32.0532 40.7802 35.6582 37.4478 37.8201 33.2048C39.9821 28.9618 40.5591 24.0866 39.4474 19.4561C38.3357 14.8256 35.6083 10.7437 31.7557 7.94466L29.9923 10.3717C33.267 12.7509 35.5854 16.2205 36.5303 20.1564C37.4752 24.0923 36.9848 28.2363 35.1471 31.8428C33.3095 35.4494 30.2453 38.2819 26.5056 39.831C22.766 41.38 18.5964 41.5438 14.7467 40.293C10.8971 39.0421 7.62006 36.4588 5.50512 33.0075C3.39017 29.5562 2.57609 25.4635 3.2093 21.4656C3.84251 17.4677 5.88145 13.8269 8.95938 11.1981C12.0373 8.56929 15.9522 7.125 20 7.125V4.125Z" fill="white"/>
<path d="M15.4949 30.125V21.245L16.0229 22.141H12.6149V20.717H14.4069C14.7695 20.717 15.0415 20.6423 15.2229 20.493C15.4042 20.3437 15.4949 20.077 15.4949 19.693V18.973H17.2709V30.125H15.4949ZM24.496 30.269C23.824 30.269 23.2587 30.1517 22.8 29.917C22.352 29.6717 21.984 29.3463 21.696 28.941C21.4187 28.5357 21.2053 28.0823 21.056 27.581C20.9067 27.0797 20.8053 26.5623 20.752 26.029C20.7093 25.4957 20.688 24.9837 20.688 24.493C20.688 24.0237 20.7093 23.5277 20.752 23.005C20.8053 22.4823 20.9013 21.9757 21.04 21.485C21.1893 20.9837 21.4027 20.5357 21.68 20.141C21.9573 19.7357 22.3253 19.4157 22.784 19.181C23.2427 18.9357 23.8027 18.813 24.464 18.813C25.1253 18.813 25.68 18.9303 26.128 19.165C26.5867 19.3997 26.9547 19.7143 27.232 20.109C27.52 20.5037 27.7387 20.9463 27.888 21.437C28.0373 21.9277 28.1387 22.4397 28.192 22.973C28.2453 23.5063 28.272 24.0183 28.272 24.509C28.272 25.021 28.2453 25.549 28.192 26.093C28.1387 26.6263 28.032 27.1437 27.872 27.645C27.7227 28.1357 27.5093 28.5783 27.232 28.973C26.9547 29.3677 26.592 29.6823 26.144 29.917C25.696 30.1517 25.1467 30.269 24.496 30.269ZM24.496 28.557C25.0187 28.557 25.4187 28.381 25.696 28.029C25.984 27.6663 26.1813 27.181 26.288 26.573C26.4053 25.965 26.464 25.2983 26.464 24.573C26.464 23.7943 26.4053 23.101 26.288 22.493C26.1813 21.885 25.984 21.405 25.696 21.053C25.408 20.6903 24.9973 20.509 24.464 20.509C24.0587 20.509 23.728 20.6157 23.472 20.829C23.216 21.0423 23.0187 21.341 22.88 21.725C22.7413 22.0983 22.64 22.5303 22.576 23.021C22.5227 23.501 22.496 24.013 22.496 24.557C22.496 25.0797 22.5227 25.581 22.576 26.061C22.64 26.541 22.7413 26.9677 22.88 27.341C23.0187 27.7143 23.216 28.013 23.472 28.237C23.7387 28.4503 24.08 28.557 24.496 28.557Z" fill="white"/>
<path d="M18.6885 0.430312L26.3894 5.2434C26.6714 5.41965 26.6714 5.83035 26.3894 6.0066L18.6885 10.8197C18.3888 11.007 18 10.7915 18 10.4381V0.811911C18 0.458465 18.3888 0.242986 18.6885 0.430312Z" fill="white"/>
</svg>
