<svg width="16" height="16" viewBox="0 0 16 16" fill="none" xmlns="http://www.w3.org/2000/svg">
<g id="notification-03">
<path id="Vector" d="M1.68694 9.59592C1.54517 10.498 2.17899 11.1241 2.95503 11.4361C5.9302 12.6323 10.0705 12.6323 13.0456 11.4361C13.8217 11.1241 14.4555 10.498 14.3137 9.59592C14.2266 9.04159 13.7958 8.57999 13.4766 8.12925C13.0585 7.53159 13.017 6.87972 13.0169 6.18619C13.0169 3.50599 10.7709 1.33325 8.00033 1.33325C5.22975 1.33325 2.98375 3.50599 2.98375 6.18619C2.98368 6.87972 2.94214 7.53159 2.52407 8.12925C2.20489 8.57999 1.77407 9.04159 1.68694 9.59592Z" stroke="#333135" stroke-width="1.5" stroke-linecap="round" stroke-linejoin="round"/>
<path id="Vector_2" d="M6 14C6.53075 14.4146 7.23167 14.6667 8 14.6667C8.76833 14.6667 9.46927 14.4146 10 14" stroke="#333135" stroke-width="1.5" stroke-linecap="round" stroke-linejoin="round"/>
</g>
</svg>
