<svg width="20" height="21" viewBox="0 0 20 21" fill="none" xmlns="http://www.w3.org/2000/svg">
<path d="M3.33301 6.33325C3.33301 5.15474 3.33301 4.56549 3.69912 4.19937C4.06524 3.83325 4.6545 3.83325 5.83301 3.83325C7.01152 3.83325 7.60077 3.83325 7.96689 4.19937C8.33301 4.56549 8.33301 5.15474 8.33301 6.33325V14.6666C8.33301 15.8451 8.33301 16.4343 7.96689 16.8005C7.60077 17.1666 7.01152 17.1666 5.83301 17.1666C4.6545 17.1666 4.06524 17.1666 3.69912 16.8005C3.33301 16.4343 3.33301 15.8451 3.33301 14.6666V6.33325Z" fill="#93909B"/>
<path d="M11.667 6.33325C11.667 5.15474 11.667 4.56549 12.0331 4.19937C12.3992 3.83325 12.9885 3.83325 14.167 3.83325C15.3455 3.83325 15.9347 3.83325 16.3009 4.19937C16.667 4.56549 16.667 5.15474 16.667 6.33325V14.6666C16.667 15.8451 16.667 16.4343 16.3009 16.8005C15.9347 17.1666 15.3455 17.1666 14.167 17.1666C12.9885 17.1666 12.3992 17.1666 12.0331 16.8005C11.667 16.4343 11.667 15.8451 11.667 14.6666V6.33325Z" fill="#93909B"/>
</svg>
