<svg width="40" height="40" viewBox="0 0 40 40" fill="none" xmlns="http://www.w3.org/2000/svg">
<g id="play-circle-02">
<g id="Vector" filter="url(#filter0_b_3662_11714)">
<path d="M19.6672 36.3333C28.8719 36.3333 36.3338 28.8714 36.3338 19.6667C36.3338 10.4619 28.8719 3 19.6672 3C10.4624 3 3.00049 10.4619 3.00049 19.6667C3.00049 28.8714 10.4624 36.3333 19.6672 36.3333Z" fill="#F6F6F7" fill-opacity="0.7"/>
<path d="M19.6672 36.3333C28.8719 36.3333 36.3338 28.8714 36.3338 19.6667C36.3338 10.4619 28.8719 3 19.6672 3C10.4624 3 3.00049 10.4619 3.00049 19.6667C3.00049 28.8714 10.4624 36.3333 19.6672 36.3333Z" stroke="#F2F5FC" stroke-width="1.5"/>
</g>
<g id="Group 1000005769">
<g id="Group 1000005770">
<rect id="Rectangle" x="15" y="14" width="4" height="12" rx="1" fill="url(#paint0_linear_3662_11714)"/>
<rect id="Rectangle Copy" x="21" y="14" width="4" height="12" rx="1" fill="url(#paint1_linear_3662_11714)"/>
</g>
</g>
</g>
<defs>
<filter id="filter0_b_3662_11714" x="1.25049" y="1.25" width="36.8335" height="36.8334" filterUnits="userSpaceOnUse" color-interpolation-filters="sRGB">
<feFlood flood-opacity="0" result="BackgroundImageFix"/>
<feGaussianBlur in="BackgroundImageFix" stdDeviation="0.5"/>
<feComposite in2="SourceAlpha" operator="in" result="effect1_backgroundBlur_3662_11714"/>
<feBlend mode="normal" in="SourceGraphic" in2="effect1_backgroundBlur_3662_11714" result="shape"/>
</filter>
<linearGradient id="paint0_linear_3662_11714" x1="13" y1="24.2857" x2="19.1779" y2="15.628" gradientUnits="userSpaceOnUse">
<stop stop-color="#5632BD"/>
<stop offset="1" stop-color="#33B1E7"/>
</linearGradient>
<linearGradient id="paint1_linear_3662_11714" x1="19" y1="24.2857" x2="25.1779" y2="15.628" gradientUnits="userSpaceOnUse">
<stop stop-color="#5632BD"/>
<stop offset="1" stop-color="#33B1E7"/>
</linearGradient>
</defs>
</svg>
