<svg width="48" height="48" viewBox="0 0 48 48" fill="none" xmlns="http://www.w3.org/2000/svg">
<rect width="48" height="48" rx="24" fill="url(#paint0_linear_3215_17240)"/>
<path d="M17.333 19.833C17.333 18.6545 17.333 18.0652 17.6991 17.6991C18.0652 17.333 18.6545 17.333 19.833 17.333C21.0115 17.333 21.6008 17.333 21.9669 17.6991C22.333 18.0652 22.333 18.6545 22.333 19.833V28.1663C22.333 29.3448 22.333 29.9341 21.9669 30.3003C21.6008 30.6663 21.0115 30.6663 19.833 30.6663C18.6545 30.6663 18.0652 30.6663 17.6991 30.3003C17.333 29.9341 17.333 29.3448 17.333 28.1663V19.833Z" fill="#A7A5AF" stroke="#A7A5AF" stroke-width="1.5"/>
<path d="M25.667 19.833C25.667 18.6545 25.667 18.0652 26.0331 17.6991C26.3992 17.333 26.9885 17.333 28.167 17.333C29.3455 17.333 29.9347 17.333 30.3009 17.6991C30.667 18.0652 30.667 18.6545 30.667 19.833V28.1663C30.667 29.3448 30.667 29.9341 30.3009 30.3003C29.9347 30.6663 29.3455 30.6663 28.167 30.6663C26.9885 30.6663 26.3992 30.6663 26.0331 30.3003C25.667 29.9341 25.667 29.3448 25.667 28.1663V19.833Z" fill="#A7A5AF" stroke="#A7A5AF" stroke-width="1.5"/>
<defs>
<linearGradient id="paint0_linear_3215_17240" x1="24" y1="8.9407e-08" x2="21" y2="48.5" gradientUnits="userSpaceOnUse">
<stop stop-color="#F5F7FA"/>
<stop offset="1" stop-color="#E3E2E7"/>
</linearGradient>
</defs>
</svg>
