<svg width="48" height="48" viewBox="0 0 48 48" fill="none" xmlns="http://www.w3.org/2000/svg">
<path d="M0 24C0 10.7452 10.7452 0 24 0C37.2548 0 48 10.7452 48 24C48 37.2548 37.2548 48 24 48C10.7452 48 0 37.2548 0 24Z" fill="url(#paint0_linear_3215_15393)"/>
<path d="M30.5626 24.8518C30.2259 26.1948 28.6351 27.1438 25.4532 29.0419C22.3773 30.8767 20.8394 31.7942 19.6 31.4254C19.0876 31.2729 18.6207 30.9834 18.2442 30.5845C17.3335 29.6197 17.3335 27.7484 17.3335 24.0058C17.3335 20.2633 17.3335 18.392 18.2442 17.4272C18.6207 17.0283 19.0876 16.7387 19.6 16.5863C20.8394 16.2175 22.3773 17.1349 25.4532 18.9698C28.6351 20.8678 30.2259 21.8169 30.5626 23.1598C30.7016 23.7142 30.7016 24.2974 30.5626 24.8518Z" fill="#A7A5AF" stroke="#A7A5AF" stroke-width="1.5" stroke-linejoin="round"/>
<defs>
<linearGradient id="paint0_linear_3215_15393" x1="24" y1="8.9407e-08" x2="21" y2="48.5" gradientUnits="userSpaceOnUse">
<stop stop-color="#F5F7FA"/>
<stop offset="1" stop-color="#E3E2E7"/>
</linearGradient>
</defs>
</svg>
