<svg width="42" height="42" viewBox="0 0 42 42" fill="none" xmlns="http://www.w3.org/2000/svg">
<path d="M20.9996 40.5032C31.7712 40.5032 40.5032 31.7712 40.5032 20.9996C40.5032 10.2281 31.7712 1.49609 20.9996 1.49609C10.2281 1.49609 1.49609 10.2281 1.49609 20.9996C1.49609 31.7712 10.2281 40.5032 20.9996 40.5032Z" stroke="white" stroke-width="1.5"/>
<path d="M16.125 19.4394V22.5607C16.125 25.5239 16.125 27.0054 17.0139 27.6044C17.9027 28.2031 19.1184 27.5406 21.5499 26.2155L24.4134 24.6546C27.3393 23.06 28.8023 22.2627 28.8023 21.0001C28.8023 19.7374 27.3393 18.9401 24.4134 17.3455L21.5499 15.7847C19.1184 14.4596 17.9027 13.797 17.0139 14.3958C16.125 14.9947 16.125 16.4762 16.125 19.4394Z" fill="white"/>
</svg>
