<svg width="40" height="40" viewBox="0 0 40 40" fill="none" xmlns="http://www.w3.org/2000/svg">
<g filter="url(#filter0_b_3662_11711)">
<path d="M20.0002 36.6667C29.2049 36.6667 36.6668 29.2048 36.6668 20C36.6668 10.7953 29.2049 3.33337 20.0002 3.33337C10.7954 3.33337 3.3335 10.7953 3.3335 20C3.3335 29.2048 10.7954 36.6667 20.0002 36.6667Z" fill="#F6F6F7" fill-opacity="0.7"/>
<path d="M20.0002 36.6667C29.2049 36.6667 36.6668 29.2048 36.6668 20C36.6668 10.7953 29.2049 3.33337 20.0002 3.33337C10.7954 3.33337 3.3335 10.7953 3.3335 20C3.3335 29.2048 10.7954 36.6667 20.0002 36.6667Z" stroke="#F2F5FC" stroke-width="1.5"/>
</g>
<path d="M15.8335 18.6663V21.3336C15.8335 23.8658 15.8335 25.1318 16.5931 25.6436C17.3527 26.1553 18.3915 25.5891 20.4693 24.4568L22.9163 23.123C25.4167 21.7603 26.6668 21.079 26.6668 20C26.6668 18.921 25.4167 18.2396 22.9163 16.877L20.4693 15.5432C18.3915 14.4108 17.3527 13.8446 16.5931 14.3563C15.8335 14.8681 15.8335 16.1341 15.8335 18.6663Z" fill="url(#paint0_linear_3662_11711)"/>
<defs>
<filter id="filter0_b_3662_11711" x="1.5835" y="1.58337" width="36.8335" height="36.8334" filterUnits="userSpaceOnUse" color-interpolation-filters="sRGB">
<feFlood flood-opacity="0" result="BackgroundImageFix"/>
<feGaussianBlur in="BackgroundImageFix" stdDeviation="0.5"/>
<feComposite in2="SourceAlpha" operator="in" result="effect1_backgroundBlur_3662_11711"/>
<feBlend mode="normal" in="SourceGraphic" in2="effect1_backgroundBlur_3662_11711" result="shape"/>
</filter>
<linearGradient id="paint0_linear_3662_11711" x1="17.4995" y1="18.7842" x2="28.6268" y2="20.2516" gradientUnits="userSpaceOnUse">
<stop stop-color="#4E54C8"/>
<stop offset="1" stop-color="#17A0B2" stop-opacity="0.933333"/>
</linearGradient>
</defs>
</svg>
