<svg width="40" height="45" viewBox="0 0 40 45" fill="none" xmlns="http://www.w3.org/2000/svg">
<path d="M20 4.125C24.7621 4.125 29.3679 5.82417 32.989 8.91688C36.6101 12.0096 39.0088 16.2929 39.7538 20.9963C40.4987 25.6997 39.541 30.5146 37.0528 34.575C34.5646 38.6353 30.7093 41.6746 26.1803 43.1461C21.6513 44.6177 16.7459 44.425 12.3463 42.6026C7.94675 40.7802 4.3418 37.4478 2.17987 33.2048C0.0179368 28.9618 -0.55908 24.0866 0.552603 19.4561C1.66429 14.8256 4.39171 10.7437 8.2443 7.94466L10.0077 10.3717C6.73295 12.7509 4.41464 16.2205 3.46971 20.1564C2.52478 24.0923 3.01525 28.2363 4.85289 31.8428C6.69053 35.4494 9.75474 38.2819 13.4944 39.831C17.234 41.38 21.4036 41.5438 25.2533 40.293C29.1029 39.0421 32.3799 36.4588 34.4949 33.0075C36.6098 29.5562 37.4239 25.4635 36.7907 21.4656C36.1575 17.4677 34.1186 13.8269 31.0406 11.1981C27.9627 8.56929 24.0478 7.125 20 7.125V4.125Z" fill="white"/>
<path d="M15.4949 30.125V21.245L16.0229 22.141H12.6149V20.717H14.4069C14.7695 20.717 15.0415 20.6423 15.2229 20.493C15.4042 20.3437 15.4949 20.077 15.4949 19.693V18.973H17.2709V30.125H15.4949ZM24.496 30.269C23.824 30.269 23.2587 30.1517 22.8 29.917C22.352 29.6717 21.984 29.3463 21.696 28.941C21.4187 28.5357 21.2053 28.0823 21.056 27.581C20.9067 27.0797 20.8053 26.5623 20.752 26.029C20.7093 25.4957 20.688 24.9837 20.688 24.493C20.688 24.0237 20.7093 23.5277 20.752 23.005C20.8053 22.4823 20.9013 21.9757 21.04 21.485C21.1893 20.9837 21.4027 20.5357 21.68 20.141C21.9573 19.7357 22.3253 19.4157 22.784 19.181C23.2427 18.9357 23.8027 18.813 24.464 18.813C25.1253 18.813 25.68 18.9303 26.128 19.165C26.5867 19.3997 26.9547 19.7143 27.232 20.109C27.52 20.5037 27.7387 20.9463 27.888 21.437C28.0373 21.9277 28.1387 22.4397 28.192 22.973C28.2453 23.5063 28.272 24.0183 28.272 24.509C28.272 25.021 28.2453 25.549 28.192 26.093C28.1387 26.6263 28.032 27.1437 27.872 27.645C27.7227 28.1357 27.5093 28.5783 27.232 28.973C26.9547 29.3677 26.592 29.6823 26.144 29.917C25.696 30.1517 25.1467 30.269 24.496 30.269ZM24.496 28.557C25.0187 28.557 25.4187 28.381 25.696 28.029C25.984 27.6663 26.1813 27.181 26.288 26.573C26.4053 25.965 26.464 25.2983 26.464 24.573C26.464 23.7943 26.4053 23.101 26.288 22.493C26.1813 21.885 25.984 21.405 25.696 21.053C25.408 20.6903 24.9973 20.509 24.464 20.509C24.0587 20.509 23.728 20.6157 23.472 20.829C23.216 21.0423 23.0187 21.341 22.88 21.725C22.7413 22.0983 22.64 22.5303 22.576 23.021C22.5227 23.501 22.496 24.013 22.496 24.557C22.496 25.0797 22.5227 25.581 22.576 26.061C22.64 26.541 22.7413 26.9677 22.88 27.341C23.0187 27.7143 23.216 28.013 23.472 28.237C23.7387 28.4503 24.08 28.557 24.496 28.557Z" fill="white"/>
<path d="M21.3115 0.430312L13.6106 5.2434C13.3286 5.41965 13.3286 5.83035 13.6106 6.0066L21.3115 10.8197C21.6112 11.007 22 10.7915 22 10.4381V0.811911C22 0.458465 21.6112 0.242986 21.3115 0.430312Z" fill="white"/>
</svg>
