<svg width="24" height="25" viewBox="0 0 24 25" fill="none" xmlns="http://www.w3.org/2000/svg">
<path d="M21.6432 6.54388C22.2699 6.15222 22.2699 5.23956 21.6432 4.84789L16.53 1.65214C15.864 1.23586 15 1.7147 15 2.50013V8.89164C15 9.67707 15.864 10.1559 16.53 9.73964L21.6432 6.54388Z" fill="#A8A8A8"/>
<path d="M2.47008 19.5439C1.84341 19.1522 1.84341 18.2396 2.47008 17.8479L7.58328 14.6521C8.24933 14.2359 9.11328 14.7147 9.11328 15.5001V21.8916C9.11328 22.6771 8.24933 23.1559 7.58328 22.7396L2.47008 19.5439Z" fill="#A8A8A8"/>
<path d="M4 11.5V11.5C4 8.18629 6.68629 5.5 10 5.5V5.5H15" stroke="#A8A8A8" stroke-width="2" stroke-linecap="round" stroke-linejoin="round"/>
<path d="M19 12.5V12.5C19 15.8137 16.3137 18.5 13 18.5V18.5H8" stroke="#A8A8A8" stroke-width="2" stroke-linecap="round" stroke-linejoin="round"/>
</svg>
