<svg width="24" height="24" viewBox="0 0 24 24" fill="none" xmlns="http://www.w3.org/2000/svg">
<g clip-path="url(#clip0_4782_11306)">
<path d="M20.6149 4.98028C21.2497 4.58985 21.2497 3.66708 20.6149 3.27665L15.5238 0.145853C14.8576 -0.263885 14 0.215488 14 0.997672V7.25926C14 8.04145 14.8576 8.52082 15.5238 8.11108L20.6149 4.98028Z" fill="#A8A8A8"/>
<path d="M3 9.83945C3 6.57895 5.64316 3.93579 8.90366 3.93579H9H14" stroke="#A8A8A8" stroke-width="2" stroke-linecap="round" stroke-linejoin="round"/>
<path d="M3.4996 20.7232C2.86472 20.3327 2.86472 19.4099 3.4996 19.0195L8.59062 15.8887C9.25689 15.479 10.1145 15.9584 10.1145 16.7405V23.0021C10.1145 23.7843 9.25689 24.2637 8.59061 23.8539L3.4996 20.7232Z" fill="#A8A8A8"/>
<path d="M20 13.7749C20 17.0355 17.3568 19.6786 14.0963 19.6786H14H9" stroke="#A8A8A8" stroke-width="2" stroke-linecap="round" stroke-linejoin="round"/>
<path d="M12 15V9.31633C12 9.05613 11.7178 8.90761 11.52 9.06373L10 10.2636" stroke="#A8A8A8" stroke-width="1.5" stroke-linecap="round" stroke-linejoin="round"/>
</g>
<defs>
<clipPath id="clip0_4782_11306">
<rect width="24" height="24" fill="white"/>
</clipPath>
</defs>
</svg>
