<svg width="24" height="24" viewBox="0 0 24 24" fill="none" xmlns="http://www.w3.org/2000/svg">
<path d="M2.06828 10.3262C1.97398 10.8791 1.92631 11.4389 1.92578 11.9998H3.99878C3.99978 11.4939 4.04926 10.9892 4.14653 10.4927C3.45128 10.4529 2.75903 10.4008 2.06828 10.3262Z" fill="#FEFEFE"/>
<path d="M3.58984 6.49023C3.11976 7.19696 2.74171 7.96075 2.46484 8.76311C3.18109 8.83811 3.90034 8.88348 4.62072 8.91836C4.83306 8.41866 5.09606 7.94205 5.40559 7.49598C4.79409 7.17173 4.18884 6.83648 3.58984 6.49023Z" fill="#FEFEFE"/>
<path d="M19.5 6C18.5 5 18 4 16.463 3.05554C15.1734 2.40333 13.7578 2.03846 12.3137 1.98607C10.8695 1.93367 9.43119 2.19499 8.09777 2.75203C6.76435 3.30907 5.56756 4.14857 4.58984 5.2127C5.21209 5.5672 5.36675 5.666 6 6C6.81118 5.22556 7.9425 4.37344 9 4C10.0575 3.62656 11.3824 3.40668 12.5 3.5C13.6176 3.59332 15.0191 3.95636 16 4.5C16.7762 4.93021 17.8285 6.10176 18.5 7L16.5 9L22.0738 9.45995L21.5 4L19.5 6Z" fill="#FEFEFE"/>
<path d="M4.57422 18.46C5.57422 19.46 6.07422 20.46 7.61125 21.4044C8.9008 22.0566 10.3164 22.4215 11.7606 22.4739C13.2047 22.5263 14.643 22.265 15.9764 21.7079C17.3099 21.1509 18.5067 20.3114 19.4844 19.2473C18.8621 18.8928 18.7075 18.794 18.0742 18.46C17.263 19.2344 16.1317 20.0865 15.0742 20.46C14.0167 20.8334 12.6918 21.0533 11.5742 20.96C10.4566 20.8666 9.05515 20.5036 8.07422 19.96C7.29797 19.5298 6.24573 18.3582 5.57422 17.46L7.57422 15.46L2.00037 15L2.57422 20.46L4.57422 18.46Z" fill="#FEFEFE"/>
<path d="M21.9349 13.9129C22.0292 13.36 22.0769 12.8001 22.0774 12.2393H20.2502C20.2491 12.7453 20.2537 13.5 20.25 13.9555C20.9597 13.9555 21.2632 13.9129 21.9349 13.9129Z" fill="#FEFEFE"/>
<path d="M20.4095 17.7494C20.8797 17.0428 21.2577 16.279 21.5345 15.4766C21 15.5 20.5 15.5 20 15.4991C19.7877 15.9988 19.3096 16.5531 19 16.9991C19.6115 17.3239 19.8105 17.4037 20.4095 17.7494Z" fill="#FEFEFE"/>
</svg>
