<svg width="18" height="18" viewBox="0 0 18 18" fill="none" xmlns="http://www.w3.org/2000/svg">
<path id="Subtract" fill-rule="evenodd" clip-rule="evenodd" d="M11.6269 2.56988C11.8513 2.65312 12.0976 2.65312 12.5901 2.65312H12.6809C13.9375 2.65312 14.5658 2.65312 14.9562 3.0435C15.3466 3.43386 15.3466 4.06215 15.3466 5.31875V5.4096C15.3466 5.90211 15.3466 6.14838 15.4298 6.37273C15.4413 6.40389 15.4541 6.4346 15.4679 6.46481C15.5678 6.68231 15.7418 6.85645 16.0901 7.20471C16.8917 8.00625 17.2925 8.40709 17.3294 8.90025C17.3344 8.9665 17.3344 9.03317 17.3294 9.09942C17.2925 9.5925 16.8918 9.99319 16.0905 10.7945L16.0901 10.7949L16.0897 10.7953C15.7417 11.1434 15.5677 11.3174 15.4679 11.5348C15.4541 11.5651 15.4413 11.5958 15.4298 11.6269C15.3466 11.8513 15.3466 12.0976 15.3466 12.5901V12.6809C15.3466 13.9375 15.3466 14.5658 14.9562 14.9562C14.5658 15.3466 13.9375 15.3466 12.6809 15.3466H12.5901C12.0976 15.3466 11.8513 15.3466 11.6269 15.4298C11.5958 15.4413 11.5651 15.4541 11.5348 15.4679C11.3174 15.5677 11.1434 15.7417 10.7953 16.0897L10.7949 16.0901L10.7945 16.0905C9.99319 16.8918 9.5925 17.2925 9.09942 17.3294C9.03317 17.3344 8.9665 17.3344 8.90025 17.3294C8.40709 17.2925 8.00625 16.8917 7.20471 16.0901C6.85645 15.7418 6.68231 15.5678 6.46481 15.4679C6.4346 15.4541 6.40389 15.4413 6.37273 15.4298C6.14838 15.3466 5.90211 15.3466 5.4096 15.3466H5.31875C4.06215 15.3466 3.43386 15.3466 3.0435 14.9562C2.65312 14.5658 2.65312 13.9375 2.65312 12.6809V12.5901C2.65312 12.0976 2.65312 11.8513 2.56988 11.6269C2.55831 11.5958 2.5456 11.5651 2.53174 11.5348C2.43203 11.3175 2.25806 11.1435 1.91026 10.7956L1.90955 10.7949L1.90931 10.7947C1.1079 9.99326 0.707184 9.59254 0.670229 9.09942C0.665262 9.03317 0.665262 8.9665 0.670229 8.90025C0.707187 8.40709 1.10798 8.00625 1.90955 7.20471C2.25783 6.85645 2.43196 6.68231 2.53174 6.46481C2.5456 6.4346 2.55831 6.40389 2.56988 6.37273C2.65312 6.14838 2.65312 5.90211 2.65312 5.4096V5.31875C2.65312 4.06215 2.65312 3.43386 3.0435 3.0435C3.43386 2.65312 4.06215 2.65312 5.31875 2.65312H5.4096C5.90211 2.65312 6.14838 2.65312 6.37273 2.56988C6.40389 2.55831 6.4346 2.5456 6.46481 2.53174C6.68231 2.43196 6.85645 2.25783 7.20471 1.90955C8.00625 1.10798 8.40709 0.707187 8.90025 0.670229C8.9665 0.665262 9.03317 0.665262 9.09942 0.670229C9.59254 0.707184 9.99327 1.10791 10.7947 1.90934L10.7949 1.90956L10.7957 1.91031C11.1435 2.25808 11.3175 2.43203 11.5348 2.53174C11.5651 2.5456 11.5958 2.55831 11.6269 2.56988ZM9.75 5.6665C9.75 5.25229 9.41421 4.9165 9 4.9165C8.58579 4.9165 8.25 5.25229 8.25 5.6665V8.99984C8.25 9.27647 8.40228 9.53064 8.6462 9.66114L10.9826 10.9111C11.3478 11.1065 11.8023 10.9689 11.9977 10.6036C12.1931 10.2384 12.0554 9.78393 11.6902 9.58853L9.75 8.5505V5.6665Z" fill="url(#paint0_linear_3756_27922)"/>
<defs>
<linearGradient id="paint0_linear_3756_27922" x1="0.868544" y1="9.48696" x2="21.5575" y2="10.9037" gradientUnits="userSpaceOnUse">
<stop stop-color="#5632BD"/>
<stop offset="1" stop-color="#33B1E7"/>
</linearGradient>
</defs>
</svg>
