<svg width="223" height="166" viewBox="0 0 223 166" fill="none" xmlns="http://www.w3.org/2000/svg">
<path d="M222 99.2006C222 102.498 219.315 105.179 215.994 105.179C212.674 105.179 209.988 102.498 209.988 99.2006C209.988 95.9028 212.674 93.2227 215.994 93.2227C219.315 93.2227 222 95.9028 222 99.2006Z" stroke="#FFB648" stroke-width="2"/>
<path d="M46.954 31.0237C46.954 33.6208 44.8392 35.7329 42.222 35.7329C39.6048 35.7329 37.49 33.6208 37.49 31.0237C37.49 28.4266 39.6048 26.3145 42.222 26.3145C44.8392 26.3145 46.954 28.4266 46.954 31.0237Z" stroke="#81DB6C" stroke-width="2"/>
<path d="M184.427 32.0436C184.427 34.4294 182.484 36.3685 180.081 36.3685C177.679 36.3685 175.736 34.4294 175.736 32.0436C175.736 29.6579 177.679 27.7188 180.081 27.7188C182.484 27.7188 184.427 29.6579 184.427 32.0436Z" stroke="#5896FF" stroke-width="1.5"/>
<path d="M30.3639 143.943C30.3639 145.767 28.8787 147.249 27.0425 147.249C25.2063 147.249 23.7212 145.767 23.7212 143.943C23.7212 142.119 25.2063 140.637 27.0425 140.637C28.8787 140.637 30.3639 142.119 30.3639 143.943Z" stroke="#81DB6C"/>
<path d="M7.14267 102.638C7.14267 104.462 5.65754 105.944 3.82134 105.944C1.98513 105.944 0.5 104.462 0.5 102.638C0.5 100.814 1.98513 99.332 3.82134 99.332C5.65754 99.332 7.14267 100.814 7.14267 102.638Z" stroke="#FFB648"/>
<path d="M168.86 153.855C168.86 155.679 167.375 157.161 165.539 157.161C163.703 157.161 162.218 155.679 162.218 153.855C162.218 152.031 163.703 150.549 165.539 150.549C167.375 150.549 168.86 152.031 168.86 153.855Z" stroke="#81DB6C"/>
<line y1="-0.5" x2="8.51814" y2="-0.5" transform="matrix(0.448639 0.893713 -0.895137 0.44579 5.42053 61.6621)" stroke="#5896FF"/>
<line y1="-0.5" x2="8.53799" y2="-0.5" transform="matrix(-0.895137 0.44579 -0.448639 -0.893713 11.7894 62.9336)" stroke="#5896FF"/>
<line y1="-0.5" x2="8.51814" y2="-0.5" transform="matrix(0.448747 0.893659 -0.895191 0.445683 143.088 7.14648)" stroke="#FFB648"/>
<line y1="-0.5" x2="8.53799" y2="-0.5" transform="matrix(-0.895137 0.44579 -0.448639 -0.893713 149.456 8.41211)" stroke="#FFB648"/>
<line y1="-0.5" x2="8.51814" y2="-0.5" transform="matrix(0.448639 0.893713 -0.895137 0.44579 57.6675 157.482)" stroke="#FFB648"/>
<line y1="-0.5" x2="8.53799" y2="-0.5" transform="matrix(-0.895137 0.44579 -0.448639 -0.893713 64.0363 158.748)" stroke="#FFB648"/>
<line y1="-0.5" x2="5.67973" y2="-0.5" transform="matrix(0.448747 0.893659 -0.895191 0.445683 43.1449 3.8418)" stroke="#FFB648"/>
<line y1="-0.5" x2="5.69199" y2="-0.5" transform="matrix(-0.895137 0.44579 -0.448639 -0.893713 47.3906 4.47461)" stroke="#FFB648"/>
<line y1="-0.5" x2="5.67973" y2="-0.5" transform="matrix(0.448747 0.893659 -0.895191 0.445683 204.862 45.9707)" stroke="#81DB6C"/>
<line y1="-0.5" x2="5.69199" y2="-0.5" transform="matrix(-0.895137 0.44579 -0.448639 -0.893713 209.108 46.6035)" stroke="#81DB6C"/>
<path d="M187.086 85.3661L181.593 80.4004L186.998 75.339L187.086 85.3661Z" stroke="#5896FF"/>
<path d="M33.6623 103.538L28.169 98.5723L33.5736 93.5109L33.6623 103.538Z" stroke="#FFB648"/>
<path d="M80.6297 10.387L83.1491 3.43942L89.9031 6.49072L80.6297 10.387Z" stroke="#81DB6C"/>
<path d="M192.925 135.698L199.546 128.143L206.582 135.315L192.925 135.698Z" stroke="#81DB6C" stroke-width="1.3"/>
<path d="M110.362 62.6934C104.734 62.6934 99.2316 64.3558 94.5516 67.4705C89.8716 70.5851 86.224 75.0121 84.07 80.1916C81.916 85.3711 81.3524 91.0704 82.4505 96.569C83.5486 102.067 86.259 107.118 90.2391 111.082C94.2191 115.047 99.2899 117.746 104.81 118.84C110.331 119.934 116.053 119.372 121.253 117.227C126.453 115.082 130.898 111.448 134.025 106.787C137.152 102.126 138.821 96.6452 138.821 91.039C138.821 83.5213 135.823 76.3114 130.486 70.9956C125.149 65.6798 117.91 62.6934 110.362 62.6934Z" fill="url(#paint0_linear_1957_12212)"/>
<path d="M126.601 86.3429L109.487 104.237C109.021 104.725 108.461 105.113 107.84 105.38C107.22 105.647 106.552 105.786 105.876 105.79H105.854C105.182 105.79 104.517 105.655 103.899 105.395C103.28 105.134 102.72 104.752 102.252 104.272L93.1734 94.9567C92.6797 94.4934 92.2854 93.9353 92.0141 93.3161C91.7429 92.6968 91.6004 92.0293 91.5952 91.3537C91.5901 90.6781 91.7224 90.0085 91.9842 89.3853C92.246 88.762 92.6318 88.198 93.1184 87.7273C93.605 87.2566 94.1822 86.889 94.8154 86.6466C95.4485 86.4042 96.1244 86.2921 96.8022 86.317C97.48 86.3419 98.1458 86.5033 98.7593 86.7914C99.3728 87.0796 99.9213 87.4885 100.372 87.9936L105.812 93.5777L119.32 79.4483C119.775 78.9721 120.319 78.5898 120.922 78.3232C121.525 78.0565 122.174 77.9107 122.834 77.8942C123.493 77.8776 124.149 77.9906 124.765 78.2266C125.381 78.4626 125.944 78.8171 126.422 79.2698C126.9 79.7226 127.283 80.2646 127.551 80.8651C127.819 81.4655 127.965 82.1126 127.982 82.7694C127.999 83.4262 127.885 84.0799 127.648 84.693C127.411 85.3061 127.055 85.8668 126.601 86.3429Z" fill="url(#paint1_linear_1957_12212)"/>
<path d="M111.588 139.903C138.688 139.903 160.656 118.022 160.656 91.0299C160.656 64.0377 138.688 42.1562 111.588 42.1562C84.488 42.1562 62.5193 64.0377 62.5193 91.0299C62.5193 118.022 84.488 139.903 111.588 139.903Z" fill="#F5FBF0"/>
<path d="M110.85 128.877C131.837 128.877 148.85 111.931 148.85 91.0272C148.85 70.1235 131.837 53.1777 110.85 53.1777C89.8628 53.1777 72.8494 70.1235 72.8494 91.0272C72.8494 111.931 89.8628 128.877 110.85 128.877Z" fill="#E5F4D9"/>
<g clip-path="url(#clip0_1957_12212)">
<path d="M111.588 117.855C126.87 117.855 139.258 105.516 139.258 90.2947C139.258 75.0735 126.87 62.7344 111.588 62.7344C96.306 62.7344 83.9176 75.0735 83.9176 90.2947C83.9176 105.516 96.306 117.855 111.588 117.855Z" fill="#00BA00"/>
<path fill-rule="evenodd" clip-rule="evenodd" d="M102.948 103.735L92.8278 92.9471C91.4423 91.4701 91.5219 89.1333 93.0047 87.7534C94.4876 86.3734 96.8337 86.4528 98.2192 87.9296L106.025 96.2511L118.381 84.7523C118.492 84.6488 118.608 84.554 118.728 84.4667L124.539 79.0595C126.022 77.6795 128.368 77.759 129.753 79.2359C131.139 80.7127 131.059 83.0497 129.577 84.4296L111.83 100.945L111.811 100.925L105.672 106.638L102.948 103.735Z" fill="white"/>
</g>
<defs>
<linearGradient id="paint0_linear_1957_12212" x1="130.489" y1="111.086" x2="90.3957" y2="70.8323" gradientUnits="userSpaceOnUse">
<stop stop-color="#13B601"/>
<stop offset="0.52" stop-color="#13B601"/>
<stop offset="1" stop-color="#CBF4B4"/>
</linearGradient>
<linearGradient id="paint1_linear_1957_12212" x1="118.17" y1="95.5919" x2="101.923" y2="79.2785" gradientUnits="userSpaceOnUse">
<stop stop-color="#CBF4B4"/>
<stop offset="0.57" stop-color="white"/>
<stop offset="1" stop-color="white"/>
</linearGradient>
<clipPath id="clip0_1957_12212">
<rect width="55.3405" height="55.1206" fill="white" transform="translate(83.9176 62.7344)"/>
</clipPath>
</defs>
</svg>
