<svg width="21" height="20" viewBox="0 0 21 20" fill="none" xmlns="http://www.w3.org/2000/svg">
<g id="time-setting-03">
<path id="Vector" d="M14.0906 3.65324C13.5981 3.65324 13.3517 3.65324 13.1274 3.57C13.0962 3.55843 13.0656 3.54572 13.0353 3.53186C12.8178 3.43208 12.6437 3.25795 12.2954 2.90968C11.4938 2.1081 11.0931 1.70731 10.5999 1.67035C10.5337 1.66538 10.467 1.66538 10.4007 1.67035C9.90758 1.70731 9.50674 2.1081 8.7052 2.90968C8.35693 3.25795 8.1828 3.43208 7.9653 3.53186C7.93509 3.54572 7.90438 3.55843 7.87322 3.57C7.64887 3.65324 7.4026 3.65324 6.91008 3.65324H6.81923C5.56264 3.65324 4.93435 3.65324 4.54398 4.04362C4.15361 4.43398 4.15361 5.06228 4.15361 6.31887V6.40972C4.15361 6.90223 4.15361 7.1485 4.07037 7.37285C4.0588 7.40401 4.04608 7.43473 4.03223 7.46493C3.93245 7.68243 3.75832 7.85657 3.41004 8.20483C2.60847 9.00638 2.20768 9.40721 2.17072 9.90038C2.16575 9.96663 2.16575 10.0333 2.17072 10.0995C2.20768 10.5927 2.60847 10.9935 3.41004 11.795C3.75832 12.1434 3.93245 12.3175 4.03223 12.535C4.04608 12.5652 4.0588 12.5959 4.07037 12.627C4.15361 12.8514 4.15361 13.0977 4.15361 13.5902V13.681C4.15361 14.9376 4.15361 15.566 4.54398 15.9563C4.93435 16.3467 5.56264 16.3467 6.81923 16.3467H6.91008C7.4026 16.3467 7.64887 16.3467 7.87322 16.4299C7.90438 16.4415 7.93509 16.4542 7.9653 16.468C8.1828 16.5679 8.35693 16.742 8.7052 17.0902C9.50674 17.8918 9.90758 18.2926 10.4007 18.3295C10.467 18.3345 10.5337 18.3345 10.5999 18.3295C11.0931 18.2926 11.4938 17.8918 12.2954 17.0902C12.6437 16.742 12.8178 16.5679 13.0353 16.468C13.0656 16.4542 13.0962 16.4415 13.1274 16.4299C13.3517 16.3467 13.5981 16.3467 14.0906 16.3467H14.1814C15.438 16.3467 16.0663 16.3467 16.4567 15.9563C16.8471 15.566 16.8471 14.9376 16.8471 13.681V13.5902C16.8471 13.0977 16.8471 12.8514 16.9302 12.627C16.9418 12.5959 16.9546 12.5652 16.9684 12.535C17.0682 12.3175 17.2423 12.1434 17.5906 11.795C18.3922 10.9935 18.793 10.5927 18.8299 10.0995C18.8349 10.0333 18.8349 9.96663 18.8299 9.90038C18.793 9.40721 18.3922 9.00638 17.5906 8.20483C17.2423 7.85657 17.0682 7.68243 16.9684 7.46493C16.9546 7.43473 16.9418 7.40401 16.9302 7.37285C16.8471 7.1485 16.8471 6.90223 16.8471 6.40972V6.31887C16.8471 5.06228 16.8471 4.43398 16.4567 4.04362C16.0663 3.65324 15.438 3.65324 14.1814 3.65324H14.0906Z" stroke="#83808A" stroke-width="1.5"/>
<path id="Vector_2" d="M10.5 6.66663V9.99996L12.8364 11.25" stroke="#83808A" stroke-width="1.5" stroke-linecap="round" stroke-linejoin="round"/>
</g>
</svg>
