<svg width="20" height="20" viewBox="0 0 20 20" fill="none" xmlns="http://www.w3.org/2000/svg">
<path d="M9.58317 11.6767C7.87765 11.5973 6.15262 12.0057 4.64781 12.9017C3.46884 13.6037 0.377642 15.0371 2.26039 16.8308C3.1801 17.707 4.20441 18.3337 5.49223 18.3337H9.99984" stroke="#56555A" stroke-width="1.5" stroke-linecap="round" stroke-linejoin="round"/>
<path d="M12.9165 5.41699C12.9165 7.48806 11.2376 9.16699 9.1665 9.16699C7.09544 9.16699 5.4165 7.48806 5.4165 5.41699C5.4165 3.34593 7.09544 1.66699 9.1665 1.66699C11.2376 1.66699 12.9165 3.34593 12.9165 5.41699Z" stroke="#56555A" stroke-width="1.5"/>
<path d="M14.9998 17.2616V18.333M14.9998 17.2616C14.0358 17.2616 13.1866 16.7881 12.6884 16.0691M14.9998 17.2616C15.9638 17.2616 16.8131 16.7881 17.3113 16.0691M12.6884 16.0691L11.6668 16.7258M12.6884 16.0691C12.3938 15.6438 12.2221 15.1328 12.2221 14.583C12.2221 14.0333 12.3938 13.5223 12.6883 13.0971M17.3113 16.0691L18.3328 16.7258M17.3113 16.0691C17.6058 15.6438 17.7776 15.1328 17.7776 14.583C17.7776 14.0333 17.6059 13.5223 17.3113 13.0971M14.9998 11.9044C15.9639 11.9044 16.8133 12.378 17.3113 13.0971M14.9998 11.9044C14.0358 11.9044 13.1864 12.378 12.6883 13.0971M14.9998 11.9044V10.833M17.3113 13.0971L18.3332 12.4402M12.6883 13.0971L11.6665 12.4402" stroke="#56555A" stroke-width="1.5" stroke-linecap="round"/>
</svg>
