<svg width="20" height="21" viewBox="0 0 20 21" fill="none" xmlns="http://www.w3.org/2000/svg">
<path fill-rule="evenodd" clip-rule="evenodd" d="M6.25 6.11523C6.25 4.04627 7.93103 2.36523 10 2.36523C12.069 2.36523 13.75 4.04627 13.75 6.11523C13.75 8.1842 12.069 9.86523 10 9.86523C7.93103 9.86523 6.25 8.1842 6.25 6.11523Z" stroke="#979693" stroke-width="1.4" stroke-miterlimit="10"/>
<path fill-rule="evenodd" clip-rule="evenodd" d="M1.00896 15.5086C1.00896 13.5103 2.96315 11.8848 5.36554 11.8848H5.75996C5.9751 11.8848 6.19024 11.9146 6.38745 11.9668L7.39143 12.2427C9.08566 12.705 10.9233 12.705 12.6175 12.2427L13.6215 11.9668C13.8277 11.9146 14.0339 11.8848 14.249 11.8848H14.6434C17.0458 11.8848 19 13.5103 19 15.5086V16.6569C19 17.3877 18.3635 18.0066 17.503 18.1259C12.5369 18.8044 7.46315 18.8044 2.49701 18.1259C1.63645 18.0066 1 17.3877 1 16.6569V15.5086H1.00896Z" stroke="#979693" stroke-width="1.4" stroke-miterlimit="10"/>
</svg>
