<svg width="20" height="21" viewBox="0 0 20 21" fill="none" xmlns="http://www.w3.org/2000/svg">
<path d="M17.9167 10.9163C17.9167 15.5187 14.1857 19.2497 9.58333 19.2497C4.98096 19.2497 1.25 15.5187 1.25 10.9163C1.25 6.31397 4.98096 2.58301 9.58333 2.58301C10.5573 2.58301 11.4922 2.7501 12.3611 3.05719" stroke="#56555A" stroke-width="1.5" stroke-linecap="round"/>
<path d="M16.2497 8C16.2497 9.15058 15.3169 10.0833 14.1663 10.0833C13.0158 10.0833 12.083 9.15058 12.083 8C12.083 6.84941 13.0158 5.91667 14.1663 5.91667C15.3169 5.91667 16.2497 6.84941 16.2497 8ZM16.2497 8V1.75C16.5274 2.16667 16.7497 3.91667 18.7497 4.25" stroke="#56555A" stroke-width="1.5" stroke-linecap="round" stroke-linejoin="round"/>
<path d="M10.833 10.917C10.833 10.2267 10.2733 9.66699 9.58301 9.66699C8.89267 9.66699 8.33301 10.2267 8.33301 10.917C8.33301 11.6073 8.89267 12.167 9.58301 12.167C10.2733 12.167 10.833 11.6073 10.833 10.917Z" stroke="#56555A" stroke-width="1.5"/>
</svg>
