<svg width="18" height="18" viewBox="0 0 18 18" fill="none" xmlns="http://www.w3.org/2000/svg">
<g clip-path="url(#clip0_2851_86417)">
<path d="M16.7725 14.7273H13.9089C12.1044 14.7273 10.6362 13.2592 10.6362 11.4546C10.6362 9.65012 12.1044 8.18198 13.9089 8.18198H16.7725C16.9986 8.18198 17.1816 7.999 17.1816 7.77288V6.54563C17.1816 5.68778 16.5162 4.99012 15.6755 4.92247L13.326 0.818844C13.1083 0.439316 12.7568 0.168054 12.3361 0.0554156C11.9174 -0.0564561 11.4796 0.00229861 11.1048 0.220404L3.05087 4.90928H1.63635C0.733897 4.90928 0 5.64314 0 6.54563V16.3636C0 17.2661 0.733859 18 1.63635 18H15.5452C16.4477 18 17.1816 17.2661 17.1816 16.3636V15.1364C17.1816 14.9103 16.9986 14.7273 16.7725 14.7273ZM13.8334 3.35235L14.7248 4.90928H11.1592L13.8334 3.35235ZM4.67698 4.90928L11.5167 0.927494C11.7017 0.819227 11.9178 0.790463 12.1243 0.845613C12.3333 0.90153 12.5075 1.03657 12.6157 1.22552L12.6166 1.22702L6.29201 4.90928H4.67698Z" fill="#4050B5"/>
<path d="M16.7722 9H13.9086C12.5551 9 11.4541 10.101 11.4541 11.4545C11.4541 12.808 12.5551 13.909 13.9086 13.909H16.7722C17.449 13.909 17.9995 13.3585 17.9995 12.6818V10.2273C17.9995 9.5505 17.449 9 16.7722 9ZM13.9086 12.2727C13.4576 12.2727 13.0905 11.9055 13.0905 11.4545C13.0905 11.0035 13.4576 10.6364 13.9086 10.6364C14.3596 10.6364 14.7268 11.0035 14.7268 11.4545C14.7268 11.9055 14.3597 12.2727 13.9086 12.2727Z" fill="#4050B5"/>
</g>
<defs>
<clipPath id="clip0_2851_86417">
<rect width="18" height="18" fill="white"/>
</clipPath>
</defs>
</svg>
